%TF.GenerationSoftware,KiCad,Pcbnew,10.0.1*%
%TF.CreationDate,2026-07-10T19:17:28-04:00*%
%TF.ProjectId,RFID_Door_Controller,52464944-5f44-46f6-9f72-5f436f6e7472,rev?*%
%TF.SameCoordinates,Original*%
%TF.FileFunction,Soldermask,Top*%
%TF.FilePolarity,Negative*%
%FSLAX46Y46*%
G04 Gerber Fmt 4.6, Leading zero omitted, Abs format (unit mm)*
G04 Created by KiCad (PCBNEW 10.0.1) date 2026-07-10 19:17:28*
%MOMM*%
%LPD*%
G01*
G04 APERTURE LIST*
G04 Aperture macros list*
%AMRoundRect*
0 Rectangle with rounded corners*
0 $1 Rounding radius*
0 $2 $3 $4 $5 $6 $7 $8 $9 X,Y pos of 4 corners*
0 Add a 4 corners polygon primitive as box body*
4,1,4,$2,$3,$4,$5,$6,$7,$8,$9,$2,$3,0*
0 Add four circle primitives for the rounded corners*
1,1,$1+$1,$2,$3*
1,1,$1+$1,$4,$5*
1,1,$1+$1,$6,$7*
1,1,$1+$1,$8,$9*
0 Add four rect primitives between the rounded corners*
20,1,$1+$1,$2,$3,$4,$5,0*
20,1,$1+$1,$4,$5,$6,$7,0*
20,1,$1+$1,$6,$7,$8,$9,0*
20,1,$1+$1,$8,$9,$2,$3,0*%
G04 Aperture macros list end*
%ADD10RoundRect,0.250000X-0.550000X-0.550000X0.550000X-0.550000X0.550000X0.550000X-0.550000X0.550000X0*%
%ADD11C,1.600000*%
%ADD12C,3.000000*%
%ADD13C,2.500000*%
%ADD14R,1.700000X1.700000*%
%ADD15C,1.700000*%
%ADD16RoundRect,0.152400X0.609600X-1.063600X0.609600X1.063600X-0.609600X1.063600X-0.609600X-1.063600X0*%
%ADD17C,1.524000*%
%ADD18RoundRect,0.152400X-0.609600X1.063600X-0.609600X-1.063600X0.609600X-1.063600X0.609600X1.063600X0*%
%ADD19RoundRect,0.249999X-0.790001X-1.550001X0.790001X-1.550001X0.790001X1.550001X-0.790001X1.550001X0*%
%ADD20O,2.080000X3.600000*%
%ADD21C,3.200000*%
%ADD22RoundRect,0.249999X-0.850001X-0.850001X0.850001X-0.850001X0.850001X0.850001X-0.850001X0.850001X0*%
%ADD23C,2.200000*%
%ADD24R,1.500000X1.500000*%
%ADD25C,1.500000*%
%ADD26RoundRect,0.249999X0.850001X-0.850001X0.850001X0.850001X-0.850001X0.850001X-0.850001X-0.850001X0*%
%ADD27R,1.905000X2.000000*%
%ADD28O,1.905000X2.000000*%
%ADD29R,2.000000X2.000000*%
%ADD30C,2.000000*%
G04 APERTURE END LIST*
D10*
%TO.C,C2*%
X78000000Y-59000000D03*
D11*
X80500000Y-59000000D03*
%TD*%
D12*
%TO.C,K1*%
X14000000Y-50000000D03*
D13*
X15950000Y-56050000D03*
D12*
X28150000Y-56050000D03*
X28200000Y-44000000D03*
D13*
X15950000Y-44050000D03*
%TD*%
D14*
%TO.C,J6*%
X81000000Y-4000000D03*
D15*
X83540000Y-4000000D03*
X86080000Y-4000000D03*
X88620000Y-4000000D03*
%TD*%
D11*
%TO.C,R2*%
X56000000Y-62000000D03*
X66160000Y-62000000D03*
%TD*%
D16*
%TO.C,U1*%
X27620000Y-7545000D03*
D17*
X27620000Y-8380000D03*
D16*
X25080000Y-7545000D03*
D17*
X25080000Y-8380000D03*
D16*
X22540000Y-7545000D03*
D17*
X22540000Y-8380000D03*
D16*
X20000000Y-7545000D03*
D17*
X20000000Y-8380000D03*
D16*
X17460000Y-7545000D03*
D17*
X17460000Y-8380000D03*
D16*
X14920000Y-7545000D03*
D17*
X14920000Y-8380000D03*
D16*
X12380000Y-7545000D03*
D17*
X12380000Y-8380000D03*
X12380000Y-23620000D03*
D18*
X12380000Y-24455000D03*
D17*
X14920000Y-23620000D03*
D18*
X14920000Y-24455000D03*
D17*
X17460000Y-23620000D03*
D18*
X17460000Y-24455000D03*
D17*
X20000000Y-23620000D03*
D18*
X20000000Y-24455000D03*
D17*
X22540000Y-23620000D03*
D18*
X22540000Y-24455000D03*
D17*
X25080000Y-23620000D03*
D18*
X25080000Y-24455000D03*
D17*
X27620000Y-23620000D03*
D18*
X27620000Y-24455000D03*
%TD*%
D11*
%TO.C,R4*%
X35000000Y-47000000D03*
X45160000Y-47000000D03*
%TD*%
D19*
%TO.C,J5*%
X45500000Y-72000000D03*
D20*
X50580000Y-72000000D03*
%TD*%
D21*
%TO.C,H4*%
X106000000Y-64000000D03*
%TD*%
D19*
%TO.C,J1*%
X10000000Y-72000000D03*
D20*
X15080000Y-72000000D03*
%TD*%
D11*
%TO.C,R3*%
X35000000Y-44000000D03*
X45160000Y-44000000D03*
%TD*%
D21*
%TO.C,H3*%
X4000000Y-64000000D03*
%TD*%
D11*
%TO.C,R6*%
X52000000Y-25000000D03*
X62160000Y-25000000D03*
%TD*%
%TO.C,R1*%
X56000000Y-58000000D03*
X66160000Y-58000000D03*
%TD*%
D10*
%TO.C,C4*%
X12000000Y-30000000D03*
D11*
X14500000Y-30000000D03*
%TD*%
D14*
%TO.C,J2*%
X86000000Y-12000000D03*
D15*
X88540000Y-12000000D03*
X91080000Y-12000000D03*
X93620000Y-12000000D03*
X96160000Y-12000000D03*
X98700000Y-12000000D03*
X101240000Y-12000000D03*
X103780000Y-12000000D03*
%TD*%
D22*
%TO.C,D2*%
X62000000Y-50000000D03*
D23*
X72160000Y-50000000D03*
%TD*%
D19*
%TO.C,J3*%
X60000000Y-72000000D03*
D20*
X65080000Y-72000000D03*
X70160000Y-72000000D03*
X75240000Y-72000000D03*
X80320000Y-72000000D03*
X85400000Y-72000000D03*
X90480000Y-72000000D03*
X95560000Y-72000000D03*
%TD*%
D14*
%TO.C,J9*%
X73400000Y-6000000D03*
D15*
X73400000Y-8540000D03*
X73400000Y-11080000D03*
X73400000Y-13620000D03*
X73400000Y-16160000D03*
X73400000Y-18700000D03*
X73400000Y-21240000D03*
X73400000Y-23780000D03*
X73400000Y-26320000D03*
X73400000Y-28860000D03*
X73400000Y-31400000D03*
X73400000Y-33940000D03*
X73400000Y-36480000D03*
X73400000Y-39020000D03*
X73400000Y-41560000D03*
%TD*%
D14*
%TO.C,J10*%
X86000000Y-51000000D03*
D15*
X88540000Y-51000000D03*
X91080000Y-51000000D03*
X93620000Y-51000000D03*
X96160000Y-51000000D03*
X98700000Y-51000000D03*
X101240000Y-51000000D03*
X103780000Y-51000000D03*
%TD*%
D24*
%TO.C,Q1*%
X40000000Y-54000000D03*
D25*
X42540000Y-54000000D03*
X45080000Y-54000000D03*
%TD*%
D21*
%TO.C,H2*%
X106000000Y-4000000D03*
%TD*%
D10*
%TO.C,C1*%
X84000000Y-59000000D03*
D11*
X86500000Y-59000000D03*
%TD*%
D26*
%TO.C,D3*%
X6000000Y-58000000D03*
D23*
X6000000Y-47840000D03*
%TD*%
D21*
%TO.C,H1*%
X4000000Y-4000000D03*
%TD*%
D26*
%TO.C,D1*%
X6000000Y-36000000D03*
D23*
X6000000Y-25840000D03*
%TD*%
D27*
%TO.C,U2*%
X91000000Y-60000000D03*
D28*
X93540000Y-60000000D03*
X96080000Y-60000000D03*
%TD*%
D29*
%TO.C,BZ1*%
X32000000Y-34000000D03*
D30*
X39600000Y-34000000D03*
%TD*%
D14*
%TO.C,J7*%
X106000000Y-20000000D03*
D15*
X106000000Y-22540000D03*
X106000000Y-25080000D03*
X106000000Y-27620000D03*
%TD*%
D11*
%TO.C,R7*%
X52000000Y-28000000D03*
X62160000Y-28000000D03*
%TD*%
D19*
%TO.C,J4*%
X26000000Y-72000000D03*
D20*
X31080000Y-72000000D03*
X36160000Y-72000000D03*
%TD*%
D11*
%TO.C,C3*%
X70000000Y-59000000D03*
X72500000Y-59000000D03*
%TD*%
D14*
%TO.C,J8*%
X48000000Y-6000000D03*
D15*
X48000000Y-8540000D03*
X48000000Y-11080000D03*
X48000000Y-13620000D03*
X48000000Y-16160000D03*
X48000000Y-18700000D03*
X48000000Y-21240000D03*
X48000000Y-23780000D03*
X48000000Y-26320000D03*
X48000000Y-28860000D03*
X48000000Y-31400000D03*
X48000000Y-33940000D03*
X48000000Y-36480000D03*
X48000000Y-39020000D03*
X48000000Y-41560000D03*
%TD*%
D11*
%TO.C,R5*%
X52000000Y-22000000D03*
X62160000Y-22000000D03*
%TD*%
M02*
