%TF.GenerationSoftware,KiCad,Pcbnew,10.0.1*%
%TF.CreationDate,2026-07-10T19:17:28-04:00*%
%TF.ProjectId,RFID_Door_Controller,52464944-5f44-46f6-9f72-5f436f6e7472,rev?*%
%TF.SameCoordinates,Original*%
%TF.FileFunction,Drillmap*%
%TF.FilePolarity,Positive*%
%FSLAX45Y45*%
G04 Gerber Fmt 4.5, Leading zero omitted, Abs format (unit mm)*
G04 Created by KiCad (PCBNEW 10.0.1) date 2026-07-10 19:17:28*
%MOMM*%
%LPD*%
G01*
G04 APERTURE LIST*
%ADD10C,0.100000*%
%ADD11C,0.200000*%
%ADD12C,0.110000*%
%ADD13C,0.130000*%
%ADD14C,0.140000*%
%ADD15C,0.320000*%
G04 APERTURE END LIST*
D10*
X0Y0D02*
X11000000Y0D01*
X11000000Y-8000000D01*
X0Y-8000000D01*
X0Y0D01*
D11*
D10*
X132400Y-792800D02*
X172400Y-832800D01*
X172400Y-792800D02*
X132400Y-832800D01*
X284800Y-1148400D02*
X324800Y-1188400D01*
X324800Y-1148400D02*
X284800Y-1188400D01*
X386400Y-996000D02*
X426400Y-1036000D01*
X426400Y-996000D02*
X386400Y-1036000D01*
X589600Y-1300800D02*
X629600Y-1340800D01*
X629600Y-1300800D02*
X589600Y-1340800D01*
X792800Y-4399600D02*
X832800Y-4439600D01*
X832800Y-4399600D02*
X792800Y-4439600D01*
X1097600Y-2062800D02*
X1137600Y-2102800D01*
X1137600Y-2062800D02*
X1097600Y-2102800D01*
X1300800Y-1300800D02*
X1340800Y-1340800D01*
X1340800Y-1300800D02*
X1300800Y-1340800D01*
X1300800Y-1961200D02*
X1340800Y-2001200D01*
X1340800Y-1961200D02*
X1300800Y-2001200D01*
X1300800Y-2672400D02*
X1340800Y-2712400D01*
X1340800Y-2672400D02*
X1300800Y-2712400D01*
X1300800Y-3383600D02*
X1340800Y-3423600D01*
X1340800Y-3383600D02*
X1300800Y-3423600D01*
X1300800Y-6177600D02*
X1340800Y-6217600D01*
X1340800Y-6177600D02*
X1300800Y-6217600D01*
X1300800Y-6888800D02*
X1340800Y-6928800D01*
X1340800Y-6888800D02*
X1300800Y-6928800D01*
X1453200Y-183200D02*
X1493200Y-223200D01*
X1493200Y-183200D02*
X1453200Y-223200D01*
X1605600Y-2824800D02*
X1645600Y-2864800D01*
X1645600Y-2824800D02*
X1605600Y-2864800D01*
X1758000Y-2824800D02*
X1798000Y-2864800D01*
X1798000Y-2824800D02*
X1758000Y-2864800D01*
X1808800Y-1097600D02*
X1848800Y-1137600D01*
X1848800Y-1097600D02*
X1808800Y-1137600D01*
X1961200Y-1300800D02*
X2001200Y-1340800D01*
X2001200Y-1300800D02*
X1961200Y-1340800D01*
X1961200Y-1961200D02*
X2001200Y-2001200D01*
X2001200Y-1961200D02*
X1961200Y-2001200D01*
X1961200Y-3028000D02*
X2001200Y-3068000D01*
X2001200Y-3028000D02*
X1961200Y-3068000D01*
X1961200Y-5314000D02*
X2001200Y-5354000D01*
X2001200Y-5314000D02*
X1961200Y-5354000D01*
X2062800Y-3891600D02*
X2102800Y-3931600D01*
X2102800Y-3891600D02*
X2062800Y-3931600D01*
X2062800Y-4044000D02*
X2102800Y-4084000D01*
X2102800Y-4044000D02*
X2062800Y-4084000D01*
X2570800Y-538800D02*
X2610800Y-578800D01*
X2610800Y-538800D02*
X2570800Y-578800D01*
X2570800Y-2621600D02*
X2610800Y-2661600D01*
X2610800Y-2621600D02*
X2570800Y-2661600D01*
X2875600Y-3891600D02*
X2915600Y-3931600D01*
X2915600Y-3891600D02*
X2875600Y-3931600D01*
X2926400Y-1148400D02*
X2966400Y-1188400D01*
X2966400Y-1148400D02*
X2926400Y-1188400D01*
X3028000Y-742000D02*
X3068000Y-782000D01*
X3068000Y-742000D02*
X3028000Y-782000D01*
X3028000Y-3028000D02*
X3068000Y-3068000D01*
X3068000Y-3028000D02*
X3028000Y-3068000D01*
X3078800Y-1046800D02*
X3118800Y-1086800D01*
X3118800Y-1046800D02*
X3078800Y-1086800D01*
X3078800Y-5364800D02*
X3118800Y-5404800D01*
X3118800Y-5364800D02*
X3078800Y-5404800D01*
X3231200Y-4145600D02*
X3271200Y-4185600D01*
X3271200Y-4145600D02*
X3231200Y-4185600D01*
X3383600Y-1300800D02*
X3423600Y-1340800D01*
X3423600Y-1300800D02*
X3383600Y-1340800D01*
X3383600Y-1961200D02*
X3423600Y-2001200D01*
X3423600Y-1961200D02*
X3383600Y-2001200D01*
X3383600Y-5466400D02*
X3423600Y-5506400D01*
X3423600Y-5466400D02*
X3383600Y-5506400D01*
X3383600Y-6177600D02*
X3423600Y-6217600D01*
X3423600Y-6177600D02*
X3383600Y-6217600D01*
X3383600Y-6888800D02*
X3423600Y-6928800D01*
X3423600Y-6888800D02*
X3383600Y-6928800D01*
X4094800Y-1300800D02*
X4134800Y-1340800D01*
X4134800Y-1300800D02*
X4094800Y-1340800D01*
X4094800Y-1961200D02*
X4134800Y-2001200D01*
X4134800Y-1961200D02*
X4094800Y-2001200D01*
X4094800Y-3383600D02*
X4134800Y-3423600D01*
X4134800Y-3383600D02*
X4094800Y-3423600D01*
X4094800Y-4755200D02*
X4134800Y-4795200D01*
X4134800Y-4755200D02*
X4094800Y-4795200D01*
X4094800Y-6177600D02*
X4134800Y-6217600D01*
X4134800Y-6177600D02*
X4094800Y-6217600D01*
X4094800Y-6888800D02*
X4134800Y-6928800D01*
X4134800Y-6888800D02*
X4094800Y-6928800D01*
X4755200Y-4653600D02*
X4795200Y-4693600D01*
X4795200Y-4653600D02*
X4755200Y-4693600D01*
X4755200Y-6177600D02*
X4795200Y-6217600D01*
X4795200Y-6177600D02*
X4755200Y-6217600D01*
X5060000Y-538800D02*
X5100000Y-578800D01*
X5100000Y-538800D02*
X5060000Y-578800D01*
X5060000Y-2926400D02*
X5100000Y-2966400D01*
X5100000Y-2926400D02*
X5060000Y-2966400D01*
X5060000Y-5364800D02*
X5100000Y-5404800D01*
X5100000Y-5364800D02*
X5060000Y-5404800D01*
X5161600Y-4653600D02*
X5201600Y-4693600D01*
X5201600Y-4653600D02*
X5161600Y-4693600D01*
X5415600Y-7346000D02*
X5455600Y-7386000D01*
X5455600Y-7346000D02*
X5415600Y-7386000D01*
X5466400Y-589600D02*
X5506400Y-629600D01*
X5506400Y-589600D02*
X5466400Y-629600D01*
X5466400Y-1300800D02*
X5506400Y-1340800D01*
X5506400Y-1300800D02*
X5466400Y-1340800D01*
X5466400Y-2012000D02*
X5506400Y-2052000D01*
X5506400Y-2012000D02*
X5466400Y-2052000D01*
X5466400Y-3383600D02*
X5506400Y-3423600D01*
X5506400Y-3383600D02*
X5466400Y-3423600D01*
X5466400Y-4094800D02*
X5506400Y-4134800D01*
X5506400Y-4094800D02*
X5466400Y-4134800D01*
X5466400Y-5466400D02*
X5506400Y-5506400D01*
X5506400Y-5466400D02*
X5466400Y-5506400D01*
X5466400Y-6888800D02*
X5506400Y-6928800D01*
X5506400Y-6888800D02*
X5466400Y-6928800D01*
X5872800Y-1605600D02*
X5912800Y-1645600D01*
X5912800Y-1605600D02*
X5872800Y-1645600D01*
X5872800Y-2113600D02*
X5912800Y-2153600D01*
X5912800Y-2113600D02*
X5872800Y-2153600D01*
X6025200Y-4399600D02*
X6065200Y-4439600D01*
X6065200Y-4399600D02*
X6025200Y-4439600D01*
X6177600Y-589600D02*
X6217600Y-629600D01*
X6217600Y-589600D02*
X6177600Y-629600D01*
X6177600Y-1300800D02*
X6217600Y-1340800D01*
X6217600Y-1300800D02*
X6177600Y-1340800D01*
X6177600Y-5466400D02*
X6217600Y-5506400D01*
X6217600Y-5466400D02*
X6177600Y-5506400D01*
X6177600Y-6177600D02*
X6217600Y-6217600D01*
X6217600Y-6177600D02*
X6177600Y-6217600D01*
X6177600Y-6888800D02*
X6217600Y-6928800D01*
X6217600Y-6888800D02*
X6177600Y-6928800D01*
X6330000Y-4399600D02*
X6370000Y-4439600D01*
X6370000Y-4399600D02*
X6330000Y-4439600D01*
X6330000Y-6634800D02*
X6370000Y-6674800D01*
X6370000Y-6634800D02*
X6330000Y-6674800D01*
X6380800Y-3129600D02*
X6420800Y-3169600D01*
X6420800Y-3129600D02*
X6380800Y-3169600D01*
X6533200Y-742000D02*
X6573200Y-782000D01*
X6573200Y-742000D02*
X6533200Y-782000D01*
X6533200Y-1758000D02*
X6573200Y-1798000D01*
X6573200Y-1758000D02*
X6533200Y-1798000D01*
X6634800Y-6533200D02*
X6674800Y-6573200D01*
X6674800Y-6533200D02*
X6634800Y-6573200D01*
X6634800Y-6685600D02*
X6674800Y-6725600D01*
X6674800Y-6685600D02*
X6634800Y-6725600D01*
X6685600Y-1707200D02*
X6725600Y-1747200D01*
X6725600Y-1707200D02*
X6685600Y-1747200D01*
X6685600Y-2215200D02*
X6725600Y-2255200D01*
X6725600Y-2215200D02*
X6685600Y-2255200D01*
X6888800Y-1300800D02*
X6928800Y-1340800D01*
X6928800Y-1300800D02*
X6888800Y-1340800D01*
X6888800Y-5466400D02*
X6928800Y-5506400D01*
X6928800Y-5466400D02*
X6888800Y-5506400D01*
X6888800Y-7549200D02*
X6928800Y-7589200D01*
X6928800Y-7549200D02*
X6888800Y-7589200D01*
X6990400Y-6228400D02*
X7030400Y-6268400D01*
X7030400Y-6228400D02*
X6990400Y-6268400D01*
X7498400Y-1351600D02*
X7538400Y-1391600D01*
X7538400Y-1351600D02*
X7498400Y-1391600D01*
X7498400Y-1961200D02*
X7538400Y-2001200D01*
X7538400Y-1961200D02*
X7498400Y-2001200D01*
X7600000Y-2113600D02*
X7640000Y-2153600D01*
X7640000Y-2113600D02*
X7600000Y-2153600D01*
X7600000Y-4501200D02*
X7640000Y-4541200D01*
X7640000Y-4501200D02*
X7600000Y-4541200D01*
X7600000Y-6279200D02*
X7640000Y-6319200D01*
X7640000Y-6279200D02*
X7600000Y-6319200D01*
X7701600Y-284800D02*
X7741600Y-324800D01*
X7741600Y-284800D02*
X7701600Y-324800D01*
X7701600Y-4653600D02*
X7741600Y-4693600D01*
X7741600Y-4653600D02*
X7701600Y-4693600D01*
X8260400Y-589600D02*
X8300400Y-629600D01*
X8300400Y-589600D02*
X8260400Y-629600D01*
X8260400Y-2672400D02*
X8300400Y-2712400D01*
X8300400Y-2672400D02*
X8260400Y-2712400D01*
X8260400Y-3383600D02*
X8300400Y-3423600D01*
X8300400Y-3383600D02*
X8260400Y-3423600D01*
X8260400Y-4094800D02*
X8300400Y-4134800D01*
X8300400Y-4094800D02*
X8260400Y-4134800D01*
X8260400Y-4755200D02*
X8300400Y-4795200D01*
X8300400Y-4755200D02*
X8260400Y-4795200D01*
X8260400Y-5466400D02*
X8300400Y-5506400D01*
X8300400Y-5466400D02*
X8260400Y-5506400D01*
X8971600Y-589600D02*
X9011600Y-629600D01*
X9011600Y-589600D02*
X8971600Y-629600D01*
X8971600Y-2672400D02*
X9011600Y-2712400D01*
X9011600Y-2672400D02*
X8971600Y-2712400D01*
X8971600Y-3383600D02*
X9011600Y-3423600D01*
X9011600Y-3383600D02*
X8971600Y-3423600D01*
X8971600Y-4094800D02*
X9011600Y-4134800D01*
X9011600Y-4094800D02*
X8971600Y-4134800D01*
X8971600Y-4755200D02*
X9011600Y-4795200D01*
X9011600Y-4755200D02*
X8971600Y-4795200D01*
X8971600Y-5466400D02*
X9011600Y-5506400D01*
X9011600Y-5466400D02*
X8971600Y-5506400D01*
X9682800Y-589600D02*
X9722800Y-629600D01*
X9722800Y-589600D02*
X9682800Y-629600D01*
X9682800Y-2672400D02*
X9722800Y-2712400D01*
X9722800Y-2672400D02*
X9682800Y-2712400D01*
X9682800Y-3383600D02*
X9722800Y-3423600D01*
X9722800Y-3383600D02*
X9682800Y-3423600D01*
X9682800Y-4094800D02*
X9722800Y-4134800D01*
X9722800Y-4094800D02*
X9682800Y-4134800D01*
X9682800Y-4755200D02*
X9722800Y-4795200D01*
X9722800Y-4755200D02*
X9682800Y-4795200D01*
X9682800Y-5466400D02*
X9722800Y-5506400D01*
X9722800Y-5466400D02*
X9682800Y-5506400D01*
X9682800Y-6888800D02*
X9722800Y-6928800D01*
X9722800Y-6888800D02*
X9682800Y-6928800D01*
X10394000Y-2672400D02*
X10434000Y-2712400D01*
X10434000Y-2672400D02*
X10394000Y-2712400D01*
X10394000Y-3383600D02*
X10434000Y-3423600D01*
X10434000Y-3383600D02*
X10394000Y-3423600D01*
X10394000Y-4094800D02*
X10434000Y-4134800D01*
X10434000Y-4094800D02*
X10394000Y-4134800D01*
X10394000Y-4755200D02*
X10434000Y-4795200D01*
X10434000Y-4755200D02*
X10394000Y-4795200D01*
X10394000Y-5466400D02*
X10434000Y-5506400D01*
X10434000Y-5466400D02*
X10394000Y-5506400D01*
X10394000Y-6888800D02*
X10434000Y-6928800D01*
X10434000Y-6888800D02*
X10394000Y-6928800D01*
X1240000Y-3000000D02*
G75*
G02*
X1160000Y-3000000I-40000J0D01*
G01*
X1160000Y-3000000D02*
G75*
G02*
X1240000Y-3000000I40000J0D01*
G01*
X1490000Y-3000000D02*
G75*
G02*
X1410000Y-3000000I-40000J0D01*
G01*
X1410000Y-3000000D02*
G75*
G02*
X1490000Y-3000000I40000J0D01*
G01*
X3540000Y-4400000D02*
G75*
G02*
X3460000Y-4400000I-40000J0D01*
G01*
X3460000Y-4400000D02*
G75*
G02*
X3540000Y-4400000I40000J0D01*
G01*
X3540000Y-4700000D02*
G75*
G02*
X3460000Y-4700000I-40000J0D01*
G01*
X3460000Y-4700000D02*
G75*
G02*
X3540000Y-4700000I40000J0D01*
G01*
X4040000Y-5400000D02*
G75*
G02*
X3960000Y-5400000I-40000J0D01*
G01*
X3960000Y-5400000D02*
G75*
G02*
X4040000Y-5400000I40000J0D01*
G01*
X4294000Y-5400000D02*
G75*
G02*
X4214000Y-5400000I-40000J0D01*
G01*
X4214000Y-5400000D02*
G75*
G02*
X4294000Y-5400000I40000J0D01*
G01*
X4548000Y-5400000D02*
G75*
G02*
X4468000Y-5400000I-40000J0D01*
G01*
X4468000Y-5400000D02*
G75*
G02*
X4548000Y-5400000I40000J0D01*
G01*
X4556000Y-4400000D02*
G75*
G02*
X4476000Y-4400000I-40000J0D01*
G01*
X4476000Y-4400000D02*
G75*
G02*
X4556000Y-4400000I40000J0D01*
G01*
X4556000Y-4700000D02*
G75*
G02*
X4476000Y-4700000I-40000J0D01*
G01*
X4476000Y-4700000D02*
G75*
G02*
X4556000Y-4700000I40000J0D01*
G01*
X5240000Y-2200000D02*
G75*
G02*
X5160000Y-2200000I-40000J0D01*
G01*
X5160000Y-2200000D02*
G75*
G02*
X5240000Y-2200000I40000J0D01*
G01*
X5240000Y-2500000D02*
G75*
G02*
X5160000Y-2500000I-40000J0D01*
G01*
X5160000Y-2500000D02*
G75*
G02*
X5240000Y-2500000I40000J0D01*
G01*
X5240000Y-2800000D02*
G75*
G02*
X5160000Y-2800000I-40000J0D01*
G01*
X5160000Y-2800000D02*
G75*
G02*
X5240000Y-2800000I40000J0D01*
G01*
X5640000Y-5800000D02*
G75*
G02*
X5560000Y-5800000I-40000J0D01*
G01*
X5560000Y-5800000D02*
G75*
G02*
X5640000Y-5800000I40000J0D01*
G01*
X5640000Y-6200000D02*
G75*
G02*
X5560000Y-6200000I-40000J0D01*
G01*
X5560000Y-6200000D02*
G75*
G02*
X5640000Y-6200000I40000J0D01*
G01*
X6256000Y-2200000D02*
G75*
G02*
X6176000Y-2200000I-40000J0D01*
G01*
X6176000Y-2200000D02*
G75*
G02*
X6256000Y-2200000I40000J0D01*
G01*
X6256000Y-2500000D02*
G75*
G02*
X6176000Y-2500000I-40000J0D01*
G01*
X6176000Y-2500000D02*
G75*
G02*
X6256000Y-2500000I40000J0D01*
G01*
X6256000Y-2800000D02*
G75*
G02*
X6176000Y-2800000I-40000J0D01*
G01*
X6176000Y-2800000D02*
G75*
G02*
X6256000Y-2800000I40000J0D01*
G01*
X6656000Y-5800000D02*
G75*
G02*
X6576000Y-5800000I-40000J0D01*
G01*
X6576000Y-5800000D02*
G75*
G02*
X6656000Y-5800000I40000J0D01*
G01*
X6656000Y-6200000D02*
G75*
G02*
X6576000Y-6200000I-40000J0D01*
G01*
X6576000Y-6200000D02*
G75*
G02*
X6656000Y-6200000I40000J0D01*
G01*
X7040000Y-5900000D02*
G75*
G02*
X6960000Y-5900000I-40000J0D01*
G01*
X6960000Y-5900000D02*
G75*
G02*
X7040000Y-5900000I40000J0D01*
G01*
X7290000Y-5900000D02*
G75*
G02*
X7210000Y-5900000I-40000J0D01*
G01*
X7210000Y-5900000D02*
G75*
G02*
X7290000Y-5900000I40000J0D01*
G01*
X7840000Y-5900000D02*
G75*
G02*
X7760000Y-5900000I-40000J0D01*
G01*
X7760000Y-5900000D02*
G75*
G02*
X7840000Y-5900000I40000J0D01*
G01*
X8090000Y-5900000D02*
G75*
G02*
X8010000Y-5900000I-40000J0D01*
G01*
X8010000Y-5900000D02*
G75*
G02*
X8090000Y-5900000I40000J0D01*
G01*
X8440000Y-5900000D02*
G75*
G02*
X8360000Y-5900000I-40000J0D01*
G01*
X8360000Y-5900000D02*
G75*
G02*
X8440000Y-5900000I40000J0D01*
G01*
X8690000Y-5900000D02*
G75*
G02*
X8610000Y-5900000I-40000J0D01*
G01*
X8610000Y-5900000D02*
G75*
G02*
X8690000Y-5900000I40000J0D01*
G01*
X1238000Y-793550D02*
X1238000Y-882450D01*
X1193550Y-838000D02*
X1282450Y-838000D01*
X1238000Y-2317550D02*
X1238000Y-2406450D01*
X1193550Y-2362000D02*
X1282450Y-2362000D01*
X1492000Y-793550D02*
X1492000Y-882450D01*
X1447550Y-838000D02*
X1536450Y-838000D01*
X1492000Y-2317550D02*
X1492000Y-2406450D01*
X1447550Y-2362000D02*
X1536450Y-2362000D01*
X1746000Y-793550D02*
X1746000Y-882450D01*
X1701550Y-838000D02*
X1790450Y-838000D01*
X1746000Y-2317550D02*
X1746000Y-2406450D01*
X1701550Y-2362000D02*
X1790450Y-2362000D01*
X2000000Y-793550D02*
X2000000Y-882450D01*
X1955550Y-838000D02*
X2044450Y-838000D01*
X2000000Y-2317550D02*
X2000000Y-2406450D01*
X1955550Y-2362000D02*
X2044450Y-2362000D01*
X2254000Y-793550D02*
X2254000Y-882450D01*
X2209550Y-838000D02*
X2298450Y-838000D01*
X2254000Y-2317550D02*
X2254000Y-2406450D01*
X2209550Y-2362000D02*
X2298450Y-2362000D01*
X2508000Y-793550D02*
X2508000Y-882450D01*
X2463550Y-838000D02*
X2552450Y-838000D01*
X2508000Y-2317550D02*
X2508000Y-2406450D01*
X2463550Y-2362000D02*
X2552450Y-2362000D01*
X2762000Y-793550D02*
X2762000Y-882450D01*
X2717550Y-838000D02*
X2806450Y-838000D01*
X2762000Y-2317550D02*
X2762000Y-2406450D01*
X2717550Y-2362000D02*
X2806450Y-2362000D01*
X1630356Y-4440356D02*
X1630356Y-4369644D01*
X1559644Y-4369644D01*
X1559644Y-4440356D01*
X1630356Y-4440356D01*
X1630356Y-5640356D02*
X1630356Y-5569644D01*
X1559644Y-5569644D01*
X1559644Y-5640356D01*
X1630356Y-5640356D01*
X3235356Y-3435356D02*
X3235356Y-3364644D01*
X3164644Y-3364644D01*
X3164644Y-3435356D01*
X3235356Y-3435356D01*
X3995356Y-3435356D02*
X3995356Y-3364644D01*
X3924644Y-3364644D01*
X3924644Y-3435356D01*
X3995356Y-3435356D01*
X4835356Y-635356D02*
X4835356Y-564644D01*
X4764644Y-564644D01*
X4764644Y-635356D01*
X4835356Y-635356D01*
X4835356Y-889356D02*
X4835356Y-818644D01*
X4764644Y-818644D01*
X4764644Y-889356D01*
X4835356Y-889356D01*
X4835356Y-1143356D02*
X4835356Y-1072644D01*
X4764644Y-1072644D01*
X4764644Y-1143356D01*
X4835356Y-1143356D01*
X4835356Y-1397356D02*
X4835356Y-1326644D01*
X4764644Y-1326644D01*
X4764644Y-1397356D01*
X4835356Y-1397356D01*
X4835356Y-1651356D02*
X4835356Y-1580644D01*
X4764644Y-1580644D01*
X4764644Y-1651356D01*
X4835356Y-1651356D01*
X4835356Y-1905356D02*
X4835356Y-1834644D01*
X4764644Y-1834644D01*
X4764644Y-1905356D01*
X4835356Y-1905356D01*
X4835356Y-2159356D02*
X4835356Y-2088644D01*
X4764644Y-2088644D01*
X4764644Y-2159356D01*
X4835356Y-2159356D01*
X4835356Y-2413356D02*
X4835356Y-2342644D01*
X4764644Y-2342644D01*
X4764644Y-2413356D01*
X4835356Y-2413356D01*
X4835356Y-2667356D02*
X4835356Y-2596644D01*
X4764644Y-2596644D01*
X4764644Y-2667356D01*
X4835356Y-2667356D01*
X4835356Y-2921356D02*
X4835356Y-2850644D01*
X4764644Y-2850644D01*
X4764644Y-2921356D01*
X4835356Y-2921356D01*
X4835356Y-3175356D02*
X4835356Y-3104644D01*
X4764644Y-3104644D01*
X4764644Y-3175356D01*
X4835356Y-3175356D01*
X4835356Y-3429356D02*
X4835356Y-3358644D01*
X4764644Y-3358644D01*
X4764644Y-3429356D01*
X4835356Y-3429356D01*
X4835356Y-3683356D02*
X4835356Y-3612644D01*
X4764644Y-3612644D01*
X4764644Y-3683356D01*
X4835356Y-3683356D01*
X4835356Y-3937356D02*
X4835356Y-3866644D01*
X4764644Y-3866644D01*
X4764644Y-3937356D01*
X4835356Y-3937356D01*
X4835356Y-4191356D02*
X4835356Y-4120644D01*
X4764644Y-4120644D01*
X4764644Y-4191356D01*
X4835356Y-4191356D01*
X7375356Y-635356D02*
X7375356Y-564644D01*
X7304644Y-564644D01*
X7304644Y-635356D01*
X7375356Y-635356D01*
X7375356Y-889356D02*
X7375356Y-818644D01*
X7304644Y-818644D01*
X7304644Y-889356D01*
X7375356Y-889356D01*
X7375356Y-1143356D02*
X7375356Y-1072644D01*
X7304644Y-1072644D01*
X7304644Y-1143356D01*
X7375356Y-1143356D01*
X7375356Y-1397356D02*
X7375356Y-1326644D01*
X7304644Y-1326644D01*
X7304644Y-1397356D01*
X7375356Y-1397356D01*
X7375356Y-1651356D02*
X7375356Y-1580644D01*
X7304644Y-1580644D01*
X7304644Y-1651356D01*
X7375356Y-1651356D01*
X7375356Y-1905356D02*
X7375356Y-1834644D01*
X7304644Y-1834644D01*
X7304644Y-1905356D01*
X7375356Y-1905356D01*
X7375356Y-2159356D02*
X7375356Y-2088644D01*
X7304644Y-2088644D01*
X7304644Y-2159356D01*
X7375356Y-2159356D01*
X7375356Y-2413356D02*
X7375356Y-2342644D01*
X7304644Y-2342644D01*
X7304644Y-2413356D01*
X7375356Y-2413356D01*
X7375356Y-2667356D02*
X7375356Y-2596644D01*
X7304644Y-2596644D01*
X7304644Y-2667356D01*
X7375356Y-2667356D01*
X7375356Y-2921356D02*
X7375356Y-2850644D01*
X7304644Y-2850644D01*
X7304644Y-2921356D01*
X7375356Y-2921356D01*
X7375356Y-3175356D02*
X7375356Y-3104644D01*
X7304644Y-3104644D01*
X7304644Y-3175356D01*
X7375356Y-3175356D01*
X7375356Y-3429356D02*
X7375356Y-3358644D01*
X7304644Y-3358644D01*
X7304644Y-3429356D01*
X7375356Y-3429356D01*
X7375356Y-3683356D02*
X7375356Y-3612644D01*
X7304644Y-3612644D01*
X7304644Y-3683356D01*
X7375356Y-3683356D01*
X7375356Y-3937356D02*
X7375356Y-3866644D01*
X7304644Y-3866644D01*
X7304644Y-3937356D01*
X7375356Y-3937356D01*
X7375356Y-4191356D02*
X7375356Y-4120644D01*
X7304644Y-4120644D01*
X7304644Y-4191356D01*
X7375356Y-4191356D01*
X8135356Y-435356D02*
X8135356Y-364644D01*
X8064644Y-364644D01*
X8064644Y-435356D01*
X8135356Y-435356D01*
X8389356Y-435356D02*
X8389356Y-364644D01*
X8318644Y-364644D01*
X8318644Y-435356D01*
X8389356Y-435356D01*
X8635356Y-1235356D02*
X8635356Y-1164644D01*
X8564644Y-1164644D01*
X8564644Y-1235356D01*
X8635356Y-1235356D01*
X8635356Y-5135356D02*
X8635356Y-5064644D01*
X8564644Y-5064644D01*
X8564644Y-5135356D01*
X8635356Y-5135356D01*
X8643356Y-435356D02*
X8643356Y-364644D01*
X8572644Y-364644D01*
X8572644Y-435356D01*
X8643356Y-435356D01*
X8889356Y-1235356D02*
X8889356Y-1164644D01*
X8818644Y-1164644D01*
X8818644Y-1235356D01*
X8889356Y-1235356D01*
X8889356Y-5135356D02*
X8889356Y-5064644D01*
X8818644Y-5064644D01*
X8818644Y-5135356D01*
X8889356Y-5135356D01*
X8897356Y-435356D02*
X8897356Y-364644D01*
X8826644Y-364644D01*
X8826644Y-435356D01*
X8897356Y-435356D01*
X9143356Y-1235356D02*
X9143356Y-1164644D01*
X9072644Y-1164644D01*
X9072644Y-1235356D01*
X9143356Y-1235356D01*
X9143356Y-5135356D02*
X9143356Y-5064644D01*
X9072644Y-5064644D01*
X9072644Y-5135356D01*
X9143356Y-5135356D01*
X9397356Y-1235356D02*
X9397356Y-1164644D01*
X9326644Y-1164644D01*
X9326644Y-1235356D01*
X9397356Y-1235356D01*
X9397356Y-5135356D02*
X9397356Y-5064644D01*
X9326644Y-5064644D01*
X9326644Y-5135356D01*
X9397356Y-5135356D01*
X9651356Y-1235356D02*
X9651356Y-1164644D01*
X9580644Y-1164644D01*
X9580644Y-1235356D01*
X9651356Y-1235356D01*
X9651356Y-5135356D02*
X9651356Y-5064644D01*
X9580644Y-5064644D01*
X9580644Y-5135356D01*
X9651356Y-5135356D01*
X9905356Y-1235356D02*
X9905356Y-1164644D01*
X9834644Y-1164644D01*
X9834644Y-1235356D01*
X9905356Y-1235356D01*
X9905356Y-5135356D02*
X9905356Y-5064644D01*
X9834644Y-5064644D01*
X9834644Y-5135356D01*
X9905356Y-5135356D01*
X10159356Y-1235356D02*
X10159356Y-1164644D01*
X10088644Y-1164644D01*
X10088644Y-1235356D01*
X10159356Y-1235356D01*
X10159356Y-5135356D02*
X10159356Y-5064644D01*
X10088644Y-5064644D01*
X10088644Y-5135356D01*
X10159356Y-5135356D01*
X10413356Y-1235356D02*
X10413356Y-1164644D01*
X10342644Y-1164644D01*
X10342644Y-1235356D01*
X10413356Y-1235356D01*
X10413356Y-5135356D02*
X10413356Y-5064644D01*
X10342644Y-5064644D01*
X10342644Y-5135356D01*
X10413356Y-5135356D01*
X10635356Y-2035356D02*
X10635356Y-1964644D01*
X10564644Y-1964644D01*
X10564644Y-2035356D01*
X10635356Y-2035356D01*
X10635356Y-2289356D02*
X10635356Y-2218644D01*
X10564644Y-2218644D01*
X10564644Y-2289356D01*
X10635356Y-2289356D01*
X10635356Y-2543356D02*
X10635356Y-2472644D01*
X10564644Y-2472644D01*
X10564644Y-2543356D01*
X10635356Y-2543356D01*
X10635356Y-2797356D02*
X10635356Y-2726644D01*
X10564644Y-2726644D01*
X10564644Y-2797356D01*
X10635356Y-2797356D01*
D12*
X600000Y-2639000D02*
X655000Y-2584000D01*
X600000Y-2529000D01*
X545000Y-2584000D01*
X600000Y-2639000D01*
X600000Y-3655000D02*
X655000Y-3600000D01*
X600000Y-3545000D01*
X545000Y-3600000D01*
X600000Y-3655000D01*
X600000Y-4839000D02*
X655000Y-4784000D01*
X600000Y-4729000D01*
X545000Y-4784000D01*
X600000Y-4839000D01*
X600000Y-5855000D02*
X655000Y-5800000D01*
X600000Y-5745000D01*
X545000Y-5800000D01*
X600000Y-5855000D01*
X6200000Y-5055000D02*
X6255000Y-5000000D01*
X6200000Y-4945000D01*
X6145000Y-5000000D01*
X6200000Y-5055000D01*
X7216000Y-5055000D02*
X7271000Y-5000000D01*
X7216000Y-4945000D01*
X7161000Y-5000000D01*
X7216000Y-5055000D01*
X9100000Y-6055000D02*
X9155000Y-6000000D01*
X9100000Y-5945000D01*
X9045000Y-6000000D01*
X9100000Y-6055000D01*
X9354000Y-6055000D02*
X9409000Y-6000000D01*
X9354000Y-5945000D01*
X9299000Y-6000000D01*
X9354000Y-6055000D01*
X9608000Y-6055000D02*
X9663000Y-6000000D01*
X9608000Y-5945000D01*
X9553000Y-6000000D01*
X9608000Y-6055000D01*
D13*
X1335000Y-4935000D02*
X1465000Y-5065000D01*
X1465000Y-4935000D02*
X1335000Y-5065000D01*
X1465000Y-5000000D02*
G75*
G02*
X1335000Y-5000000I-65000J0D01*
G01*
X1335000Y-5000000D02*
G75*
G02*
X1465000Y-5000000I65000J0D01*
G01*
X2750000Y-5540000D02*
X2880000Y-5670000D01*
X2880000Y-5540000D02*
X2750000Y-5670000D01*
X2880000Y-5605000D02*
G75*
G02*
X2750000Y-5605000I-65000J0D01*
G01*
X2750000Y-5605000D02*
G75*
G02*
X2880000Y-5605000I65000J0D01*
G01*
X2755000Y-4335000D02*
X2885000Y-4465000D01*
X2885000Y-4335000D02*
X2755000Y-4465000D01*
X2885000Y-4400000D02*
G75*
G02*
X2755000Y-4400000I-65000J0D01*
G01*
X2755000Y-4400000D02*
G75*
G02*
X2885000Y-4400000I65000J0D01*
G01*
D14*
X930000Y-7130000D02*
X1070000Y-7270000D01*
X1070000Y-7130000D02*
X930000Y-7270000D01*
X1000000Y-7130000D02*
X1000000Y-7270000D01*
X930000Y-7200000D02*
X1070000Y-7200000D01*
X1438000Y-7130000D02*
X1578000Y-7270000D01*
X1578000Y-7130000D02*
X1438000Y-7270000D01*
X1508000Y-7130000D02*
X1508000Y-7270000D01*
X1438000Y-7200000D02*
X1578000Y-7200000D01*
X2530000Y-7130000D02*
X2670000Y-7270000D01*
X2670000Y-7130000D02*
X2530000Y-7270000D01*
X2600000Y-7130000D02*
X2600000Y-7270000D01*
X2530000Y-7200000D02*
X2670000Y-7200000D01*
X3038000Y-7130000D02*
X3178000Y-7270000D01*
X3178000Y-7130000D02*
X3038000Y-7270000D01*
X3108000Y-7130000D02*
X3108000Y-7270000D01*
X3038000Y-7200000D02*
X3178000Y-7200000D01*
X3546000Y-7130000D02*
X3686000Y-7270000D01*
X3686000Y-7130000D02*
X3546000Y-7270000D01*
X3616000Y-7130000D02*
X3616000Y-7270000D01*
X3546000Y-7200000D02*
X3686000Y-7200000D01*
X4480000Y-7130000D02*
X4620000Y-7270000D01*
X4620000Y-7130000D02*
X4480000Y-7270000D01*
X4550000Y-7130000D02*
X4550000Y-7270000D01*
X4480000Y-7200000D02*
X4620000Y-7200000D01*
X4988000Y-7130000D02*
X5128000Y-7270000D01*
X5128000Y-7130000D02*
X4988000Y-7270000D01*
X5058000Y-7130000D02*
X5058000Y-7270000D01*
X4988000Y-7200000D02*
X5128000Y-7200000D01*
X5930000Y-7130000D02*
X6070000Y-7270000D01*
X6070000Y-7130000D02*
X5930000Y-7270000D01*
X6000000Y-7130000D02*
X6000000Y-7270000D01*
X5930000Y-7200000D02*
X6070000Y-7200000D01*
X6438000Y-7130000D02*
X6578000Y-7270000D01*
X6578000Y-7130000D02*
X6438000Y-7270000D01*
X6508000Y-7130000D02*
X6508000Y-7270000D01*
X6438000Y-7200000D02*
X6578000Y-7200000D01*
X6946000Y-7130000D02*
X7086000Y-7270000D01*
X7086000Y-7130000D02*
X6946000Y-7270000D01*
X7016000Y-7130000D02*
X7016000Y-7270000D01*
X6946000Y-7200000D02*
X7086000Y-7200000D01*
X7454000Y-7130000D02*
X7594000Y-7270000D01*
X7594000Y-7130000D02*
X7454000Y-7270000D01*
X7524000Y-7130000D02*
X7524000Y-7270000D01*
X7454000Y-7200000D02*
X7594000Y-7200000D01*
X7962000Y-7130000D02*
X8102000Y-7270000D01*
X8102000Y-7130000D02*
X7962000Y-7270000D01*
X8032000Y-7130000D02*
X8032000Y-7270000D01*
X7962000Y-7200000D02*
X8102000Y-7200000D01*
X8470000Y-7130000D02*
X8610000Y-7270000D01*
X8610000Y-7130000D02*
X8470000Y-7270000D01*
X8540000Y-7130000D02*
X8540000Y-7270000D01*
X8470000Y-7200000D02*
X8610000Y-7200000D01*
X8978000Y-7130000D02*
X9118000Y-7270000D01*
X9118000Y-7130000D02*
X8978000Y-7270000D01*
X9048000Y-7130000D02*
X9048000Y-7270000D01*
X8978000Y-7200000D02*
X9118000Y-7200000D01*
X9486000Y-7130000D02*
X9626000Y-7270000D01*
X9626000Y-7130000D02*
X9486000Y-7270000D01*
X9556000Y-7130000D02*
X9556000Y-7270000D01*
X9486000Y-7200000D02*
X9626000Y-7200000D01*
D15*
X240000Y-240000D02*
X560000Y-560000D01*
X560000Y-240000D02*
X240000Y-560000D01*
X513138Y-513138D02*
X513138Y-286862D01*
X286862Y-286862D01*
X286862Y-513138D01*
X513138Y-513138D01*
X240000Y-6240000D02*
X560000Y-6560000D01*
X560000Y-6240000D02*
X240000Y-6560000D01*
X513138Y-6513138D02*
X513138Y-6286862D01*
X286862Y-6286862D01*
X286862Y-6513138D01*
X513138Y-6513138D01*
X10440000Y-240000D02*
X10760000Y-560000D01*
X10760000Y-240000D02*
X10440000Y-560000D01*
X10713138Y-513138D02*
X10713138Y-286862D01*
X10486862Y-286862D01*
X10486862Y-513138D01*
X10713138Y-513138D01*
X10440000Y-6240000D02*
X10760000Y-6560000D01*
X10760000Y-6240000D02*
X10440000Y-6560000D01*
X10713138Y-6513138D02*
X10713138Y-6286862D01*
X10486862Y-6286862D01*
X10486862Y-6513138D01*
X10713138Y-6513138D01*
D11*
X255777Y-8316484D02*
X255777Y-8116484D01*
X255777Y-8116484D02*
X303396Y-8116484D01*
X303396Y-8116484D02*
X331967Y-8126008D01*
X331967Y-8126008D02*
X351015Y-8145055D01*
X351015Y-8145055D02*
X360539Y-8164103D01*
X360539Y-8164103D02*
X370062Y-8202198D01*
X370062Y-8202198D02*
X370062Y-8230769D01*
X370062Y-8230769D02*
X360539Y-8268865D01*
X360539Y-8268865D02*
X351015Y-8287912D01*
X351015Y-8287912D02*
X331967Y-8306960D01*
X331967Y-8306960D02*
X303396Y-8316484D01*
X303396Y-8316484D02*
X255777Y-8316484D01*
X455777Y-8316484D02*
X455777Y-8183150D01*
X455777Y-8221246D02*
X465301Y-8202198D01*
X465301Y-8202198D02*
X474824Y-8192674D01*
X474824Y-8192674D02*
X493872Y-8183150D01*
X493872Y-8183150D02*
X512920Y-8183150D01*
X579586Y-8316484D02*
X579586Y-8183150D01*
X579586Y-8116484D02*
X570063Y-8126008D01*
X570063Y-8126008D02*
X579586Y-8135531D01*
X579586Y-8135531D02*
X589110Y-8126008D01*
X589110Y-8126008D02*
X579586Y-8116484D01*
X579586Y-8116484D02*
X579586Y-8135531D01*
X703396Y-8316484D02*
X684348Y-8306960D01*
X684348Y-8306960D02*
X674824Y-8287912D01*
X674824Y-8287912D02*
X674824Y-8116484D01*
X808158Y-8316484D02*
X789110Y-8306960D01*
X789110Y-8306960D02*
X779586Y-8287912D01*
X779586Y-8287912D02*
X779586Y-8116484D01*
X1036729Y-8316484D02*
X1036729Y-8116484D01*
X1036729Y-8116484D02*
X1103396Y-8259341D01*
X1103396Y-8259341D02*
X1170063Y-8116484D01*
X1170063Y-8116484D02*
X1170063Y-8316484D01*
X1351015Y-8316484D02*
X1351015Y-8211722D01*
X1351015Y-8211722D02*
X1341491Y-8192674D01*
X1341491Y-8192674D02*
X1322444Y-8183150D01*
X1322444Y-8183150D02*
X1284348Y-8183150D01*
X1284348Y-8183150D02*
X1265301Y-8192674D01*
X1351015Y-8306960D02*
X1331967Y-8316484D01*
X1331967Y-8316484D02*
X1284348Y-8316484D01*
X1284348Y-8316484D02*
X1265301Y-8306960D01*
X1265301Y-8306960D02*
X1255777Y-8287912D01*
X1255777Y-8287912D02*
X1255777Y-8268865D01*
X1255777Y-8268865D02*
X1265301Y-8249817D01*
X1265301Y-8249817D02*
X1284348Y-8240293D01*
X1284348Y-8240293D02*
X1331967Y-8240293D01*
X1331967Y-8240293D02*
X1351015Y-8230769D01*
X1446253Y-8183150D02*
X1446253Y-8383150D01*
X1446253Y-8192674D02*
X1465301Y-8183150D01*
X1465301Y-8183150D02*
X1503396Y-8183150D01*
X1503396Y-8183150D02*
X1522443Y-8192674D01*
X1522443Y-8192674D02*
X1531967Y-8202198D01*
X1531967Y-8202198D02*
X1541491Y-8221246D01*
X1541491Y-8221246D02*
X1541491Y-8278388D01*
X1541491Y-8278388D02*
X1531967Y-8297436D01*
X1531967Y-8297436D02*
X1522443Y-8306960D01*
X1522443Y-8306960D02*
X1503396Y-8316484D01*
X1503396Y-8316484D02*
X1465301Y-8316484D01*
X1465301Y-8316484D02*
X1446253Y-8306960D01*
X1627205Y-8297436D02*
X1636729Y-8306960D01*
X1636729Y-8306960D02*
X1627205Y-8316484D01*
X1627205Y-8316484D02*
X1617682Y-8306960D01*
X1617682Y-8306960D02*
X1627205Y-8297436D01*
X1627205Y-8297436D02*
X1627205Y-8316484D01*
X1627205Y-8192674D02*
X1636729Y-8202198D01*
X1636729Y-8202198D02*
X1627205Y-8211722D01*
X1627205Y-8211722D02*
X1617682Y-8202198D01*
X1617682Y-8202198D02*
X1627205Y-8192674D01*
X1627205Y-8192674D02*
X1627205Y-8211722D01*
D10*
X-45000Y-8625000D02*
X-5000Y-8665000D01*
X-5000Y-8625000D02*
X-45000Y-8665000D01*
D11*
X293872Y-8536484D02*
X312920Y-8536484D01*
X312920Y-8536484D02*
X331967Y-8546008D01*
X331967Y-8546008D02*
X341491Y-8555531D01*
X341491Y-8555531D02*
X351015Y-8574579D01*
X351015Y-8574579D02*
X360539Y-8612674D01*
X360539Y-8612674D02*
X360539Y-8660293D01*
X360539Y-8660293D02*
X351015Y-8698389D01*
X351015Y-8698389D02*
X341491Y-8717436D01*
X341491Y-8717436D02*
X331967Y-8726960D01*
X331967Y-8726960D02*
X312920Y-8736484D01*
X312920Y-8736484D02*
X293872Y-8736484D01*
X293872Y-8736484D02*
X274824Y-8726960D01*
X274824Y-8726960D02*
X265301Y-8717436D01*
X265301Y-8717436D02*
X255777Y-8698389D01*
X255777Y-8698389D02*
X246253Y-8660293D01*
X246253Y-8660293D02*
X246253Y-8612674D01*
X246253Y-8612674D02*
X255777Y-8574579D01*
X255777Y-8574579D02*
X265301Y-8555531D01*
X265301Y-8555531D02*
X274824Y-8546008D01*
X274824Y-8546008D02*
X293872Y-8536484D01*
X446253Y-8717436D02*
X455777Y-8726960D01*
X455777Y-8726960D02*
X446253Y-8736484D01*
X446253Y-8736484D02*
X436729Y-8726960D01*
X436729Y-8726960D02*
X446253Y-8717436D01*
X446253Y-8717436D02*
X446253Y-8736484D01*
X627205Y-8603150D02*
X627205Y-8736484D01*
X579586Y-8526960D02*
X531967Y-8669817D01*
X531967Y-8669817D02*
X655777Y-8669817D01*
X770062Y-8536484D02*
X789110Y-8536484D01*
X789110Y-8536484D02*
X808158Y-8546008D01*
X808158Y-8546008D02*
X817682Y-8555531D01*
X817682Y-8555531D02*
X827205Y-8574579D01*
X827205Y-8574579D02*
X836729Y-8612674D01*
X836729Y-8612674D02*
X836729Y-8660293D01*
X836729Y-8660293D02*
X827205Y-8698389D01*
X827205Y-8698389D02*
X817682Y-8717436D01*
X817682Y-8717436D02*
X808158Y-8726960D01*
X808158Y-8726960D02*
X789110Y-8736484D01*
X789110Y-8736484D02*
X770062Y-8736484D01*
X770062Y-8736484D02*
X751015Y-8726960D01*
X751015Y-8726960D02*
X741491Y-8717436D01*
X741491Y-8717436D02*
X731967Y-8698389D01*
X731967Y-8698389D02*
X722443Y-8660293D01*
X722443Y-8660293D02*
X722443Y-8612674D01*
X722443Y-8612674D02*
X731967Y-8574579D01*
X731967Y-8574579D02*
X741491Y-8555531D01*
X741491Y-8555531D02*
X751015Y-8546008D01*
X751015Y-8546008D02*
X770062Y-8536484D01*
X960539Y-8536484D02*
X979586Y-8536484D01*
X979586Y-8536484D02*
X998634Y-8546008D01*
X998634Y-8546008D02*
X1008158Y-8555531D01*
X1008158Y-8555531D02*
X1017682Y-8574579D01*
X1017682Y-8574579D02*
X1027205Y-8612674D01*
X1027205Y-8612674D02*
X1027205Y-8660293D01*
X1027205Y-8660293D02*
X1017682Y-8698389D01*
X1017682Y-8698389D02*
X1008158Y-8717436D01*
X1008158Y-8717436D02*
X998634Y-8726960D01*
X998634Y-8726960D02*
X979586Y-8736484D01*
X979586Y-8736484D02*
X960539Y-8736484D01*
X960539Y-8736484D02*
X941491Y-8726960D01*
X941491Y-8726960D02*
X931967Y-8717436D01*
X931967Y-8717436D02*
X922443Y-8698389D01*
X922443Y-8698389D02*
X912920Y-8660293D01*
X912920Y-8660293D02*
X912920Y-8612674D01*
X912920Y-8612674D02*
X922443Y-8574579D01*
X922443Y-8574579D02*
X931967Y-8555531D01*
X931967Y-8555531D02*
X941491Y-8546008D01*
X941491Y-8546008D02*
X960539Y-8536484D01*
X1112920Y-8736484D02*
X1112920Y-8603150D01*
X1112920Y-8622198D02*
X1122444Y-8612674D01*
X1122444Y-8612674D02*
X1141491Y-8603150D01*
X1141491Y-8603150D02*
X1170063Y-8603150D01*
X1170063Y-8603150D02*
X1189110Y-8612674D01*
X1189110Y-8612674D02*
X1198634Y-8631722D01*
X1198634Y-8631722D02*
X1198634Y-8736484D01*
X1198634Y-8631722D02*
X1208158Y-8612674D01*
X1208158Y-8612674D02*
X1227205Y-8603150D01*
X1227205Y-8603150D02*
X1255777Y-8603150D01*
X1255777Y-8603150D02*
X1274825Y-8612674D01*
X1274825Y-8612674D02*
X1284348Y-8631722D01*
X1284348Y-8631722D02*
X1284348Y-8736484D01*
X1379586Y-8736484D02*
X1379586Y-8603150D01*
X1379586Y-8622198D02*
X1389110Y-8612674D01*
X1389110Y-8612674D02*
X1408158Y-8603150D01*
X1408158Y-8603150D02*
X1436729Y-8603150D01*
X1436729Y-8603150D02*
X1455777Y-8612674D01*
X1455777Y-8612674D02*
X1465301Y-8631722D01*
X1465301Y-8631722D02*
X1465301Y-8736484D01*
X1465301Y-8631722D02*
X1474824Y-8612674D01*
X1474824Y-8612674D02*
X1493872Y-8603150D01*
X1493872Y-8603150D02*
X1522443Y-8603150D01*
X1522443Y-8603150D02*
X1541491Y-8612674D01*
X1541491Y-8612674D02*
X1551015Y-8631722D01*
X1551015Y-8631722D02*
X1551015Y-8736484D01*
X1941491Y-8526960D02*
X1770063Y-8784103D01*
X2198634Y-8536484D02*
X2217682Y-8536484D01*
X2217682Y-8536484D02*
X2236729Y-8546008D01*
X2236729Y-8546008D02*
X2246253Y-8555531D01*
X2246253Y-8555531D02*
X2255777Y-8574579D01*
X2255777Y-8574579D02*
X2265301Y-8612674D01*
X2265301Y-8612674D02*
X2265301Y-8660293D01*
X2265301Y-8660293D02*
X2255777Y-8698389D01*
X2255777Y-8698389D02*
X2246253Y-8717436D01*
X2246253Y-8717436D02*
X2236729Y-8726960D01*
X2236729Y-8726960D02*
X2217682Y-8736484D01*
X2217682Y-8736484D02*
X2198634Y-8736484D01*
X2198634Y-8736484D02*
X2179587Y-8726960D01*
X2179587Y-8726960D02*
X2170063Y-8717436D01*
X2170063Y-8717436D02*
X2160539Y-8698389D01*
X2160539Y-8698389D02*
X2151015Y-8660293D01*
X2151015Y-8660293D02*
X2151015Y-8612674D01*
X2151015Y-8612674D02*
X2160539Y-8574579D01*
X2160539Y-8574579D02*
X2170063Y-8555531D01*
X2170063Y-8555531D02*
X2179587Y-8546008D01*
X2179587Y-8546008D02*
X2198634Y-8536484D01*
X2351015Y-8717436D02*
X2360539Y-8726960D01*
X2360539Y-8726960D02*
X2351015Y-8736484D01*
X2351015Y-8736484D02*
X2341491Y-8726960D01*
X2341491Y-8726960D02*
X2351015Y-8717436D01*
X2351015Y-8717436D02*
X2351015Y-8736484D01*
X2484348Y-8536484D02*
X2503396Y-8536484D01*
X2503396Y-8536484D02*
X2522444Y-8546008D01*
X2522444Y-8546008D02*
X2531968Y-8555531D01*
X2531968Y-8555531D02*
X2541491Y-8574579D01*
X2541491Y-8574579D02*
X2551015Y-8612674D01*
X2551015Y-8612674D02*
X2551015Y-8660293D01*
X2551015Y-8660293D02*
X2541491Y-8698389D01*
X2541491Y-8698389D02*
X2531968Y-8717436D01*
X2531968Y-8717436D02*
X2522444Y-8726960D01*
X2522444Y-8726960D02*
X2503396Y-8736484D01*
X2503396Y-8736484D02*
X2484348Y-8736484D01*
X2484348Y-8736484D02*
X2465301Y-8726960D01*
X2465301Y-8726960D02*
X2455777Y-8717436D01*
X2455777Y-8717436D02*
X2446253Y-8698389D01*
X2446253Y-8698389D02*
X2436729Y-8660293D01*
X2436729Y-8660293D02*
X2436729Y-8612674D01*
X2436729Y-8612674D02*
X2446253Y-8574579D01*
X2446253Y-8574579D02*
X2455777Y-8555531D01*
X2455777Y-8555531D02*
X2465301Y-8546008D01*
X2465301Y-8546008D02*
X2484348Y-8536484D01*
X2741491Y-8736484D02*
X2627206Y-8736484D01*
X2684348Y-8736484D02*
X2684348Y-8536484D01*
X2684348Y-8536484D02*
X2665301Y-8565055D01*
X2665301Y-8565055D02*
X2646253Y-8584103D01*
X2646253Y-8584103D02*
X2627206Y-8593627D01*
X2922444Y-8536484D02*
X2827206Y-8536484D01*
X2827206Y-8536484D02*
X2817682Y-8631722D01*
X2817682Y-8631722D02*
X2827206Y-8622198D01*
X2827206Y-8622198D02*
X2846253Y-8612674D01*
X2846253Y-8612674D02*
X2893872Y-8612674D01*
X2893872Y-8612674D02*
X2912920Y-8622198D01*
X2912920Y-8622198D02*
X2922444Y-8631722D01*
X2922444Y-8631722D02*
X2931967Y-8650770D01*
X2931967Y-8650770D02*
X2931967Y-8698389D01*
X2931967Y-8698389D02*
X2922444Y-8717436D01*
X2922444Y-8717436D02*
X2912920Y-8726960D01*
X2912920Y-8726960D02*
X2893872Y-8736484D01*
X2893872Y-8736484D02*
X2846253Y-8736484D01*
X2846253Y-8736484D02*
X2827206Y-8726960D01*
X2827206Y-8726960D02*
X2817682Y-8717436D01*
X2998634Y-8536484D02*
X3131967Y-8536484D01*
X3131967Y-8536484D02*
X3046253Y-8736484D01*
X3198634Y-8536484D02*
X3198634Y-8574579D01*
X3274825Y-8536484D02*
X3274825Y-8574579D01*
X3570063Y-8812674D02*
X3560539Y-8803150D01*
X3560539Y-8803150D02*
X3541491Y-8774579D01*
X3541491Y-8774579D02*
X3531968Y-8755531D01*
X3531968Y-8755531D02*
X3522444Y-8726960D01*
X3522444Y-8726960D02*
X3512920Y-8679341D01*
X3512920Y-8679341D02*
X3512920Y-8641246D01*
X3512920Y-8641246D02*
X3522444Y-8593627D01*
X3522444Y-8593627D02*
X3531968Y-8565055D01*
X3531968Y-8565055D02*
X3541491Y-8546008D01*
X3541491Y-8546008D02*
X3560539Y-8517436D01*
X3560539Y-8517436D02*
X3570063Y-8507912D01*
X3751015Y-8736484D02*
X3636729Y-8736484D01*
X3693872Y-8736484D02*
X3693872Y-8536484D01*
X3693872Y-8536484D02*
X3674825Y-8565055D01*
X3674825Y-8565055D02*
X3655777Y-8584103D01*
X3655777Y-8584103D02*
X3636729Y-8593627D01*
X3874825Y-8536484D02*
X3893872Y-8536484D01*
X3893872Y-8536484D02*
X3912920Y-8546008D01*
X3912920Y-8546008D02*
X3922444Y-8555531D01*
X3922444Y-8555531D02*
X3931968Y-8574579D01*
X3931968Y-8574579D02*
X3941491Y-8612674D01*
X3941491Y-8612674D02*
X3941491Y-8660293D01*
X3941491Y-8660293D02*
X3931968Y-8698389D01*
X3931968Y-8698389D02*
X3922444Y-8717436D01*
X3922444Y-8717436D02*
X3912920Y-8726960D01*
X3912920Y-8726960D02*
X3893872Y-8736484D01*
X3893872Y-8736484D02*
X3874825Y-8736484D01*
X3874825Y-8736484D02*
X3855777Y-8726960D01*
X3855777Y-8726960D02*
X3846253Y-8717436D01*
X3846253Y-8717436D02*
X3836729Y-8698389D01*
X3836729Y-8698389D02*
X3827206Y-8660293D01*
X3827206Y-8660293D02*
X3827206Y-8612674D01*
X3827206Y-8612674D02*
X3836729Y-8574579D01*
X3836729Y-8574579D02*
X3846253Y-8555531D01*
X3846253Y-8555531D02*
X3855777Y-8546008D01*
X3855777Y-8546008D02*
X3874825Y-8536484D01*
X4036729Y-8736484D02*
X4074825Y-8736484D01*
X4074825Y-8736484D02*
X4093872Y-8726960D01*
X4093872Y-8726960D02*
X4103396Y-8717436D01*
X4103396Y-8717436D02*
X4122444Y-8688865D01*
X4122444Y-8688865D02*
X4131968Y-8650770D01*
X4131968Y-8650770D02*
X4131968Y-8574579D01*
X4131968Y-8574579D02*
X4122444Y-8555531D01*
X4122444Y-8555531D02*
X4112920Y-8546008D01*
X4112920Y-8546008D02*
X4093872Y-8536484D01*
X4093872Y-8536484D02*
X4055777Y-8536484D01*
X4055777Y-8536484D02*
X4036729Y-8546008D01*
X4036729Y-8546008D02*
X4027206Y-8555531D01*
X4027206Y-8555531D02*
X4017682Y-8574579D01*
X4017682Y-8574579D02*
X4017682Y-8622198D01*
X4017682Y-8622198D02*
X4027206Y-8641246D01*
X4027206Y-8641246D02*
X4036729Y-8650770D01*
X4036729Y-8650770D02*
X4055777Y-8660293D01*
X4055777Y-8660293D02*
X4093872Y-8660293D01*
X4093872Y-8660293D02*
X4112920Y-8650770D01*
X4112920Y-8650770D02*
X4122444Y-8641246D01*
X4122444Y-8641246D02*
X4131968Y-8622198D01*
X4370063Y-8736484D02*
X4370063Y-8536484D01*
X4455777Y-8736484D02*
X4455777Y-8631722D01*
X4455777Y-8631722D02*
X4446253Y-8612674D01*
X4446253Y-8612674D02*
X4427206Y-8603150D01*
X4427206Y-8603150D02*
X4398634Y-8603150D01*
X4398634Y-8603150D02*
X4379587Y-8612674D01*
X4379587Y-8612674D02*
X4370063Y-8622198D01*
X4579587Y-8736484D02*
X4560539Y-8726960D01*
X4560539Y-8726960D02*
X4551015Y-8717436D01*
X4551015Y-8717436D02*
X4541492Y-8698389D01*
X4541492Y-8698389D02*
X4541492Y-8641246D01*
X4541492Y-8641246D02*
X4551015Y-8622198D01*
X4551015Y-8622198D02*
X4560539Y-8612674D01*
X4560539Y-8612674D02*
X4579587Y-8603150D01*
X4579587Y-8603150D02*
X4608158Y-8603150D01*
X4608158Y-8603150D02*
X4627206Y-8612674D01*
X4627206Y-8612674D02*
X4636730Y-8622198D01*
X4636730Y-8622198D02*
X4646253Y-8641246D01*
X4646253Y-8641246D02*
X4646253Y-8698389D01*
X4646253Y-8698389D02*
X4636730Y-8717436D01*
X4636730Y-8717436D02*
X4627206Y-8726960D01*
X4627206Y-8726960D02*
X4608158Y-8736484D01*
X4608158Y-8736484D02*
X4579587Y-8736484D01*
X4760539Y-8736484D02*
X4741492Y-8726960D01*
X4741492Y-8726960D02*
X4731968Y-8707912D01*
X4731968Y-8707912D02*
X4731968Y-8536484D01*
X4912920Y-8726960D02*
X4893873Y-8736484D01*
X4893873Y-8736484D02*
X4855777Y-8736484D01*
X4855777Y-8736484D02*
X4836730Y-8726960D01*
X4836730Y-8726960D02*
X4827206Y-8707912D01*
X4827206Y-8707912D02*
X4827206Y-8631722D01*
X4827206Y-8631722D02*
X4836730Y-8612674D01*
X4836730Y-8612674D02*
X4855777Y-8603150D01*
X4855777Y-8603150D02*
X4893873Y-8603150D01*
X4893873Y-8603150D02*
X4912920Y-8612674D01*
X4912920Y-8612674D02*
X4922444Y-8631722D01*
X4922444Y-8631722D02*
X4922444Y-8650770D01*
X4922444Y-8650770D02*
X4827206Y-8669817D01*
X4998634Y-8726960D02*
X5017682Y-8736484D01*
X5017682Y-8736484D02*
X5055777Y-8736484D01*
X5055777Y-8736484D02*
X5074825Y-8726960D01*
X5074825Y-8726960D02*
X5084349Y-8707912D01*
X5084349Y-8707912D02*
X5084349Y-8698389D01*
X5084349Y-8698389D02*
X5074825Y-8679341D01*
X5074825Y-8679341D02*
X5055777Y-8669817D01*
X5055777Y-8669817D02*
X5027206Y-8669817D01*
X5027206Y-8669817D02*
X5008158Y-8660293D01*
X5008158Y-8660293D02*
X4998634Y-8641246D01*
X4998634Y-8641246D02*
X4998634Y-8631722D01*
X4998634Y-8631722D02*
X5008158Y-8612674D01*
X5008158Y-8612674D02*
X5027206Y-8603150D01*
X5027206Y-8603150D02*
X5055777Y-8603150D01*
X5055777Y-8603150D02*
X5074825Y-8612674D01*
X5151015Y-8812674D02*
X5160539Y-8803150D01*
X5160539Y-8803150D02*
X5179587Y-8774579D01*
X5179587Y-8774579D02*
X5189111Y-8755531D01*
X5189111Y-8755531D02*
X5198634Y-8726960D01*
X5198634Y-8726960D02*
X5208158Y-8679341D01*
X5208158Y-8679341D02*
X5208158Y-8641246D01*
X5208158Y-8641246D02*
X5198634Y-8593627D01*
X5198634Y-8593627D02*
X5189111Y-8565055D01*
X5189111Y-8565055D02*
X5179587Y-8546008D01*
X5179587Y-8546008D02*
X5160539Y-8517436D01*
X5160539Y-8517436D02*
X5151015Y-8507912D01*
D10*
X-5000Y-8909000D02*
G75*
G02*
X-85000Y-8909000I-40000J0D01*
G01*
X-85000Y-8909000D02*
G75*
G02*
X-5000Y-8909000I40000J0D01*
G01*
D11*
X293872Y-8800484D02*
X312920Y-8800484D01*
X312920Y-8800484D02*
X331967Y-8810008D01*
X331967Y-8810008D02*
X341491Y-8819531D01*
X341491Y-8819531D02*
X351015Y-8838579D01*
X351015Y-8838579D02*
X360539Y-8876674D01*
X360539Y-8876674D02*
X360539Y-8924293D01*
X360539Y-8924293D02*
X351015Y-8962389D01*
X351015Y-8962389D02*
X341491Y-8981436D01*
X341491Y-8981436D02*
X331967Y-8990960D01*
X331967Y-8990960D02*
X312920Y-9000484D01*
X312920Y-9000484D02*
X293872Y-9000484D01*
X293872Y-9000484D02*
X274824Y-8990960D01*
X274824Y-8990960D02*
X265301Y-8981436D01*
X265301Y-8981436D02*
X255777Y-8962389D01*
X255777Y-8962389D02*
X246253Y-8924293D01*
X246253Y-8924293D02*
X246253Y-8876674D01*
X246253Y-8876674D02*
X255777Y-8838579D01*
X255777Y-8838579D02*
X265301Y-8819531D01*
X265301Y-8819531D02*
X274824Y-8810008D01*
X274824Y-8810008D02*
X293872Y-8800484D01*
X446253Y-8981436D02*
X455777Y-8990960D01*
X455777Y-8990960D02*
X446253Y-9000484D01*
X446253Y-9000484D02*
X436729Y-8990960D01*
X436729Y-8990960D02*
X446253Y-8981436D01*
X446253Y-8981436D02*
X446253Y-9000484D01*
X570063Y-8886198D02*
X551015Y-8876674D01*
X551015Y-8876674D02*
X541491Y-8867150D01*
X541491Y-8867150D02*
X531967Y-8848103D01*
X531967Y-8848103D02*
X531967Y-8838579D01*
X531967Y-8838579D02*
X541491Y-8819531D01*
X541491Y-8819531D02*
X551015Y-8810008D01*
X551015Y-8810008D02*
X570063Y-8800484D01*
X570063Y-8800484D02*
X608158Y-8800484D01*
X608158Y-8800484D02*
X627205Y-8810008D01*
X627205Y-8810008D02*
X636729Y-8819531D01*
X636729Y-8819531D02*
X646253Y-8838579D01*
X646253Y-8838579D02*
X646253Y-8848103D01*
X646253Y-8848103D02*
X636729Y-8867150D01*
X636729Y-8867150D02*
X627205Y-8876674D01*
X627205Y-8876674D02*
X608158Y-8886198D01*
X608158Y-8886198D02*
X570063Y-8886198D01*
X570063Y-8886198D02*
X551015Y-8895722D01*
X551015Y-8895722D02*
X541491Y-8905246D01*
X541491Y-8905246D02*
X531967Y-8924293D01*
X531967Y-8924293D02*
X531967Y-8962389D01*
X531967Y-8962389D02*
X541491Y-8981436D01*
X541491Y-8981436D02*
X551015Y-8990960D01*
X551015Y-8990960D02*
X570063Y-9000484D01*
X570063Y-9000484D02*
X608158Y-9000484D01*
X608158Y-9000484D02*
X627205Y-8990960D01*
X627205Y-8990960D02*
X636729Y-8981436D01*
X636729Y-8981436D02*
X646253Y-8962389D01*
X646253Y-8962389D02*
X646253Y-8924293D01*
X646253Y-8924293D02*
X636729Y-8905246D01*
X636729Y-8905246D02*
X627205Y-8895722D01*
X627205Y-8895722D02*
X608158Y-8886198D01*
X770062Y-8800484D02*
X789110Y-8800484D01*
X789110Y-8800484D02*
X808158Y-8810008D01*
X808158Y-8810008D02*
X817682Y-8819531D01*
X817682Y-8819531D02*
X827205Y-8838579D01*
X827205Y-8838579D02*
X836729Y-8876674D01*
X836729Y-8876674D02*
X836729Y-8924293D01*
X836729Y-8924293D02*
X827205Y-8962389D01*
X827205Y-8962389D02*
X817682Y-8981436D01*
X817682Y-8981436D02*
X808158Y-8990960D01*
X808158Y-8990960D02*
X789110Y-9000484D01*
X789110Y-9000484D02*
X770062Y-9000484D01*
X770062Y-9000484D02*
X751015Y-8990960D01*
X751015Y-8990960D02*
X741491Y-8981436D01*
X741491Y-8981436D02*
X731967Y-8962389D01*
X731967Y-8962389D02*
X722443Y-8924293D01*
X722443Y-8924293D02*
X722443Y-8876674D01*
X722443Y-8876674D02*
X731967Y-8838579D01*
X731967Y-8838579D02*
X741491Y-8819531D01*
X741491Y-8819531D02*
X751015Y-8810008D01*
X751015Y-8810008D02*
X770062Y-8800484D01*
X960539Y-8800484D02*
X979586Y-8800484D01*
X979586Y-8800484D02*
X998634Y-8810008D01*
X998634Y-8810008D02*
X1008158Y-8819531D01*
X1008158Y-8819531D02*
X1017682Y-8838579D01*
X1017682Y-8838579D02*
X1027205Y-8876674D01*
X1027205Y-8876674D02*
X1027205Y-8924293D01*
X1027205Y-8924293D02*
X1017682Y-8962389D01*
X1017682Y-8962389D02*
X1008158Y-8981436D01*
X1008158Y-8981436D02*
X998634Y-8990960D01*
X998634Y-8990960D02*
X979586Y-9000484D01*
X979586Y-9000484D02*
X960539Y-9000484D01*
X960539Y-9000484D02*
X941491Y-8990960D01*
X941491Y-8990960D02*
X931967Y-8981436D01*
X931967Y-8981436D02*
X922443Y-8962389D01*
X922443Y-8962389D02*
X912920Y-8924293D01*
X912920Y-8924293D02*
X912920Y-8876674D01*
X912920Y-8876674D02*
X922443Y-8838579D01*
X922443Y-8838579D02*
X931967Y-8819531D01*
X931967Y-8819531D02*
X941491Y-8810008D01*
X941491Y-8810008D02*
X960539Y-8800484D01*
X1112920Y-9000484D02*
X1112920Y-8867150D01*
X1112920Y-8886198D02*
X1122444Y-8876674D01*
X1122444Y-8876674D02*
X1141491Y-8867150D01*
X1141491Y-8867150D02*
X1170063Y-8867150D01*
X1170063Y-8867150D02*
X1189110Y-8876674D01*
X1189110Y-8876674D02*
X1198634Y-8895722D01*
X1198634Y-8895722D02*
X1198634Y-9000484D01*
X1198634Y-8895722D02*
X1208158Y-8876674D01*
X1208158Y-8876674D02*
X1227205Y-8867150D01*
X1227205Y-8867150D02*
X1255777Y-8867150D01*
X1255777Y-8867150D02*
X1274825Y-8876674D01*
X1274825Y-8876674D02*
X1284348Y-8895722D01*
X1284348Y-8895722D02*
X1284348Y-9000484D01*
X1379586Y-9000484D02*
X1379586Y-8867150D01*
X1379586Y-8886198D02*
X1389110Y-8876674D01*
X1389110Y-8876674D02*
X1408158Y-8867150D01*
X1408158Y-8867150D02*
X1436729Y-8867150D01*
X1436729Y-8867150D02*
X1455777Y-8876674D01*
X1455777Y-8876674D02*
X1465301Y-8895722D01*
X1465301Y-8895722D02*
X1465301Y-9000484D01*
X1465301Y-8895722D02*
X1474824Y-8876674D01*
X1474824Y-8876674D02*
X1493872Y-8867150D01*
X1493872Y-8867150D02*
X1522443Y-8867150D01*
X1522443Y-8867150D02*
X1541491Y-8876674D01*
X1541491Y-8876674D02*
X1551015Y-8895722D01*
X1551015Y-8895722D02*
X1551015Y-9000484D01*
X1941491Y-8790960D02*
X1770063Y-9048103D01*
X2198634Y-8800484D02*
X2217682Y-8800484D01*
X2217682Y-8800484D02*
X2236729Y-8810008D01*
X2236729Y-8810008D02*
X2246253Y-8819531D01*
X2246253Y-8819531D02*
X2255777Y-8838579D01*
X2255777Y-8838579D02*
X2265301Y-8876674D01*
X2265301Y-8876674D02*
X2265301Y-8924293D01*
X2265301Y-8924293D02*
X2255777Y-8962389D01*
X2255777Y-8962389D02*
X2246253Y-8981436D01*
X2246253Y-8981436D02*
X2236729Y-8990960D01*
X2236729Y-8990960D02*
X2217682Y-9000484D01*
X2217682Y-9000484D02*
X2198634Y-9000484D01*
X2198634Y-9000484D02*
X2179587Y-8990960D01*
X2179587Y-8990960D02*
X2170063Y-8981436D01*
X2170063Y-8981436D02*
X2160539Y-8962389D01*
X2160539Y-8962389D02*
X2151015Y-8924293D01*
X2151015Y-8924293D02*
X2151015Y-8876674D01*
X2151015Y-8876674D02*
X2160539Y-8838579D01*
X2160539Y-8838579D02*
X2170063Y-8819531D01*
X2170063Y-8819531D02*
X2179587Y-8810008D01*
X2179587Y-8810008D02*
X2198634Y-8800484D01*
X2351015Y-8981436D02*
X2360539Y-8990960D01*
X2360539Y-8990960D02*
X2351015Y-9000484D01*
X2351015Y-9000484D02*
X2341491Y-8990960D01*
X2341491Y-8990960D02*
X2351015Y-8981436D01*
X2351015Y-8981436D02*
X2351015Y-9000484D01*
X2484348Y-8800484D02*
X2503396Y-8800484D01*
X2503396Y-8800484D02*
X2522444Y-8810008D01*
X2522444Y-8810008D02*
X2531968Y-8819531D01*
X2531968Y-8819531D02*
X2541491Y-8838579D01*
X2541491Y-8838579D02*
X2551015Y-8876674D01*
X2551015Y-8876674D02*
X2551015Y-8924293D01*
X2551015Y-8924293D02*
X2541491Y-8962389D01*
X2541491Y-8962389D02*
X2531968Y-8981436D01*
X2531968Y-8981436D02*
X2522444Y-8990960D01*
X2522444Y-8990960D02*
X2503396Y-9000484D01*
X2503396Y-9000484D02*
X2484348Y-9000484D01*
X2484348Y-9000484D02*
X2465301Y-8990960D01*
X2465301Y-8990960D02*
X2455777Y-8981436D01*
X2455777Y-8981436D02*
X2446253Y-8962389D01*
X2446253Y-8962389D02*
X2436729Y-8924293D01*
X2436729Y-8924293D02*
X2436729Y-8876674D01*
X2436729Y-8876674D02*
X2446253Y-8838579D01*
X2446253Y-8838579D02*
X2455777Y-8819531D01*
X2455777Y-8819531D02*
X2465301Y-8810008D01*
X2465301Y-8810008D02*
X2484348Y-8800484D01*
X2617682Y-8800484D02*
X2741491Y-8800484D01*
X2741491Y-8800484D02*
X2674825Y-8876674D01*
X2674825Y-8876674D02*
X2703396Y-8876674D01*
X2703396Y-8876674D02*
X2722444Y-8886198D01*
X2722444Y-8886198D02*
X2731968Y-8895722D01*
X2731968Y-8895722D02*
X2741491Y-8914770D01*
X2741491Y-8914770D02*
X2741491Y-8962389D01*
X2741491Y-8962389D02*
X2731968Y-8981436D01*
X2731968Y-8981436D02*
X2722444Y-8990960D01*
X2722444Y-8990960D02*
X2703396Y-9000484D01*
X2703396Y-9000484D02*
X2646253Y-9000484D01*
X2646253Y-9000484D02*
X2627206Y-8990960D01*
X2627206Y-8990960D02*
X2617682Y-8981436D01*
X2931967Y-9000484D02*
X2817682Y-9000484D01*
X2874825Y-9000484D02*
X2874825Y-8800484D01*
X2874825Y-8800484D02*
X2855777Y-8829055D01*
X2855777Y-8829055D02*
X2836729Y-8848103D01*
X2836729Y-8848103D02*
X2817682Y-8857627D01*
X3112920Y-8800484D02*
X3017682Y-8800484D01*
X3017682Y-8800484D02*
X3008158Y-8895722D01*
X3008158Y-8895722D02*
X3017682Y-8886198D01*
X3017682Y-8886198D02*
X3036729Y-8876674D01*
X3036729Y-8876674D02*
X3084348Y-8876674D01*
X3084348Y-8876674D02*
X3103396Y-8886198D01*
X3103396Y-8886198D02*
X3112920Y-8895722D01*
X3112920Y-8895722D02*
X3122444Y-8914770D01*
X3122444Y-8914770D02*
X3122444Y-8962389D01*
X3122444Y-8962389D02*
X3112920Y-8981436D01*
X3112920Y-8981436D02*
X3103396Y-8990960D01*
X3103396Y-8990960D02*
X3084348Y-9000484D01*
X3084348Y-9000484D02*
X3036729Y-9000484D01*
X3036729Y-9000484D02*
X3017682Y-8990960D01*
X3017682Y-8990960D02*
X3008158Y-8981436D01*
X3198634Y-8800484D02*
X3198634Y-8838579D01*
X3274825Y-8800484D02*
X3274825Y-8838579D01*
X3570063Y-9076674D02*
X3560539Y-9067150D01*
X3560539Y-9067150D02*
X3541491Y-9038579D01*
X3541491Y-9038579D02*
X3531968Y-9019531D01*
X3531968Y-9019531D02*
X3522444Y-8990960D01*
X3522444Y-8990960D02*
X3512920Y-8943341D01*
X3512920Y-8943341D02*
X3512920Y-8905246D01*
X3512920Y-8905246D02*
X3522444Y-8857627D01*
X3522444Y-8857627D02*
X3531968Y-8829055D01*
X3531968Y-8829055D02*
X3541491Y-8810008D01*
X3541491Y-8810008D02*
X3560539Y-8781436D01*
X3560539Y-8781436D02*
X3570063Y-8771912D01*
X3636729Y-8819531D02*
X3646253Y-8810008D01*
X3646253Y-8810008D02*
X3665301Y-8800484D01*
X3665301Y-8800484D02*
X3712920Y-8800484D01*
X3712920Y-8800484D02*
X3731968Y-8810008D01*
X3731968Y-8810008D02*
X3741491Y-8819531D01*
X3741491Y-8819531D02*
X3751015Y-8838579D01*
X3751015Y-8838579D02*
X3751015Y-8857627D01*
X3751015Y-8857627D02*
X3741491Y-8886198D01*
X3741491Y-8886198D02*
X3627206Y-9000484D01*
X3627206Y-9000484D02*
X3751015Y-9000484D01*
X3931968Y-8800484D02*
X3836729Y-8800484D01*
X3836729Y-8800484D02*
X3827206Y-8895722D01*
X3827206Y-8895722D02*
X3836729Y-8886198D01*
X3836729Y-8886198D02*
X3855777Y-8876674D01*
X3855777Y-8876674D02*
X3903396Y-8876674D01*
X3903396Y-8876674D02*
X3922444Y-8886198D01*
X3922444Y-8886198D02*
X3931968Y-8895722D01*
X3931968Y-8895722D02*
X3941491Y-8914770D01*
X3941491Y-8914770D02*
X3941491Y-8962389D01*
X3941491Y-8962389D02*
X3931968Y-8981436D01*
X3931968Y-8981436D02*
X3922444Y-8990960D01*
X3922444Y-8990960D02*
X3903396Y-9000484D01*
X3903396Y-9000484D02*
X3855777Y-9000484D01*
X3855777Y-9000484D02*
X3836729Y-8990960D01*
X3836729Y-8990960D02*
X3827206Y-8981436D01*
X4179587Y-9000484D02*
X4179587Y-8800484D01*
X4265301Y-9000484D02*
X4265301Y-8895722D01*
X4265301Y-8895722D02*
X4255777Y-8876674D01*
X4255777Y-8876674D02*
X4236730Y-8867150D01*
X4236730Y-8867150D02*
X4208158Y-8867150D01*
X4208158Y-8867150D02*
X4189110Y-8876674D01*
X4189110Y-8876674D02*
X4179587Y-8886198D01*
X4389111Y-9000484D02*
X4370063Y-8990960D01*
X4370063Y-8990960D02*
X4360539Y-8981436D01*
X4360539Y-8981436D02*
X4351015Y-8962389D01*
X4351015Y-8962389D02*
X4351015Y-8905246D01*
X4351015Y-8905246D02*
X4360539Y-8886198D01*
X4360539Y-8886198D02*
X4370063Y-8876674D01*
X4370063Y-8876674D02*
X4389111Y-8867150D01*
X4389111Y-8867150D02*
X4417682Y-8867150D01*
X4417682Y-8867150D02*
X4436730Y-8876674D01*
X4436730Y-8876674D02*
X4446253Y-8886198D01*
X4446253Y-8886198D02*
X4455777Y-8905246D01*
X4455777Y-8905246D02*
X4455777Y-8962389D01*
X4455777Y-8962389D02*
X4446253Y-8981436D01*
X4446253Y-8981436D02*
X4436730Y-8990960D01*
X4436730Y-8990960D02*
X4417682Y-9000484D01*
X4417682Y-9000484D02*
X4389111Y-9000484D01*
X4570063Y-9000484D02*
X4551015Y-8990960D01*
X4551015Y-8990960D02*
X4541492Y-8971912D01*
X4541492Y-8971912D02*
X4541492Y-8800484D01*
X4722444Y-8990960D02*
X4703396Y-9000484D01*
X4703396Y-9000484D02*
X4665301Y-9000484D01*
X4665301Y-9000484D02*
X4646253Y-8990960D01*
X4646253Y-8990960D02*
X4636730Y-8971912D01*
X4636730Y-8971912D02*
X4636730Y-8895722D01*
X4636730Y-8895722D02*
X4646253Y-8876674D01*
X4646253Y-8876674D02*
X4665301Y-8867150D01*
X4665301Y-8867150D02*
X4703396Y-8867150D01*
X4703396Y-8867150D02*
X4722444Y-8876674D01*
X4722444Y-8876674D02*
X4731968Y-8895722D01*
X4731968Y-8895722D02*
X4731968Y-8914770D01*
X4731968Y-8914770D02*
X4636730Y-8933817D01*
X4808158Y-8990960D02*
X4827206Y-9000484D01*
X4827206Y-9000484D02*
X4865301Y-9000484D01*
X4865301Y-9000484D02*
X4884349Y-8990960D01*
X4884349Y-8990960D02*
X4893873Y-8971912D01*
X4893873Y-8971912D02*
X4893873Y-8962389D01*
X4893873Y-8962389D02*
X4884349Y-8943341D01*
X4884349Y-8943341D02*
X4865301Y-8933817D01*
X4865301Y-8933817D02*
X4836730Y-8933817D01*
X4836730Y-8933817D02*
X4817682Y-8924293D01*
X4817682Y-8924293D02*
X4808158Y-8905246D01*
X4808158Y-8905246D02*
X4808158Y-8895722D01*
X4808158Y-8895722D02*
X4817682Y-8876674D01*
X4817682Y-8876674D02*
X4836730Y-8867150D01*
X4836730Y-8867150D02*
X4865301Y-8867150D01*
X4865301Y-8867150D02*
X4884349Y-8876674D01*
X4960539Y-9076674D02*
X4970063Y-9067150D01*
X4970063Y-9067150D02*
X4989111Y-9038579D01*
X4989111Y-9038579D02*
X4998634Y-9019531D01*
X4998634Y-9019531D02*
X5008158Y-8990960D01*
X5008158Y-8990960D02*
X5017682Y-8943341D01*
X5017682Y-8943341D02*
X5017682Y-8905246D01*
X5017682Y-8905246D02*
X5008158Y-8857627D01*
X5008158Y-8857627D02*
X4998634Y-8829055D01*
X4998634Y-8829055D02*
X4989111Y-8810008D01*
X4989111Y-8810008D02*
X4970063Y-8781436D01*
X4970063Y-8781436D02*
X4960539Y-8771912D01*
D10*
X-49450Y-9128550D02*
X-49450Y-9217450D01*
X-93900Y-9173000D02*
X-5000Y-9173000D01*
D11*
X293872Y-9064484D02*
X312920Y-9064484D01*
X312920Y-9064484D02*
X331967Y-9074008D01*
X331967Y-9074008D02*
X341491Y-9083531D01*
X341491Y-9083531D02*
X351015Y-9102579D01*
X351015Y-9102579D02*
X360539Y-9140674D01*
X360539Y-9140674D02*
X360539Y-9188293D01*
X360539Y-9188293D02*
X351015Y-9226389D01*
X351015Y-9226389D02*
X341491Y-9245436D01*
X341491Y-9245436D02*
X331967Y-9254960D01*
X331967Y-9254960D02*
X312920Y-9264484D01*
X312920Y-9264484D02*
X293872Y-9264484D01*
X293872Y-9264484D02*
X274824Y-9254960D01*
X274824Y-9254960D02*
X265301Y-9245436D01*
X265301Y-9245436D02*
X255777Y-9226389D01*
X255777Y-9226389D02*
X246253Y-9188293D01*
X246253Y-9188293D02*
X246253Y-9140674D01*
X246253Y-9140674D02*
X255777Y-9102579D01*
X255777Y-9102579D02*
X265301Y-9083531D01*
X265301Y-9083531D02*
X274824Y-9074008D01*
X274824Y-9074008D02*
X293872Y-9064484D01*
X446253Y-9245436D02*
X455777Y-9254960D01*
X455777Y-9254960D02*
X446253Y-9264484D01*
X446253Y-9264484D02*
X436729Y-9254960D01*
X436729Y-9254960D02*
X446253Y-9245436D01*
X446253Y-9245436D02*
X446253Y-9264484D01*
X570063Y-9150198D02*
X551015Y-9140674D01*
X551015Y-9140674D02*
X541491Y-9131150D01*
X541491Y-9131150D02*
X531967Y-9112103D01*
X531967Y-9112103D02*
X531967Y-9102579D01*
X531967Y-9102579D02*
X541491Y-9083531D01*
X541491Y-9083531D02*
X551015Y-9074008D01*
X551015Y-9074008D02*
X570063Y-9064484D01*
X570063Y-9064484D02*
X608158Y-9064484D01*
X608158Y-9064484D02*
X627205Y-9074008D01*
X627205Y-9074008D02*
X636729Y-9083531D01*
X636729Y-9083531D02*
X646253Y-9102579D01*
X646253Y-9102579D02*
X646253Y-9112103D01*
X646253Y-9112103D02*
X636729Y-9131150D01*
X636729Y-9131150D02*
X627205Y-9140674D01*
X627205Y-9140674D02*
X608158Y-9150198D01*
X608158Y-9150198D02*
X570063Y-9150198D01*
X570063Y-9150198D02*
X551015Y-9159722D01*
X551015Y-9159722D02*
X541491Y-9169246D01*
X541491Y-9169246D02*
X531967Y-9188293D01*
X531967Y-9188293D02*
X531967Y-9226389D01*
X531967Y-9226389D02*
X541491Y-9245436D01*
X541491Y-9245436D02*
X551015Y-9254960D01*
X551015Y-9254960D02*
X570063Y-9264484D01*
X570063Y-9264484D02*
X608158Y-9264484D01*
X608158Y-9264484D02*
X627205Y-9254960D01*
X627205Y-9254960D02*
X636729Y-9245436D01*
X636729Y-9245436D02*
X646253Y-9226389D01*
X646253Y-9226389D02*
X646253Y-9188293D01*
X646253Y-9188293D02*
X636729Y-9169246D01*
X636729Y-9169246D02*
X627205Y-9159722D01*
X627205Y-9159722D02*
X608158Y-9150198D01*
X760539Y-9150198D02*
X741491Y-9140674D01*
X741491Y-9140674D02*
X731967Y-9131150D01*
X731967Y-9131150D02*
X722443Y-9112103D01*
X722443Y-9112103D02*
X722443Y-9102579D01*
X722443Y-9102579D02*
X731967Y-9083531D01*
X731967Y-9083531D02*
X741491Y-9074008D01*
X741491Y-9074008D02*
X760539Y-9064484D01*
X760539Y-9064484D02*
X798634Y-9064484D01*
X798634Y-9064484D02*
X817682Y-9074008D01*
X817682Y-9074008D02*
X827205Y-9083531D01*
X827205Y-9083531D02*
X836729Y-9102579D01*
X836729Y-9102579D02*
X836729Y-9112103D01*
X836729Y-9112103D02*
X827205Y-9131150D01*
X827205Y-9131150D02*
X817682Y-9140674D01*
X817682Y-9140674D02*
X798634Y-9150198D01*
X798634Y-9150198D02*
X760539Y-9150198D01*
X760539Y-9150198D02*
X741491Y-9159722D01*
X741491Y-9159722D02*
X731967Y-9169246D01*
X731967Y-9169246D02*
X722443Y-9188293D01*
X722443Y-9188293D02*
X722443Y-9226389D01*
X722443Y-9226389D02*
X731967Y-9245436D01*
X731967Y-9245436D02*
X741491Y-9254960D01*
X741491Y-9254960D02*
X760539Y-9264484D01*
X760539Y-9264484D02*
X798634Y-9264484D01*
X798634Y-9264484D02*
X817682Y-9254960D01*
X817682Y-9254960D02*
X827205Y-9245436D01*
X827205Y-9245436D02*
X836729Y-9226389D01*
X836729Y-9226389D02*
X836729Y-9188293D01*
X836729Y-9188293D02*
X827205Y-9169246D01*
X827205Y-9169246D02*
X817682Y-9159722D01*
X817682Y-9159722D02*
X798634Y-9150198D01*
X931967Y-9264484D02*
X970062Y-9264484D01*
X970062Y-9264484D02*
X989110Y-9254960D01*
X989110Y-9254960D02*
X998634Y-9245436D01*
X998634Y-9245436D02*
X1017682Y-9216865D01*
X1017682Y-9216865D02*
X1027205Y-9178770D01*
X1027205Y-9178770D02*
X1027205Y-9102579D01*
X1027205Y-9102579D02*
X1017682Y-9083531D01*
X1017682Y-9083531D02*
X1008158Y-9074008D01*
X1008158Y-9074008D02*
X989110Y-9064484D01*
X989110Y-9064484D02*
X951015Y-9064484D01*
X951015Y-9064484D02*
X931967Y-9074008D01*
X931967Y-9074008D02*
X922443Y-9083531D01*
X922443Y-9083531D02*
X912920Y-9102579D01*
X912920Y-9102579D02*
X912920Y-9150198D01*
X912920Y-9150198D02*
X922443Y-9169246D01*
X922443Y-9169246D02*
X931967Y-9178770D01*
X931967Y-9178770D02*
X951015Y-9188293D01*
X951015Y-9188293D02*
X989110Y-9188293D01*
X989110Y-9188293D02*
X1008158Y-9178770D01*
X1008158Y-9178770D02*
X1017682Y-9169246D01*
X1017682Y-9169246D02*
X1027205Y-9150198D01*
X1112920Y-9264484D02*
X1112920Y-9131150D01*
X1112920Y-9150198D02*
X1122444Y-9140674D01*
X1122444Y-9140674D02*
X1141491Y-9131150D01*
X1141491Y-9131150D02*
X1170063Y-9131150D01*
X1170063Y-9131150D02*
X1189110Y-9140674D01*
X1189110Y-9140674D02*
X1198634Y-9159722D01*
X1198634Y-9159722D02*
X1198634Y-9264484D01*
X1198634Y-9159722D02*
X1208158Y-9140674D01*
X1208158Y-9140674D02*
X1227205Y-9131150D01*
X1227205Y-9131150D02*
X1255777Y-9131150D01*
X1255777Y-9131150D02*
X1274825Y-9140674D01*
X1274825Y-9140674D02*
X1284348Y-9159722D01*
X1284348Y-9159722D02*
X1284348Y-9264484D01*
X1379586Y-9264484D02*
X1379586Y-9131150D01*
X1379586Y-9150198D02*
X1389110Y-9140674D01*
X1389110Y-9140674D02*
X1408158Y-9131150D01*
X1408158Y-9131150D02*
X1436729Y-9131150D01*
X1436729Y-9131150D02*
X1455777Y-9140674D01*
X1455777Y-9140674D02*
X1465301Y-9159722D01*
X1465301Y-9159722D02*
X1465301Y-9264484D01*
X1465301Y-9159722D02*
X1474824Y-9140674D01*
X1474824Y-9140674D02*
X1493872Y-9131150D01*
X1493872Y-9131150D02*
X1522443Y-9131150D01*
X1522443Y-9131150D02*
X1541491Y-9140674D01*
X1541491Y-9140674D02*
X1551015Y-9159722D01*
X1551015Y-9159722D02*
X1551015Y-9264484D01*
X1941491Y-9054960D02*
X1770063Y-9312103D01*
X2198634Y-9064484D02*
X2217682Y-9064484D01*
X2217682Y-9064484D02*
X2236729Y-9074008D01*
X2236729Y-9074008D02*
X2246253Y-9083531D01*
X2246253Y-9083531D02*
X2255777Y-9102579D01*
X2255777Y-9102579D02*
X2265301Y-9140674D01*
X2265301Y-9140674D02*
X2265301Y-9188293D01*
X2265301Y-9188293D02*
X2255777Y-9226389D01*
X2255777Y-9226389D02*
X2246253Y-9245436D01*
X2246253Y-9245436D02*
X2236729Y-9254960D01*
X2236729Y-9254960D02*
X2217682Y-9264484D01*
X2217682Y-9264484D02*
X2198634Y-9264484D01*
X2198634Y-9264484D02*
X2179587Y-9254960D01*
X2179587Y-9254960D02*
X2170063Y-9245436D01*
X2170063Y-9245436D02*
X2160539Y-9226389D01*
X2160539Y-9226389D02*
X2151015Y-9188293D01*
X2151015Y-9188293D02*
X2151015Y-9140674D01*
X2151015Y-9140674D02*
X2160539Y-9102579D01*
X2160539Y-9102579D02*
X2170063Y-9083531D01*
X2170063Y-9083531D02*
X2179587Y-9074008D01*
X2179587Y-9074008D02*
X2198634Y-9064484D01*
X2351015Y-9245436D02*
X2360539Y-9254960D01*
X2360539Y-9254960D02*
X2351015Y-9264484D01*
X2351015Y-9264484D02*
X2341491Y-9254960D01*
X2341491Y-9254960D02*
X2351015Y-9245436D01*
X2351015Y-9245436D02*
X2351015Y-9264484D01*
X2484348Y-9064484D02*
X2503396Y-9064484D01*
X2503396Y-9064484D02*
X2522444Y-9074008D01*
X2522444Y-9074008D02*
X2531968Y-9083531D01*
X2531968Y-9083531D02*
X2541491Y-9102579D01*
X2541491Y-9102579D02*
X2551015Y-9140674D01*
X2551015Y-9140674D02*
X2551015Y-9188293D01*
X2551015Y-9188293D02*
X2541491Y-9226389D01*
X2541491Y-9226389D02*
X2531968Y-9245436D01*
X2531968Y-9245436D02*
X2522444Y-9254960D01*
X2522444Y-9254960D02*
X2503396Y-9264484D01*
X2503396Y-9264484D02*
X2484348Y-9264484D01*
X2484348Y-9264484D02*
X2465301Y-9254960D01*
X2465301Y-9254960D02*
X2455777Y-9245436D01*
X2455777Y-9245436D02*
X2446253Y-9226389D01*
X2446253Y-9226389D02*
X2436729Y-9188293D01*
X2436729Y-9188293D02*
X2436729Y-9140674D01*
X2436729Y-9140674D02*
X2446253Y-9102579D01*
X2446253Y-9102579D02*
X2455777Y-9083531D01*
X2455777Y-9083531D02*
X2465301Y-9074008D01*
X2465301Y-9074008D02*
X2484348Y-9064484D01*
X2617682Y-9064484D02*
X2741491Y-9064484D01*
X2741491Y-9064484D02*
X2674825Y-9140674D01*
X2674825Y-9140674D02*
X2703396Y-9140674D01*
X2703396Y-9140674D02*
X2722444Y-9150198D01*
X2722444Y-9150198D02*
X2731968Y-9159722D01*
X2731968Y-9159722D02*
X2741491Y-9178770D01*
X2741491Y-9178770D02*
X2741491Y-9226389D01*
X2741491Y-9226389D02*
X2731968Y-9245436D01*
X2731968Y-9245436D02*
X2722444Y-9254960D01*
X2722444Y-9254960D02*
X2703396Y-9264484D01*
X2703396Y-9264484D02*
X2646253Y-9264484D01*
X2646253Y-9264484D02*
X2627206Y-9254960D01*
X2627206Y-9254960D02*
X2617682Y-9245436D01*
X2922444Y-9064484D02*
X2827206Y-9064484D01*
X2827206Y-9064484D02*
X2817682Y-9159722D01*
X2817682Y-9159722D02*
X2827206Y-9150198D01*
X2827206Y-9150198D02*
X2846253Y-9140674D01*
X2846253Y-9140674D02*
X2893872Y-9140674D01*
X2893872Y-9140674D02*
X2912920Y-9150198D01*
X2912920Y-9150198D02*
X2922444Y-9159722D01*
X2922444Y-9159722D02*
X2931967Y-9178770D01*
X2931967Y-9178770D02*
X2931967Y-9226389D01*
X2931967Y-9226389D02*
X2922444Y-9245436D01*
X2922444Y-9245436D02*
X2912920Y-9254960D01*
X2912920Y-9254960D02*
X2893872Y-9264484D01*
X2893872Y-9264484D02*
X2846253Y-9264484D01*
X2846253Y-9264484D02*
X2827206Y-9254960D01*
X2827206Y-9254960D02*
X2817682Y-9245436D01*
X3055777Y-9064484D02*
X3074825Y-9064484D01*
X3074825Y-9064484D02*
X3093872Y-9074008D01*
X3093872Y-9074008D02*
X3103396Y-9083531D01*
X3103396Y-9083531D02*
X3112920Y-9102579D01*
X3112920Y-9102579D02*
X3122444Y-9140674D01*
X3122444Y-9140674D02*
X3122444Y-9188293D01*
X3122444Y-9188293D02*
X3112920Y-9226389D01*
X3112920Y-9226389D02*
X3103396Y-9245436D01*
X3103396Y-9245436D02*
X3093872Y-9254960D01*
X3093872Y-9254960D02*
X3074825Y-9264484D01*
X3074825Y-9264484D02*
X3055777Y-9264484D01*
X3055777Y-9264484D02*
X3036729Y-9254960D01*
X3036729Y-9254960D02*
X3027206Y-9245436D01*
X3027206Y-9245436D02*
X3017682Y-9226389D01*
X3017682Y-9226389D02*
X3008158Y-9188293D01*
X3008158Y-9188293D02*
X3008158Y-9140674D01*
X3008158Y-9140674D02*
X3017682Y-9102579D01*
X3017682Y-9102579D02*
X3027206Y-9083531D01*
X3027206Y-9083531D02*
X3036729Y-9074008D01*
X3036729Y-9074008D02*
X3055777Y-9064484D01*
X3198634Y-9064484D02*
X3198634Y-9102579D01*
X3274825Y-9064484D02*
X3274825Y-9102579D01*
X3570063Y-9340674D02*
X3560539Y-9331150D01*
X3560539Y-9331150D02*
X3541491Y-9302579D01*
X3541491Y-9302579D02*
X3531968Y-9283531D01*
X3531968Y-9283531D02*
X3522444Y-9254960D01*
X3522444Y-9254960D02*
X3512920Y-9207341D01*
X3512920Y-9207341D02*
X3512920Y-9169246D01*
X3512920Y-9169246D02*
X3522444Y-9121627D01*
X3522444Y-9121627D02*
X3531968Y-9093055D01*
X3531968Y-9093055D02*
X3541491Y-9074008D01*
X3541491Y-9074008D02*
X3560539Y-9045436D01*
X3560539Y-9045436D02*
X3570063Y-9035912D01*
X3751015Y-9264484D02*
X3636729Y-9264484D01*
X3693872Y-9264484D02*
X3693872Y-9064484D01*
X3693872Y-9064484D02*
X3674825Y-9093055D01*
X3674825Y-9093055D02*
X3655777Y-9112103D01*
X3655777Y-9112103D02*
X3636729Y-9121627D01*
X3922444Y-9131150D02*
X3922444Y-9264484D01*
X3874825Y-9054960D02*
X3827206Y-9197817D01*
X3827206Y-9197817D02*
X3951015Y-9197817D01*
X4179587Y-9264484D02*
X4179587Y-9064484D01*
X4265301Y-9264484D02*
X4265301Y-9159722D01*
X4265301Y-9159722D02*
X4255777Y-9140674D01*
X4255777Y-9140674D02*
X4236730Y-9131150D01*
X4236730Y-9131150D02*
X4208158Y-9131150D01*
X4208158Y-9131150D02*
X4189110Y-9140674D01*
X4189110Y-9140674D02*
X4179587Y-9150198D01*
X4389111Y-9264484D02*
X4370063Y-9254960D01*
X4370063Y-9254960D02*
X4360539Y-9245436D01*
X4360539Y-9245436D02*
X4351015Y-9226389D01*
X4351015Y-9226389D02*
X4351015Y-9169246D01*
X4351015Y-9169246D02*
X4360539Y-9150198D01*
X4360539Y-9150198D02*
X4370063Y-9140674D01*
X4370063Y-9140674D02*
X4389111Y-9131150D01*
X4389111Y-9131150D02*
X4417682Y-9131150D01*
X4417682Y-9131150D02*
X4436730Y-9140674D01*
X4436730Y-9140674D02*
X4446253Y-9150198D01*
X4446253Y-9150198D02*
X4455777Y-9169246D01*
X4455777Y-9169246D02*
X4455777Y-9226389D01*
X4455777Y-9226389D02*
X4446253Y-9245436D01*
X4446253Y-9245436D02*
X4436730Y-9254960D01*
X4436730Y-9254960D02*
X4417682Y-9264484D01*
X4417682Y-9264484D02*
X4389111Y-9264484D01*
X4570063Y-9264484D02*
X4551015Y-9254960D01*
X4551015Y-9254960D02*
X4541492Y-9235912D01*
X4541492Y-9235912D02*
X4541492Y-9064484D01*
X4722444Y-9254960D02*
X4703396Y-9264484D01*
X4703396Y-9264484D02*
X4665301Y-9264484D01*
X4665301Y-9264484D02*
X4646253Y-9254960D01*
X4646253Y-9254960D02*
X4636730Y-9235912D01*
X4636730Y-9235912D02*
X4636730Y-9159722D01*
X4636730Y-9159722D02*
X4646253Y-9140674D01*
X4646253Y-9140674D02*
X4665301Y-9131150D01*
X4665301Y-9131150D02*
X4703396Y-9131150D01*
X4703396Y-9131150D02*
X4722444Y-9140674D01*
X4722444Y-9140674D02*
X4731968Y-9159722D01*
X4731968Y-9159722D02*
X4731968Y-9178770D01*
X4731968Y-9178770D02*
X4636730Y-9197817D01*
X4808158Y-9254960D02*
X4827206Y-9264484D01*
X4827206Y-9264484D02*
X4865301Y-9264484D01*
X4865301Y-9264484D02*
X4884349Y-9254960D01*
X4884349Y-9254960D02*
X4893873Y-9235912D01*
X4893873Y-9235912D02*
X4893873Y-9226389D01*
X4893873Y-9226389D02*
X4884349Y-9207341D01*
X4884349Y-9207341D02*
X4865301Y-9197817D01*
X4865301Y-9197817D02*
X4836730Y-9197817D01*
X4836730Y-9197817D02*
X4817682Y-9188293D01*
X4817682Y-9188293D02*
X4808158Y-9169246D01*
X4808158Y-9169246D02*
X4808158Y-9159722D01*
X4808158Y-9159722D02*
X4817682Y-9140674D01*
X4817682Y-9140674D02*
X4836730Y-9131150D01*
X4836730Y-9131150D02*
X4865301Y-9131150D01*
X4865301Y-9131150D02*
X4884349Y-9140674D01*
X4960539Y-9340674D02*
X4970063Y-9331150D01*
X4970063Y-9331150D02*
X4989111Y-9302579D01*
X4989111Y-9302579D02*
X4998634Y-9283531D01*
X4998634Y-9283531D02*
X5008158Y-9254960D01*
X5008158Y-9254960D02*
X5017682Y-9207341D01*
X5017682Y-9207341D02*
X5017682Y-9169246D01*
X5017682Y-9169246D02*
X5008158Y-9121627D01*
X5008158Y-9121627D02*
X4998634Y-9093055D01*
X4998634Y-9093055D02*
X4989111Y-9074008D01*
X4989111Y-9074008D02*
X4970063Y-9045436D01*
X4970063Y-9045436D02*
X4960539Y-9035912D01*
D10*
X-19644Y-9472356D02*
X-19644Y-9401644D01*
X-90356Y-9401644D01*
X-90356Y-9472356D01*
X-19644Y-9472356D01*
D11*
X360539Y-9528484D02*
X246253Y-9528484D01*
X303396Y-9528484D02*
X303396Y-9328484D01*
X303396Y-9328484D02*
X284348Y-9357055D01*
X284348Y-9357055D02*
X265301Y-9376103D01*
X265301Y-9376103D02*
X246253Y-9385627D01*
X446253Y-9509436D02*
X455777Y-9518960D01*
X455777Y-9518960D02*
X446253Y-9528484D01*
X446253Y-9528484D02*
X436729Y-9518960D01*
X436729Y-9518960D02*
X446253Y-9509436D01*
X446253Y-9509436D02*
X446253Y-9528484D01*
X579586Y-9328484D02*
X598634Y-9328484D01*
X598634Y-9328484D02*
X617682Y-9338008D01*
X617682Y-9338008D02*
X627205Y-9347531D01*
X627205Y-9347531D02*
X636729Y-9366579D01*
X636729Y-9366579D02*
X646253Y-9404674D01*
X646253Y-9404674D02*
X646253Y-9452293D01*
X646253Y-9452293D02*
X636729Y-9490389D01*
X636729Y-9490389D02*
X627205Y-9509436D01*
X627205Y-9509436D02*
X617682Y-9518960D01*
X617682Y-9518960D02*
X598634Y-9528484D01*
X598634Y-9528484D02*
X579586Y-9528484D01*
X579586Y-9528484D02*
X560539Y-9518960D01*
X560539Y-9518960D02*
X551015Y-9509436D01*
X551015Y-9509436D02*
X541491Y-9490389D01*
X541491Y-9490389D02*
X531967Y-9452293D01*
X531967Y-9452293D02*
X531967Y-9404674D01*
X531967Y-9404674D02*
X541491Y-9366579D01*
X541491Y-9366579D02*
X551015Y-9347531D01*
X551015Y-9347531D02*
X560539Y-9338008D01*
X560539Y-9338008D02*
X579586Y-9328484D01*
X770062Y-9328484D02*
X789110Y-9328484D01*
X789110Y-9328484D02*
X808158Y-9338008D01*
X808158Y-9338008D02*
X817682Y-9347531D01*
X817682Y-9347531D02*
X827205Y-9366579D01*
X827205Y-9366579D02*
X836729Y-9404674D01*
X836729Y-9404674D02*
X836729Y-9452293D01*
X836729Y-9452293D02*
X827205Y-9490389D01*
X827205Y-9490389D02*
X817682Y-9509436D01*
X817682Y-9509436D02*
X808158Y-9518960D01*
X808158Y-9518960D02*
X789110Y-9528484D01*
X789110Y-9528484D02*
X770062Y-9528484D01*
X770062Y-9528484D02*
X751015Y-9518960D01*
X751015Y-9518960D02*
X741491Y-9509436D01*
X741491Y-9509436D02*
X731967Y-9490389D01*
X731967Y-9490389D02*
X722443Y-9452293D01*
X722443Y-9452293D02*
X722443Y-9404674D01*
X722443Y-9404674D02*
X731967Y-9366579D01*
X731967Y-9366579D02*
X741491Y-9347531D01*
X741491Y-9347531D02*
X751015Y-9338008D01*
X751015Y-9338008D02*
X770062Y-9328484D01*
X960539Y-9328484D02*
X979586Y-9328484D01*
X979586Y-9328484D02*
X998634Y-9338008D01*
X998634Y-9338008D02*
X1008158Y-9347531D01*
X1008158Y-9347531D02*
X1017682Y-9366579D01*
X1017682Y-9366579D02*
X1027205Y-9404674D01*
X1027205Y-9404674D02*
X1027205Y-9452293D01*
X1027205Y-9452293D02*
X1017682Y-9490389D01*
X1017682Y-9490389D02*
X1008158Y-9509436D01*
X1008158Y-9509436D02*
X998634Y-9518960D01*
X998634Y-9518960D02*
X979586Y-9528484D01*
X979586Y-9528484D02*
X960539Y-9528484D01*
X960539Y-9528484D02*
X941491Y-9518960D01*
X941491Y-9518960D02*
X931967Y-9509436D01*
X931967Y-9509436D02*
X922443Y-9490389D01*
X922443Y-9490389D02*
X912920Y-9452293D01*
X912920Y-9452293D02*
X912920Y-9404674D01*
X912920Y-9404674D02*
X922443Y-9366579D01*
X922443Y-9366579D02*
X931967Y-9347531D01*
X931967Y-9347531D02*
X941491Y-9338008D01*
X941491Y-9338008D02*
X960539Y-9328484D01*
X1112920Y-9528484D02*
X1112920Y-9395150D01*
X1112920Y-9414198D02*
X1122444Y-9404674D01*
X1122444Y-9404674D02*
X1141491Y-9395150D01*
X1141491Y-9395150D02*
X1170063Y-9395150D01*
X1170063Y-9395150D02*
X1189110Y-9404674D01*
X1189110Y-9404674D02*
X1198634Y-9423722D01*
X1198634Y-9423722D02*
X1198634Y-9528484D01*
X1198634Y-9423722D02*
X1208158Y-9404674D01*
X1208158Y-9404674D02*
X1227205Y-9395150D01*
X1227205Y-9395150D02*
X1255777Y-9395150D01*
X1255777Y-9395150D02*
X1274825Y-9404674D01*
X1274825Y-9404674D02*
X1284348Y-9423722D01*
X1284348Y-9423722D02*
X1284348Y-9528484D01*
X1379586Y-9528484D02*
X1379586Y-9395150D01*
X1379586Y-9414198D02*
X1389110Y-9404674D01*
X1389110Y-9404674D02*
X1408158Y-9395150D01*
X1408158Y-9395150D02*
X1436729Y-9395150D01*
X1436729Y-9395150D02*
X1455777Y-9404674D01*
X1455777Y-9404674D02*
X1465301Y-9423722D01*
X1465301Y-9423722D02*
X1465301Y-9528484D01*
X1465301Y-9423722D02*
X1474824Y-9404674D01*
X1474824Y-9404674D02*
X1493872Y-9395150D01*
X1493872Y-9395150D02*
X1522443Y-9395150D01*
X1522443Y-9395150D02*
X1541491Y-9404674D01*
X1541491Y-9404674D02*
X1551015Y-9423722D01*
X1551015Y-9423722D02*
X1551015Y-9528484D01*
X1941491Y-9318960D02*
X1770063Y-9576103D01*
X2198634Y-9328484D02*
X2217682Y-9328484D01*
X2217682Y-9328484D02*
X2236729Y-9338008D01*
X2236729Y-9338008D02*
X2246253Y-9347531D01*
X2246253Y-9347531D02*
X2255777Y-9366579D01*
X2255777Y-9366579D02*
X2265301Y-9404674D01*
X2265301Y-9404674D02*
X2265301Y-9452293D01*
X2265301Y-9452293D02*
X2255777Y-9490389D01*
X2255777Y-9490389D02*
X2246253Y-9509436D01*
X2246253Y-9509436D02*
X2236729Y-9518960D01*
X2236729Y-9518960D02*
X2217682Y-9528484D01*
X2217682Y-9528484D02*
X2198634Y-9528484D01*
X2198634Y-9528484D02*
X2179587Y-9518960D01*
X2179587Y-9518960D02*
X2170063Y-9509436D01*
X2170063Y-9509436D02*
X2160539Y-9490389D01*
X2160539Y-9490389D02*
X2151015Y-9452293D01*
X2151015Y-9452293D02*
X2151015Y-9404674D01*
X2151015Y-9404674D02*
X2160539Y-9366579D01*
X2160539Y-9366579D02*
X2170063Y-9347531D01*
X2170063Y-9347531D02*
X2179587Y-9338008D01*
X2179587Y-9338008D02*
X2198634Y-9328484D01*
X2351015Y-9509436D02*
X2360539Y-9518960D01*
X2360539Y-9518960D02*
X2351015Y-9528484D01*
X2351015Y-9528484D02*
X2341491Y-9518960D01*
X2341491Y-9518960D02*
X2351015Y-9509436D01*
X2351015Y-9509436D02*
X2351015Y-9528484D01*
X2484348Y-9328484D02*
X2503396Y-9328484D01*
X2503396Y-9328484D02*
X2522444Y-9338008D01*
X2522444Y-9338008D02*
X2531968Y-9347531D01*
X2531968Y-9347531D02*
X2541491Y-9366579D01*
X2541491Y-9366579D02*
X2551015Y-9404674D01*
X2551015Y-9404674D02*
X2551015Y-9452293D01*
X2551015Y-9452293D02*
X2541491Y-9490389D01*
X2541491Y-9490389D02*
X2531968Y-9509436D01*
X2531968Y-9509436D02*
X2522444Y-9518960D01*
X2522444Y-9518960D02*
X2503396Y-9528484D01*
X2503396Y-9528484D02*
X2484348Y-9528484D01*
X2484348Y-9528484D02*
X2465301Y-9518960D01*
X2465301Y-9518960D02*
X2455777Y-9509436D01*
X2455777Y-9509436D02*
X2446253Y-9490389D01*
X2446253Y-9490389D02*
X2436729Y-9452293D01*
X2436729Y-9452293D02*
X2436729Y-9404674D01*
X2436729Y-9404674D02*
X2446253Y-9366579D01*
X2446253Y-9366579D02*
X2455777Y-9347531D01*
X2455777Y-9347531D02*
X2465301Y-9338008D01*
X2465301Y-9338008D02*
X2484348Y-9328484D01*
X2617682Y-9328484D02*
X2741491Y-9328484D01*
X2741491Y-9328484D02*
X2674825Y-9404674D01*
X2674825Y-9404674D02*
X2703396Y-9404674D01*
X2703396Y-9404674D02*
X2722444Y-9414198D01*
X2722444Y-9414198D02*
X2731968Y-9423722D01*
X2731968Y-9423722D02*
X2741491Y-9442770D01*
X2741491Y-9442770D02*
X2741491Y-9490389D01*
X2741491Y-9490389D02*
X2731968Y-9509436D01*
X2731968Y-9509436D02*
X2722444Y-9518960D01*
X2722444Y-9518960D02*
X2703396Y-9528484D01*
X2703396Y-9528484D02*
X2646253Y-9528484D01*
X2646253Y-9528484D02*
X2627206Y-9518960D01*
X2627206Y-9518960D02*
X2617682Y-9509436D01*
X2836729Y-9528484D02*
X2874825Y-9528484D01*
X2874825Y-9528484D02*
X2893872Y-9518960D01*
X2893872Y-9518960D02*
X2903396Y-9509436D01*
X2903396Y-9509436D02*
X2922444Y-9480865D01*
X2922444Y-9480865D02*
X2931967Y-9442770D01*
X2931967Y-9442770D02*
X2931967Y-9366579D01*
X2931967Y-9366579D02*
X2922444Y-9347531D01*
X2922444Y-9347531D02*
X2912920Y-9338008D01*
X2912920Y-9338008D02*
X2893872Y-9328484D01*
X2893872Y-9328484D02*
X2855777Y-9328484D01*
X2855777Y-9328484D02*
X2836729Y-9338008D01*
X2836729Y-9338008D02*
X2827206Y-9347531D01*
X2827206Y-9347531D02*
X2817682Y-9366579D01*
X2817682Y-9366579D02*
X2817682Y-9414198D01*
X2817682Y-9414198D02*
X2827206Y-9433246D01*
X2827206Y-9433246D02*
X2836729Y-9442770D01*
X2836729Y-9442770D02*
X2855777Y-9452293D01*
X2855777Y-9452293D02*
X2893872Y-9452293D01*
X2893872Y-9452293D02*
X2912920Y-9442770D01*
X2912920Y-9442770D02*
X2922444Y-9433246D01*
X2922444Y-9433246D02*
X2931967Y-9414198D01*
X3103396Y-9395150D02*
X3103396Y-9528484D01*
X3055777Y-9318960D02*
X3008158Y-9461817D01*
X3008158Y-9461817D02*
X3131967Y-9461817D01*
X3198634Y-9328484D02*
X3198634Y-9366579D01*
X3274825Y-9328484D02*
X3274825Y-9366579D01*
X3570063Y-9604674D02*
X3560539Y-9595150D01*
X3560539Y-9595150D02*
X3541491Y-9566579D01*
X3541491Y-9566579D02*
X3531968Y-9547531D01*
X3531968Y-9547531D02*
X3522444Y-9518960D01*
X3522444Y-9518960D02*
X3512920Y-9471341D01*
X3512920Y-9471341D02*
X3512920Y-9433246D01*
X3512920Y-9433246D02*
X3522444Y-9385627D01*
X3522444Y-9385627D02*
X3531968Y-9357055D01*
X3531968Y-9357055D02*
X3541491Y-9338008D01*
X3541491Y-9338008D02*
X3560539Y-9309436D01*
X3560539Y-9309436D02*
X3570063Y-9299912D01*
X3741491Y-9328484D02*
X3646253Y-9328484D01*
X3646253Y-9328484D02*
X3636729Y-9423722D01*
X3636729Y-9423722D02*
X3646253Y-9414198D01*
X3646253Y-9414198D02*
X3665301Y-9404674D01*
X3665301Y-9404674D02*
X3712920Y-9404674D01*
X3712920Y-9404674D02*
X3731968Y-9414198D01*
X3731968Y-9414198D02*
X3741491Y-9423722D01*
X3741491Y-9423722D02*
X3751015Y-9442770D01*
X3751015Y-9442770D02*
X3751015Y-9490389D01*
X3751015Y-9490389D02*
X3741491Y-9509436D01*
X3741491Y-9509436D02*
X3731968Y-9518960D01*
X3731968Y-9518960D02*
X3712920Y-9528484D01*
X3712920Y-9528484D02*
X3665301Y-9528484D01*
X3665301Y-9528484D02*
X3646253Y-9518960D01*
X3646253Y-9518960D02*
X3636729Y-9509436D01*
X3865301Y-9414198D02*
X3846253Y-9404674D01*
X3846253Y-9404674D02*
X3836729Y-9395150D01*
X3836729Y-9395150D02*
X3827206Y-9376103D01*
X3827206Y-9376103D02*
X3827206Y-9366579D01*
X3827206Y-9366579D02*
X3836729Y-9347531D01*
X3836729Y-9347531D02*
X3846253Y-9338008D01*
X3846253Y-9338008D02*
X3865301Y-9328484D01*
X3865301Y-9328484D02*
X3903396Y-9328484D01*
X3903396Y-9328484D02*
X3922444Y-9338008D01*
X3922444Y-9338008D02*
X3931968Y-9347531D01*
X3931968Y-9347531D02*
X3941491Y-9366579D01*
X3941491Y-9366579D02*
X3941491Y-9376103D01*
X3941491Y-9376103D02*
X3931968Y-9395150D01*
X3931968Y-9395150D02*
X3922444Y-9404674D01*
X3922444Y-9404674D02*
X3903396Y-9414198D01*
X3903396Y-9414198D02*
X3865301Y-9414198D01*
X3865301Y-9414198D02*
X3846253Y-9423722D01*
X3846253Y-9423722D02*
X3836729Y-9433246D01*
X3836729Y-9433246D02*
X3827206Y-9452293D01*
X3827206Y-9452293D02*
X3827206Y-9490389D01*
X3827206Y-9490389D02*
X3836729Y-9509436D01*
X3836729Y-9509436D02*
X3846253Y-9518960D01*
X3846253Y-9518960D02*
X3865301Y-9528484D01*
X3865301Y-9528484D02*
X3903396Y-9528484D01*
X3903396Y-9528484D02*
X3922444Y-9518960D01*
X3922444Y-9518960D02*
X3931968Y-9509436D01*
X3931968Y-9509436D02*
X3941491Y-9490389D01*
X3941491Y-9490389D02*
X3941491Y-9452293D01*
X3941491Y-9452293D02*
X3931968Y-9433246D01*
X3931968Y-9433246D02*
X3922444Y-9423722D01*
X3922444Y-9423722D02*
X3903396Y-9414198D01*
X4179587Y-9528484D02*
X4179587Y-9328484D01*
X4265301Y-9528484D02*
X4265301Y-9423722D01*
X4265301Y-9423722D02*
X4255777Y-9404674D01*
X4255777Y-9404674D02*
X4236730Y-9395150D01*
X4236730Y-9395150D02*
X4208158Y-9395150D01*
X4208158Y-9395150D02*
X4189110Y-9404674D01*
X4189110Y-9404674D02*
X4179587Y-9414198D01*
X4389111Y-9528484D02*
X4370063Y-9518960D01*
X4370063Y-9518960D02*
X4360539Y-9509436D01*
X4360539Y-9509436D02*
X4351015Y-9490389D01*
X4351015Y-9490389D02*
X4351015Y-9433246D01*
X4351015Y-9433246D02*
X4360539Y-9414198D01*
X4360539Y-9414198D02*
X4370063Y-9404674D01*
X4370063Y-9404674D02*
X4389111Y-9395150D01*
X4389111Y-9395150D02*
X4417682Y-9395150D01*
X4417682Y-9395150D02*
X4436730Y-9404674D01*
X4436730Y-9404674D02*
X4446253Y-9414198D01*
X4446253Y-9414198D02*
X4455777Y-9433246D01*
X4455777Y-9433246D02*
X4455777Y-9490389D01*
X4455777Y-9490389D02*
X4446253Y-9509436D01*
X4446253Y-9509436D02*
X4436730Y-9518960D01*
X4436730Y-9518960D02*
X4417682Y-9528484D01*
X4417682Y-9528484D02*
X4389111Y-9528484D01*
X4570063Y-9528484D02*
X4551015Y-9518960D01*
X4551015Y-9518960D02*
X4541492Y-9499912D01*
X4541492Y-9499912D02*
X4541492Y-9328484D01*
X4722444Y-9518960D02*
X4703396Y-9528484D01*
X4703396Y-9528484D02*
X4665301Y-9528484D01*
X4665301Y-9528484D02*
X4646253Y-9518960D01*
X4646253Y-9518960D02*
X4636730Y-9499912D01*
X4636730Y-9499912D02*
X4636730Y-9423722D01*
X4636730Y-9423722D02*
X4646253Y-9404674D01*
X4646253Y-9404674D02*
X4665301Y-9395150D01*
X4665301Y-9395150D02*
X4703396Y-9395150D01*
X4703396Y-9395150D02*
X4722444Y-9404674D01*
X4722444Y-9404674D02*
X4731968Y-9423722D01*
X4731968Y-9423722D02*
X4731968Y-9442770D01*
X4731968Y-9442770D02*
X4636730Y-9461817D01*
X4808158Y-9518960D02*
X4827206Y-9528484D01*
X4827206Y-9528484D02*
X4865301Y-9528484D01*
X4865301Y-9528484D02*
X4884349Y-9518960D01*
X4884349Y-9518960D02*
X4893873Y-9499912D01*
X4893873Y-9499912D02*
X4893873Y-9490389D01*
X4893873Y-9490389D02*
X4884349Y-9471341D01*
X4884349Y-9471341D02*
X4865301Y-9461817D01*
X4865301Y-9461817D02*
X4836730Y-9461817D01*
X4836730Y-9461817D02*
X4817682Y-9452293D01*
X4817682Y-9452293D02*
X4808158Y-9433246D01*
X4808158Y-9433246D02*
X4808158Y-9423722D01*
X4808158Y-9423722D02*
X4817682Y-9404674D01*
X4817682Y-9404674D02*
X4836730Y-9395150D01*
X4836730Y-9395150D02*
X4865301Y-9395150D01*
X4865301Y-9395150D02*
X4884349Y-9404674D01*
X4960539Y-9604674D02*
X4970063Y-9595150D01*
X4970063Y-9595150D02*
X4989111Y-9566579D01*
X4989111Y-9566579D02*
X4998634Y-9547531D01*
X4998634Y-9547531D02*
X5008158Y-9518960D01*
X5008158Y-9518960D02*
X5017682Y-9471341D01*
X5017682Y-9471341D02*
X5017682Y-9433246D01*
X5017682Y-9433246D02*
X5008158Y-9385627D01*
X5008158Y-9385627D02*
X4998634Y-9357055D01*
X4998634Y-9357055D02*
X4989111Y-9338008D01*
X4989111Y-9338008D02*
X4970063Y-9309436D01*
X4970063Y-9309436D02*
X4960539Y-9299912D01*
D12*
X-60000Y-9756000D02*
X-5000Y-9701000D01*
X-60000Y-9646000D01*
X-115000Y-9701000D01*
X-60000Y-9756000D01*
D11*
X360539Y-9792484D02*
X246253Y-9792484D01*
X303396Y-9792484D02*
X303396Y-9592484D01*
X303396Y-9592484D02*
X284348Y-9621055D01*
X284348Y-9621055D02*
X265301Y-9640103D01*
X265301Y-9640103D02*
X246253Y-9649627D01*
X446253Y-9773436D02*
X455777Y-9782960D01*
X455777Y-9782960D02*
X446253Y-9792484D01*
X446253Y-9792484D02*
X436729Y-9782960D01*
X436729Y-9782960D02*
X446253Y-9773436D01*
X446253Y-9773436D02*
X446253Y-9792484D01*
X646253Y-9792484D02*
X531967Y-9792484D01*
X589110Y-9792484D02*
X589110Y-9592484D01*
X589110Y-9592484D02*
X570063Y-9621055D01*
X570063Y-9621055D02*
X551015Y-9640103D01*
X551015Y-9640103D02*
X531967Y-9649627D01*
X770062Y-9592484D02*
X789110Y-9592484D01*
X789110Y-9592484D02*
X808158Y-9602008D01*
X808158Y-9602008D02*
X817682Y-9611531D01*
X817682Y-9611531D02*
X827205Y-9630579D01*
X827205Y-9630579D02*
X836729Y-9668674D01*
X836729Y-9668674D02*
X836729Y-9716293D01*
X836729Y-9716293D02*
X827205Y-9754389D01*
X827205Y-9754389D02*
X817682Y-9773436D01*
X817682Y-9773436D02*
X808158Y-9782960D01*
X808158Y-9782960D02*
X789110Y-9792484D01*
X789110Y-9792484D02*
X770062Y-9792484D01*
X770062Y-9792484D02*
X751015Y-9782960D01*
X751015Y-9782960D02*
X741491Y-9773436D01*
X741491Y-9773436D02*
X731967Y-9754389D01*
X731967Y-9754389D02*
X722443Y-9716293D01*
X722443Y-9716293D02*
X722443Y-9668674D01*
X722443Y-9668674D02*
X731967Y-9630579D01*
X731967Y-9630579D02*
X741491Y-9611531D01*
X741491Y-9611531D02*
X751015Y-9602008D01*
X751015Y-9602008D02*
X770062Y-9592484D01*
X960539Y-9592484D02*
X979586Y-9592484D01*
X979586Y-9592484D02*
X998634Y-9602008D01*
X998634Y-9602008D02*
X1008158Y-9611531D01*
X1008158Y-9611531D02*
X1017682Y-9630579D01*
X1017682Y-9630579D02*
X1027205Y-9668674D01*
X1027205Y-9668674D02*
X1027205Y-9716293D01*
X1027205Y-9716293D02*
X1017682Y-9754389D01*
X1017682Y-9754389D02*
X1008158Y-9773436D01*
X1008158Y-9773436D02*
X998634Y-9782960D01*
X998634Y-9782960D02*
X979586Y-9792484D01*
X979586Y-9792484D02*
X960539Y-9792484D01*
X960539Y-9792484D02*
X941491Y-9782960D01*
X941491Y-9782960D02*
X931967Y-9773436D01*
X931967Y-9773436D02*
X922443Y-9754389D01*
X922443Y-9754389D02*
X912920Y-9716293D01*
X912920Y-9716293D02*
X912920Y-9668674D01*
X912920Y-9668674D02*
X922443Y-9630579D01*
X922443Y-9630579D02*
X931967Y-9611531D01*
X931967Y-9611531D02*
X941491Y-9602008D01*
X941491Y-9602008D02*
X960539Y-9592484D01*
X1112920Y-9792484D02*
X1112920Y-9659150D01*
X1112920Y-9678198D02*
X1122444Y-9668674D01*
X1122444Y-9668674D02*
X1141491Y-9659150D01*
X1141491Y-9659150D02*
X1170063Y-9659150D01*
X1170063Y-9659150D02*
X1189110Y-9668674D01*
X1189110Y-9668674D02*
X1198634Y-9687722D01*
X1198634Y-9687722D02*
X1198634Y-9792484D01*
X1198634Y-9687722D02*
X1208158Y-9668674D01*
X1208158Y-9668674D02*
X1227205Y-9659150D01*
X1227205Y-9659150D02*
X1255777Y-9659150D01*
X1255777Y-9659150D02*
X1274825Y-9668674D01*
X1274825Y-9668674D02*
X1284348Y-9687722D01*
X1284348Y-9687722D02*
X1284348Y-9792484D01*
X1379586Y-9792484D02*
X1379586Y-9659150D01*
X1379586Y-9678198D02*
X1389110Y-9668674D01*
X1389110Y-9668674D02*
X1408158Y-9659150D01*
X1408158Y-9659150D02*
X1436729Y-9659150D01*
X1436729Y-9659150D02*
X1455777Y-9668674D01*
X1455777Y-9668674D02*
X1465301Y-9687722D01*
X1465301Y-9687722D02*
X1465301Y-9792484D01*
X1465301Y-9687722D02*
X1474824Y-9668674D01*
X1474824Y-9668674D02*
X1493872Y-9659150D01*
X1493872Y-9659150D02*
X1522443Y-9659150D01*
X1522443Y-9659150D02*
X1541491Y-9668674D01*
X1541491Y-9668674D02*
X1551015Y-9687722D01*
X1551015Y-9687722D02*
X1551015Y-9792484D01*
X1941491Y-9582960D02*
X1770063Y-9840103D01*
X2198634Y-9592484D02*
X2217682Y-9592484D01*
X2217682Y-9592484D02*
X2236729Y-9602008D01*
X2236729Y-9602008D02*
X2246253Y-9611531D01*
X2246253Y-9611531D02*
X2255777Y-9630579D01*
X2255777Y-9630579D02*
X2265301Y-9668674D01*
X2265301Y-9668674D02*
X2265301Y-9716293D01*
X2265301Y-9716293D02*
X2255777Y-9754389D01*
X2255777Y-9754389D02*
X2246253Y-9773436D01*
X2246253Y-9773436D02*
X2236729Y-9782960D01*
X2236729Y-9782960D02*
X2217682Y-9792484D01*
X2217682Y-9792484D02*
X2198634Y-9792484D01*
X2198634Y-9792484D02*
X2179587Y-9782960D01*
X2179587Y-9782960D02*
X2170063Y-9773436D01*
X2170063Y-9773436D02*
X2160539Y-9754389D01*
X2160539Y-9754389D02*
X2151015Y-9716293D01*
X2151015Y-9716293D02*
X2151015Y-9668674D01*
X2151015Y-9668674D02*
X2160539Y-9630579D01*
X2160539Y-9630579D02*
X2170063Y-9611531D01*
X2170063Y-9611531D02*
X2179587Y-9602008D01*
X2179587Y-9602008D02*
X2198634Y-9592484D01*
X2351015Y-9773436D02*
X2360539Y-9782960D01*
X2360539Y-9782960D02*
X2351015Y-9792484D01*
X2351015Y-9792484D02*
X2341491Y-9782960D01*
X2341491Y-9782960D02*
X2351015Y-9773436D01*
X2351015Y-9773436D02*
X2351015Y-9792484D01*
X2484348Y-9592484D02*
X2503396Y-9592484D01*
X2503396Y-9592484D02*
X2522444Y-9602008D01*
X2522444Y-9602008D02*
X2531968Y-9611531D01*
X2531968Y-9611531D02*
X2541491Y-9630579D01*
X2541491Y-9630579D02*
X2551015Y-9668674D01*
X2551015Y-9668674D02*
X2551015Y-9716293D01*
X2551015Y-9716293D02*
X2541491Y-9754389D01*
X2541491Y-9754389D02*
X2531968Y-9773436D01*
X2531968Y-9773436D02*
X2522444Y-9782960D01*
X2522444Y-9782960D02*
X2503396Y-9792484D01*
X2503396Y-9792484D02*
X2484348Y-9792484D01*
X2484348Y-9792484D02*
X2465301Y-9782960D01*
X2465301Y-9782960D02*
X2455777Y-9773436D01*
X2455777Y-9773436D02*
X2446253Y-9754389D01*
X2446253Y-9754389D02*
X2436729Y-9716293D01*
X2436729Y-9716293D02*
X2436729Y-9668674D01*
X2436729Y-9668674D02*
X2446253Y-9630579D01*
X2446253Y-9630579D02*
X2455777Y-9611531D01*
X2455777Y-9611531D02*
X2465301Y-9602008D01*
X2465301Y-9602008D02*
X2484348Y-9592484D01*
X2722444Y-9659150D02*
X2722444Y-9792484D01*
X2674825Y-9582960D02*
X2627206Y-9725817D01*
X2627206Y-9725817D02*
X2751015Y-9725817D01*
X2808158Y-9592484D02*
X2931967Y-9592484D01*
X2931967Y-9592484D02*
X2865301Y-9668674D01*
X2865301Y-9668674D02*
X2893872Y-9668674D01*
X2893872Y-9668674D02*
X2912920Y-9678198D01*
X2912920Y-9678198D02*
X2922444Y-9687722D01*
X2922444Y-9687722D02*
X2931967Y-9706770D01*
X2931967Y-9706770D02*
X2931967Y-9754389D01*
X2931967Y-9754389D02*
X2922444Y-9773436D01*
X2922444Y-9773436D02*
X2912920Y-9782960D01*
X2912920Y-9782960D02*
X2893872Y-9792484D01*
X2893872Y-9792484D02*
X2836729Y-9792484D01*
X2836729Y-9792484D02*
X2817682Y-9782960D01*
X2817682Y-9782960D02*
X2808158Y-9773436D01*
X2998634Y-9592484D02*
X3122444Y-9592484D01*
X3122444Y-9592484D02*
X3055777Y-9668674D01*
X3055777Y-9668674D02*
X3084348Y-9668674D01*
X3084348Y-9668674D02*
X3103396Y-9678198D01*
X3103396Y-9678198D02*
X3112920Y-9687722D01*
X3112920Y-9687722D02*
X3122444Y-9706770D01*
X3122444Y-9706770D02*
X3122444Y-9754389D01*
X3122444Y-9754389D02*
X3112920Y-9773436D01*
X3112920Y-9773436D02*
X3103396Y-9782960D01*
X3103396Y-9782960D02*
X3084348Y-9792484D01*
X3084348Y-9792484D02*
X3027206Y-9792484D01*
X3027206Y-9792484D02*
X3008158Y-9782960D01*
X3008158Y-9782960D02*
X2998634Y-9773436D01*
X3198634Y-9592484D02*
X3198634Y-9630579D01*
X3274825Y-9592484D02*
X3274825Y-9630579D01*
X3570063Y-9868674D02*
X3560539Y-9859150D01*
X3560539Y-9859150D02*
X3541491Y-9830579D01*
X3541491Y-9830579D02*
X3531968Y-9811531D01*
X3531968Y-9811531D02*
X3522444Y-9782960D01*
X3522444Y-9782960D02*
X3512920Y-9735341D01*
X3512920Y-9735341D02*
X3512920Y-9697246D01*
X3512920Y-9697246D02*
X3522444Y-9649627D01*
X3522444Y-9649627D02*
X3531968Y-9621055D01*
X3531968Y-9621055D02*
X3541491Y-9602008D01*
X3541491Y-9602008D02*
X3560539Y-9573436D01*
X3560539Y-9573436D02*
X3570063Y-9563912D01*
X3655777Y-9792484D02*
X3693872Y-9792484D01*
X3693872Y-9792484D02*
X3712920Y-9782960D01*
X3712920Y-9782960D02*
X3722444Y-9773436D01*
X3722444Y-9773436D02*
X3741491Y-9744865D01*
X3741491Y-9744865D02*
X3751015Y-9706770D01*
X3751015Y-9706770D02*
X3751015Y-9630579D01*
X3751015Y-9630579D02*
X3741491Y-9611531D01*
X3741491Y-9611531D02*
X3731968Y-9602008D01*
X3731968Y-9602008D02*
X3712920Y-9592484D01*
X3712920Y-9592484D02*
X3674825Y-9592484D01*
X3674825Y-9592484D02*
X3655777Y-9602008D01*
X3655777Y-9602008D02*
X3646253Y-9611531D01*
X3646253Y-9611531D02*
X3636729Y-9630579D01*
X3636729Y-9630579D02*
X3636729Y-9678198D01*
X3636729Y-9678198D02*
X3646253Y-9697246D01*
X3646253Y-9697246D02*
X3655777Y-9706770D01*
X3655777Y-9706770D02*
X3674825Y-9716293D01*
X3674825Y-9716293D02*
X3712920Y-9716293D01*
X3712920Y-9716293D02*
X3731968Y-9706770D01*
X3731968Y-9706770D02*
X3741491Y-9697246D01*
X3741491Y-9697246D02*
X3751015Y-9678198D01*
X3989110Y-9792484D02*
X3989110Y-9592484D01*
X4074825Y-9792484D02*
X4074825Y-9687722D01*
X4074825Y-9687722D02*
X4065301Y-9668674D01*
X4065301Y-9668674D02*
X4046253Y-9659150D01*
X4046253Y-9659150D02*
X4017682Y-9659150D01*
X4017682Y-9659150D02*
X3998634Y-9668674D01*
X3998634Y-9668674D02*
X3989110Y-9678198D01*
X4198634Y-9792484D02*
X4179587Y-9782960D01*
X4179587Y-9782960D02*
X4170063Y-9773436D01*
X4170063Y-9773436D02*
X4160539Y-9754389D01*
X4160539Y-9754389D02*
X4160539Y-9697246D01*
X4160539Y-9697246D02*
X4170063Y-9678198D01*
X4170063Y-9678198D02*
X4179587Y-9668674D01*
X4179587Y-9668674D02*
X4198634Y-9659150D01*
X4198634Y-9659150D02*
X4227206Y-9659150D01*
X4227206Y-9659150D02*
X4246253Y-9668674D01*
X4246253Y-9668674D02*
X4255777Y-9678198D01*
X4255777Y-9678198D02*
X4265301Y-9697246D01*
X4265301Y-9697246D02*
X4265301Y-9754389D01*
X4265301Y-9754389D02*
X4255777Y-9773436D01*
X4255777Y-9773436D02*
X4246253Y-9782960D01*
X4246253Y-9782960D02*
X4227206Y-9792484D01*
X4227206Y-9792484D02*
X4198634Y-9792484D01*
X4379587Y-9792484D02*
X4360539Y-9782960D01*
X4360539Y-9782960D02*
X4351015Y-9763912D01*
X4351015Y-9763912D02*
X4351015Y-9592484D01*
X4531968Y-9782960D02*
X4512920Y-9792484D01*
X4512920Y-9792484D02*
X4474825Y-9792484D01*
X4474825Y-9792484D02*
X4455777Y-9782960D01*
X4455777Y-9782960D02*
X4446253Y-9763912D01*
X4446253Y-9763912D02*
X4446253Y-9687722D01*
X4446253Y-9687722D02*
X4455777Y-9668674D01*
X4455777Y-9668674D02*
X4474825Y-9659150D01*
X4474825Y-9659150D02*
X4512920Y-9659150D01*
X4512920Y-9659150D02*
X4531968Y-9668674D01*
X4531968Y-9668674D02*
X4541492Y-9687722D01*
X4541492Y-9687722D02*
X4541492Y-9706770D01*
X4541492Y-9706770D02*
X4446253Y-9725817D01*
X4617682Y-9782960D02*
X4636730Y-9792484D01*
X4636730Y-9792484D02*
X4674825Y-9792484D01*
X4674825Y-9792484D02*
X4693873Y-9782960D01*
X4693873Y-9782960D02*
X4703396Y-9763912D01*
X4703396Y-9763912D02*
X4703396Y-9754389D01*
X4703396Y-9754389D02*
X4693873Y-9735341D01*
X4693873Y-9735341D02*
X4674825Y-9725817D01*
X4674825Y-9725817D02*
X4646253Y-9725817D01*
X4646253Y-9725817D02*
X4627206Y-9716293D01*
X4627206Y-9716293D02*
X4617682Y-9697246D01*
X4617682Y-9697246D02*
X4617682Y-9687722D01*
X4617682Y-9687722D02*
X4627206Y-9668674D01*
X4627206Y-9668674D02*
X4646253Y-9659150D01*
X4646253Y-9659150D02*
X4674825Y-9659150D01*
X4674825Y-9659150D02*
X4693873Y-9668674D01*
X4770063Y-9868674D02*
X4779587Y-9859150D01*
X4779587Y-9859150D02*
X4798634Y-9830579D01*
X4798634Y-9830579D02*
X4808158Y-9811531D01*
X4808158Y-9811531D02*
X4817682Y-9782960D01*
X4817682Y-9782960D02*
X4827206Y-9735341D01*
X4827206Y-9735341D02*
X4827206Y-9697246D01*
X4827206Y-9697246D02*
X4817682Y-9649627D01*
X4817682Y-9649627D02*
X4808158Y-9621055D01*
X4808158Y-9621055D02*
X4798634Y-9602008D01*
X4798634Y-9602008D02*
X4779587Y-9573436D01*
X4779587Y-9573436D02*
X4770063Y-9563912D01*
D13*
X-135000Y-9900000D02*
X-5000Y-10030000D01*
X-5000Y-9900000D02*
X-135000Y-10030000D01*
X-5000Y-9965000D02*
G75*
G02*
X-135000Y-9965000I-65000J0D01*
G01*
X-135000Y-9965000D02*
G75*
G02*
X-5000Y-9965000I65000J0D01*
G01*
D11*
X360539Y-10056484D02*
X246253Y-10056484D01*
X303396Y-10056484D02*
X303396Y-9856484D01*
X303396Y-9856484D02*
X284348Y-9885055D01*
X284348Y-9885055D02*
X265301Y-9904103D01*
X265301Y-9904103D02*
X246253Y-9913627D01*
X446253Y-10037436D02*
X455777Y-10046960D01*
X455777Y-10046960D02*
X446253Y-10056484D01*
X446253Y-10056484D02*
X436729Y-10046960D01*
X436729Y-10046960D02*
X446253Y-10037436D01*
X446253Y-10037436D02*
X446253Y-10056484D01*
X522443Y-9856484D02*
X646253Y-9856484D01*
X646253Y-9856484D02*
X579586Y-9932674D01*
X579586Y-9932674D02*
X608158Y-9932674D01*
X608158Y-9932674D02*
X627205Y-9942198D01*
X627205Y-9942198D02*
X636729Y-9951722D01*
X636729Y-9951722D02*
X646253Y-9970770D01*
X646253Y-9970770D02*
X646253Y-10018389D01*
X646253Y-10018389D02*
X636729Y-10037436D01*
X636729Y-10037436D02*
X627205Y-10046960D01*
X627205Y-10046960D02*
X608158Y-10056484D01*
X608158Y-10056484D02*
X551015Y-10056484D01*
X551015Y-10056484D02*
X531967Y-10046960D01*
X531967Y-10046960D02*
X522443Y-10037436D01*
X770062Y-9856484D02*
X789110Y-9856484D01*
X789110Y-9856484D02*
X808158Y-9866008D01*
X808158Y-9866008D02*
X817682Y-9875531D01*
X817682Y-9875531D02*
X827205Y-9894579D01*
X827205Y-9894579D02*
X836729Y-9932674D01*
X836729Y-9932674D02*
X836729Y-9980293D01*
X836729Y-9980293D02*
X827205Y-10018389D01*
X827205Y-10018389D02*
X817682Y-10037436D01*
X817682Y-10037436D02*
X808158Y-10046960D01*
X808158Y-10046960D02*
X789110Y-10056484D01*
X789110Y-10056484D02*
X770062Y-10056484D01*
X770062Y-10056484D02*
X751015Y-10046960D01*
X751015Y-10046960D02*
X741491Y-10037436D01*
X741491Y-10037436D02*
X731967Y-10018389D01*
X731967Y-10018389D02*
X722443Y-9980293D01*
X722443Y-9980293D02*
X722443Y-9932674D01*
X722443Y-9932674D02*
X731967Y-9894579D01*
X731967Y-9894579D02*
X741491Y-9875531D01*
X741491Y-9875531D02*
X751015Y-9866008D01*
X751015Y-9866008D02*
X770062Y-9856484D01*
X960539Y-9856484D02*
X979586Y-9856484D01*
X979586Y-9856484D02*
X998634Y-9866008D01*
X998634Y-9866008D02*
X1008158Y-9875531D01*
X1008158Y-9875531D02*
X1017682Y-9894579D01*
X1017682Y-9894579D02*
X1027205Y-9932674D01*
X1027205Y-9932674D02*
X1027205Y-9980293D01*
X1027205Y-9980293D02*
X1017682Y-10018389D01*
X1017682Y-10018389D02*
X1008158Y-10037436D01*
X1008158Y-10037436D02*
X998634Y-10046960D01*
X998634Y-10046960D02*
X979586Y-10056484D01*
X979586Y-10056484D02*
X960539Y-10056484D01*
X960539Y-10056484D02*
X941491Y-10046960D01*
X941491Y-10046960D02*
X931967Y-10037436D01*
X931967Y-10037436D02*
X922443Y-10018389D01*
X922443Y-10018389D02*
X912920Y-9980293D01*
X912920Y-9980293D02*
X912920Y-9932674D01*
X912920Y-9932674D02*
X922443Y-9894579D01*
X922443Y-9894579D02*
X931967Y-9875531D01*
X931967Y-9875531D02*
X941491Y-9866008D01*
X941491Y-9866008D02*
X960539Y-9856484D01*
X1112920Y-10056484D02*
X1112920Y-9923150D01*
X1112920Y-9942198D02*
X1122444Y-9932674D01*
X1122444Y-9932674D02*
X1141491Y-9923150D01*
X1141491Y-9923150D02*
X1170063Y-9923150D01*
X1170063Y-9923150D02*
X1189110Y-9932674D01*
X1189110Y-9932674D02*
X1198634Y-9951722D01*
X1198634Y-9951722D02*
X1198634Y-10056484D01*
X1198634Y-9951722D02*
X1208158Y-9932674D01*
X1208158Y-9932674D02*
X1227205Y-9923150D01*
X1227205Y-9923150D02*
X1255777Y-9923150D01*
X1255777Y-9923150D02*
X1274825Y-9932674D01*
X1274825Y-9932674D02*
X1284348Y-9951722D01*
X1284348Y-9951722D02*
X1284348Y-10056484D01*
X1379586Y-10056484D02*
X1379586Y-9923150D01*
X1379586Y-9942198D02*
X1389110Y-9932674D01*
X1389110Y-9932674D02*
X1408158Y-9923150D01*
X1408158Y-9923150D02*
X1436729Y-9923150D01*
X1436729Y-9923150D02*
X1455777Y-9932674D01*
X1455777Y-9932674D02*
X1465301Y-9951722D01*
X1465301Y-9951722D02*
X1465301Y-10056484D01*
X1465301Y-9951722D02*
X1474824Y-9932674D01*
X1474824Y-9932674D02*
X1493872Y-9923150D01*
X1493872Y-9923150D02*
X1522443Y-9923150D01*
X1522443Y-9923150D02*
X1541491Y-9932674D01*
X1541491Y-9932674D02*
X1551015Y-9951722D01*
X1551015Y-9951722D02*
X1551015Y-10056484D01*
X1941491Y-9846960D02*
X1770063Y-10104103D01*
X2198634Y-9856484D02*
X2217682Y-9856484D01*
X2217682Y-9856484D02*
X2236729Y-9866008D01*
X2236729Y-9866008D02*
X2246253Y-9875531D01*
X2246253Y-9875531D02*
X2255777Y-9894579D01*
X2255777Y-9894579D02*
X2265301Y-9932674D01*
X2265301Y-9932674D02*
X2265301Y-9980293D01*
X2265301Y-9980293D02*
X2255777Y-10018389D01*
X2255777Y-10018389D02*
X2246253Y-10037436D01*
X2246253Y-10037436D02*
X2236729Y-10046960D01*
X2236729Y-10046960D02*
X2217682Y-10056484D01*
X2217682Y-10056484D02*
X2198634Y-10056484D01*
X2198634Y-10056484D02*
X2179587Y-10046960D01*
X2179587Y-10046960D02*
X2170063Y-10037436D01*
X2170063Y-10037436D02*
X2160539Y-10018389D01*
X2160539Y-10018389D02*
X2151015Y-9980293D01*
X2151015Y-9980293D02*
X2151015Y-9932674D01*
X2151015Y-9932674D02*
X2160539Y-9894579D01*
X2160539Y-9894579D02*
X2170063Y-9875531D01*
X2170063Y-9875531D02*
X2179587Y-9866008D01*
X2179587Y-9866008D02*
X2198634Y-9856484D01*
X2351015Y-10037436D02*
X2360539Y-10046960D01*
X2360539Y-10046960D02*
X2351015Y-10056484D01*
X2351015Y-10056484D02*
X2341491Y-10046960D01*
X2341491Y-10046960D02*
X2351015Y-10037436D01*
X2351015Y-10037436D02*
X2351015Y-10056484D01*
X2484348Y-9856484D02*
X2503396Y-9856484D01*
X2503396Y-9856484D02*
X2522444Y-9866008D01*
X2522444Y-9866008D02*
X2531968Y-9875531D01*
X2531968Y-9875531D02*
X2541491Y-9894579D01*
X2541491Y-9894579D02*
X2551015Y-9932674D01*
X2551015Y-9932674D02*
X2551015Y-9980293D01*
X2551015Y-9980293D02*
X2541491Y-10018389D01*
X2541491Y-10018389D02*
X2531968Y-10037436D01*
X2531968Y-10037436D02*
X2522444Y-10046960D01*
X2522444Y-10046960D02*
X2503396Y-10056484D01*
X2503396Y-10056484D02*
X2484348Y-10056484D01*
X2484348Y-10056484D02*
X2465301Y-10046960D01*
X2465301Y-10046960D02*
X2455777Y-10037436D01*
X2455777Y-10037436D02*
X2446253Y-10018389D01*
X2446253Y-10018389D02*
X2436729Y-9980293D01*
X2436729Y-9980293D02*
X2436729Y-9932674D01*
X2436729Y-9932674D02*
X2446253Y-9894579D01*
X2446253Y-9894579D02*
X2455777Y-9875531D01*
X2455777Y-9875531D02*
X2465301Y-9866008D01*
X2465301Y-9866008D02*
X2484348Y-9856484D01*
X2731968Y-9856484D02*
X2636729Y-9856484D01*
X2636729Y-9856484D02*
X2627206Y-9951722D01*
X2627206Y-9951722D02*
X2636729Y-9942198D01*
X2636729Y-9942198D02*
X2655777Y-9932674D01*
X2655777Y-9932674D02*
X2703396Y-9932674D01*
X2703396Y-9932674D02*
X2722444Y-9942198D01*
X2722444Y-9942198D02*
X2731968Y-9951722D01*
X2731968Y-9951722D02*
X2741491Y-9970770D01*
X2741491Y-9970770D02*
X2741491Y-10018389D01*
X2741491Y-10018389D02*
X2731968Y-10037436D01*
X2731968Y-10037436D02*
X2722444Y-10046960D01*
X2722444Y-10046960D02*
X2703396Y-10056484D01*
X2703396Y-10056484D02*
X2655777Y-10056484D01*
X2655777Y-10056484D02*
X2636729Y-10046960D01*
X2636729Y-10046960D02*
X2627206Y-10037436D01*
X2931967Y-10056484D02*
X2817682Y-10056484D01*
X2874825Y-10056484D02*
X2874825Y-9856484D01*
X2874825Y-9856484D02*
X2855777Y-9885055D01*
X2855777Y-9885055D02*
X2836729Y-9904103D01*
X2836729Y-9904103D02*
X2817682Y-9913627D01*
X3008158Y-9875531D02*
X3017682Y-9866008D01*
X3017682Y-9866008D02*
X3036729Y-9856484D01*
X3036729Y-9856484D02*
X3084348Y-9856484D01*
X3084348Y-9856484D02*
X3103396Y-9866008D01*
X3103396Y-9866008D02*
X3112920Y-9875531D01*
X3112920Y-9875531D02*
X3122444Y-9894579D01*
X3122444Y-9894579D02*
X3122444Y-9913627D01*
X3122444Y-9913627D02*
X3112920Y-9942198D01*
X3112920Y-9942198D02*
X2998634Y-10056484D01*
X2998634Y-10056484D02*
X3122444Y-10056484D01*
X3198634Y-9856484D02*
X3198634Y-9894579D01*
X3274825Y-9856484D02*
X3274825Y-9894579D01*
X3570063Y-10132674D02*
X3560539Y-10123150D01*
X3560539Y-10123150D02*
X3541491Y-10094579D01*
X3541491Y-10094579D02*
X3531968Y-10075531D01*
X3531968Y-10075531D02*
X3522444Y-10046960D01*
X3522444Y-10046960D02*
X3512920Y-9999341D01*
X3512920Y-9999341D02*
X3512920Y-9961246D01*
X3512920Y-9961246D02*
X3522444Y-9913627D01*
X3522444Y-9913627D02*
X3531968Y-9885055D01*
X3531968Y-9885055D02*
X3541491Y-9866008D01*
X3541491Y-9866008D02*
X3560539Y-9837436D01*
X3560539Y-9837436D02*
X3570063Y-9827912D01*
X3627206Y-9856484D02*
X3751015Y-9856484D01*
X3751015Y-9856484D02*
X3684348Y-9932674D01*
X3684348Y-9932674D02*
X3712920Y-9932674D01*
X3712920Y-9932674D02*
X3731968Y-9942198D01*
X3731968Y-9942198D02*
X3741491Y-9951722D01*
X3741491Y-9951722D02*
X3751015Y-9970770D01*
X3751015Y-9970770D02*
X3751015Y-10018389D01*
X3751015Y-10018389D02*
X3741491Y-10037436D01*
X3741491Y-10037436D02*
X3731968Y-10046960D01*
X3731968Y-10046960D02*
X3712920Y-10056484D01*
X3712920Y-10056484D02*
X3655777Y-10056484D01*
X3655777Y-10056484D02*
X3636729Y-10046960D01*
X3636729Y-10046960D02*
X3627206Y-10037436D01*
X3989110Y-10056484D02*
X3989110Y-9856484D01*
X4074825Y-10056484D02*
X4074825Y-9951722D01*
X4074825Y-9951722D02*
X4065301Y-9932674D01*
X4065301Y-9932674D02*
X4046253Y-9923150D01*
X4046253Y-9923150D02*
X4017682Y-9923150D01*
X4017682Y-9923150D02*
X3998634Y-9932674D01*
X3998634Y-9932674D02*
X3989110Y-9942198D01*
X4198634Y-10056484D02*
X4179587Y-10046960D01*
X4179587Y-10046960D02*
X4170063Y-10037436D01*
X4170063Y-10037436D02*
X4160539Y-10018389D01*
X4160539Y-10018389D02*
X4160539Y-9961246D01*
X4160539Y-9961246D02*
X4170063Y-9942198D01*
X4170063Y-9942198D02*
X4179587Y-9932674D01*
X4179587Y-9932674D02*
X4198634Y-9923150D01*
X4198634Y-9923150D02*
X4227206Y-9923150D01*
X4227206Y-9923150D02*
X4246253Y-9932674D01*
X4246253Y-9932674D02*
X4255777Y-9942198D01*
X4255777Y-9942198D02*
X4265301Y-9961246D01*
X4265301Y-9961246D02*
X4265301Y-10018389D01*
X4265301Y-10018389D02*
X4255777Y-10037436D01*
X4255777Y-10037436D02*
X4246253Y-10046960D01*
X4246253Y-10046960D02*
X4227206Y-10056484D01*
X4227206Y-10056484D02*
X4198634Y-10056484D01*
X4379587Y-10056484D02*
X4360539Y-10046960D01*
X4360539Y-10046960D02*
X4351015Y-10027912D01*
X4351015Y-10027912D02*
X4351015Y-9856484D01*
X4531968Y-10046960D02*
X4512920Y-10056484D01*
X4512920Y-10056484D02*
X4474825Y-10056484D01*
X4474825Y-10056484D02*
X4455777Y-10046960D01*
X4455777Y-10046960D02*
X4446253Y-10027912D01*
X4446253Y-10027912D02*
X4446253Y-9951722D01*
X4446253Y-9951722D02*
X4455777Y-9932674D01*
X4455777Y-9932674D02*
X4474825Y-9923150D01*
X4474825Y-9923150D02*
X4512920Y-9923150D01*
X4512920Y-9923150D02*
X4531968Y-9932674D01*
X4531968Y-9932674D02*
X4541492Y-9951722D01*
X4541492Y-9951722D02*
X4541492Y-9970770D01*
X4541492Y-9970770D02*
X4446253Y-9989817D01*
X4617682Y-10046960D02*
X4636730Y-10056484D01*
X4636730Y-10056484D02*
X4674825Y-10056484D01*
X4674825Y-10056484D02*
X4693873Y-10046960D01*
X4693873Y-10046960D02*
X4703396Y-10027912D01*
X4703396Y-10027912D02*
X4703396Y-10018389D01*
X4703396Y-10018389D02*
X4693873Y-9999341D01*
X4693873Y-9999341D02*
X4674825Y-9989817D01*
X4674825Y-9989817D02*
X4646253Y-9989817D01*
X4646253Y-9989817D02*
X4627206Y-9980293D01*
X4627206Y-9980293D02*
X4617682Y-9961246D01*
X4617682Y-9961246D02*
X4617682Y-9951722D01*
X4617682Y-9951722D02*
X4627206Y-9932674D01*
X4627206Y-9932674D02*
X4646253Y-9923150D01*
X4646253Y-9923150D02*
X4674825Y-9923150D01*
X4674825Y-9923150D02*
X4693873Y-9932674D01*
X4770063Y-10132674D02*
X4779587Y-10123150D01*
X4779587Y-10123150D02*
X4798634Y-10094579D01*
X4798634Y-10094579D02*
X4808158Y-10075531D01*
X4808158Y-10075531D02*
X4817682Y-10046960D01*
X4817682Y-10046960D02*
X4827206Y-9999341D01*
X4827206Y-9999341D02*
X4827206Y-9961246D01*
X4827206Y-9961246D02*
X4817682Y-9913627D01*
X4817682Y-9913627D02*
X4808158Y-9885055D01*
X4808158Y-9885055D02*
X4798634Y-9866008D01*
X4798634Y-9866008D02*
X4779587Y-9837436D01*
X4779587Y-9837436D02*
X4770063Y-9827912D01*
D14*
X-145000Y-10159000D02*
X-5000Y-10299000D01*
X-5000Y-10159000D02*
X-145000Y-10299000D01*
X-75000Y-10159000D02*
X-75000Y-10299000D01*
X-145000Y-10229000D02*
X-5000Y-10229000D01*
D11*
X360539Y-10320484D02*
X246253Y-10320484D01*
X303396Y-10320484D02*
X303396Y-10120484D01*
X303396Y-10120484D02*
X284348Y-10149055D01*
X284348Y-10149055D02*
X265301Y-10168103D01*
X265301Y-10168103D02*
X246253Y-10177627D01*
X446253Y-10301436D02*
X455777Y-10310960D01*
X455777Y-10310960D02*
X446253Y-10320484D01*
X446253Y-10320484D02*
X436729Y-10310960D01*
X436729Y-10310960D02*
X446253Y-10301436D01*
X446253Y-10301436D02*
X446253Y-10320484D01*
X627205Y-10187150D02*
X627205Y-10320484D01*
X579586Y-10110960D02*
X531967Y-10253817D01*
X531967Y-10253817D02*
X655777Y-10253817D01*
X770062Y-10120484D02*
X789110Y-10120484D01*
X789110Y-10120484D02*
X808158Y-10130008D01*
X808158Y-10130008D02*
X817682Y-10139531D01*
X817682Y-10139531D02*
X827205Y-10158579D01*
X827205Y-10158579D02*
X836729Y-10196674D01*
X836729Y-10196674D02*
X836729Y-10244293D01*
X836729Y-10244293D02*
X827205Y-10282389D01*
X827205Y-10282389D02*
X817682Y-10301436D01*
X817682Y-10301436D02*
X808158Y-10310960D01*
X808158Y-10310960D02*
X789110Y-10320484D01*
X789110Y-10320484D02*
X770062Y-10320484D01*
X770062Y-10320484D02*
X751015Y-10310960D01*
X751015Y-10310960D02*
X741491Y-10301436D01*
X741491Y-10301436D02*
X731967Y-10282389D01*
X731967Y-10282389D02*
X722443Y-10244293D01*
X722443Y-10244293D02*
X722443Y-10196674D01*
X722443Y-10196674D02*
X731967Y-10158579D01*
X731967Y-10158579D02*
X741491Y-10139531D01*
X741491Y-10139531D02*
X751015Y-10130008D01*
X751015Y-10130008D02*
X770062Y-10120484D01*
X960539Y-10120484D02*
X979586Y-10120484D01*
X979586Y-10120484D02*
X998634Y-10130008D01*
X998634Y-10130008D02*
X1008158Y-10139531D01*
X1008158Y-10139531D02*
X1017682Y-10158579D01*
X1017682Y-10158579D02*
X1027205Y-10196674D01*
X1027205Y-10196674D02*
X1027205Y-10244293D01*
X1027205Y-10244293D02*
X1017682Y-10282389D01*
X1017682Y-10282389D02*
X1008158Y-10301436D01*
X1008158Y-10301436D02*
X998634Y-10310960D01*
X998634Y-10310960D02*
X979586Y-10320484D01*
X979586Y-10320484D02*
X960539Y-10320484D01*
X960539Y-10320484D02*
X941491Y-10310960D01*
X941491Y-10310960D02*
X931967Y-10301436D01*
X931967Y-10301436D02*
X922443Y-10282389D01*
X922443Y-10282389D02*
X912920Y-10244293D01*
X912920Y-10244293D02*
X912920Y-10196674D01*
X912920Y-10196674D02*
X922443Y-10158579D01*
X922443Y-10158579D02*
X931967Y-10139531D01*
X931967Y-10139531D02*
X941491Y-10130008D01*
X941491Y-10130008D02*
X960539Y-10120484D01*
X1112920Y-10320484D02*
X1112920Y-10187150D01*
X1112920Y-10206198D02*
X1122444Y-10196674D01*
X1122444Y-10196674D02*
X1141491Y-10187150D01*
X1141491Y-10187150D02*
X1170063Y-10187150D01*
X1170063Y-10187150D02*
X1189110Y-10196674D01*
X1189110Y-10196674D02*
X1198634Y-10215722D01*
X1198634Y-10215722D02*
X1198634Y-10320484D01*
X1198634Y-10215722D02*
X1208158Y-10196674D01*
X1208158Y-10196674D02*
X1227205Y-10187150D01*
X1227205Y-10187150D02*
X1255777Y-10187150D01*
X1255777Y-10187150D02*
X1274825Y-10196674D01*
X1274825Y-10196674D02*
X1284348Y-10215722D01*
X1284348Y-10215722D02*
X1284348Y-10320484D01*
X1379586Y-10320484D02*
X1379586Y-10187150D01*
X1379586Y-10206198D02*
X1389110Y-10196674D01*
X1389110Y-10196674D02*
X1408158Y-10187150D01*
X1408158Y-10187150D02*
X1436729Y-10187150D01*
X1436729Y-10187150D02*
X1455777Y-10196674D01*
X1455777Y-10196674D02*
X1465301Y-10215722D01*
X1465301Y-10215722D02*
X1465301Y-10320484D01*
X1465301Y-10215722D02*
X1474824Y-10196674D01*
X1474824Y-10196674D02*
X1493872Y-10187150D01*
X1493872Y-10187150D02*
X1522443Y-10187150D01*
X1522443Y-10187150D02*
X1541491Y-10196674D01*
X1541491Y-10196674D02*
X1551015Y-10215722D01*
X1551015Y-10215722D02*
X1551015Y-10320484D01*
X1941491Y-10110960D02*
X1770063Y-10368103D01*
X2198634Y-10120484D02*
X2217682Y-10120484D01*
X2217682Y-10120484D02*
X2236729Y-10130008D01*
X2236729Y-10130008D02*
X2246253Y-10139531D01*
X2246253Y-10139531D02*
X2255777Y-10158579D01*
X2255777Y-10158579D02*
X2265301Y-10196674D01*
X2265301Y-10196674D02*
X2265301Y-10244293D01*
X2265301Y-10244293D02*
X2255777Y-10282389D01*
X2255777Y-10282389D02*
X2246253Y-10301436D01*
X2246253Y-10301436D02*
X2236729Y-10310960D01*
X2236729Y-10310960D02*
X2217682Y-10320484D01*
X2217682Y-10320484D02*
X2198634Y-10320484D01*
X2198634Y-10320484D02*
X2179587Y-10310960D01*
X2179587Y-10310960D02*
X2170063Y-10301436D01*
X2170063Y-10301436D02*
X2160539Y-10282389D01*
X2160539Y-10282389D02*
X2151015Y-10244293D01*
X2151015Y-10244293D02*
X2151015Y-10196674D01*
X2151015Y-10196674D02*
X2160539Y-10158579D01*
X2160539Y-10158579D02*
X2170063Y-10139531D01*
X2170063Y-10139531D02*
X2179587Y-10130008D01*
X2179587Y-10130008D02*
X2198634Y-10120484D01*
X2351015Y-10301436D02*
X2360539Y-10310960D01*
X2360539Y-10310960D02*
X2351015Y-10320484D01*
X2351015Y-10320484D02*
X2341491Y-10310960D01*
X2341491Y-10310960D02*
X2351015Y-10301436D01*
X2351015Y-10301436D02*
X2351015Y-10320484D01*
X2484348Y-10120484D02*
X2503396Y-10120484D01*
X2503396Y-10120484D02*
X2522444Y-10130008D01*
X2522444Y-10130008D02*
X2531968Y-10139531D01*
X2531968Y-10139531D02*
X2541491Y-10158579D01*
X2541491Y-10158579D02*
X2551015Y-10196674D01*
X2551015Y-10196674D02*
X2551015Y-10244293D01*
X2551015Y-10244293D02*
X2541491Y-10282389D01*
X2541491Y-10282389D02*
X2531968Y-10301436D01*
X2531968Y-10301436D02*
X2522444Y-10310960D01*
X2522444Y-10310960D02*
X2503396Y-10320484D01*
X2503396Y-10320484D02*
X2484348Y-10320484D01*
X2484348Y-10320484D02*
X2465301Y-10310960D01*
X2465301Y-10310960D02*
X2455777Y-10301436D01*
X2455777Y-10301436D02*
X2446253Y-10282389D01*
X2446253Y-10282389D02*
X2436729Y-10244293D01*
X2436729Y-10244293D02*
X2436729Y-10196674D01*
X2436729Y-10196674D02*
X2446253Y-10158579D01*
X2446253Y-10158579D02*
X2455777Y-10139531D01*
X2455777Y-10139531D02*
X2465301Y-10130008D01*
X2465301Y-10130008D02*
X2484348Y-10120484D01*
X2731968Y-10120484D02*
X2636729Y-10120484D01*
X2636729Y-10120484D02*
X2627206Y-10215722D01*
X2627206Y-10215722D02*
X2636729Y-10206198D01*
X2636729Y-10206198D02*
X2655777Y-10196674D01*
X2655777Y-10196674D02*
X2703396Y-10196674D01*
X2703396Y-10196674D02*
X2722444Y-10206198D01*
X2722444Y-10206198D02*
X2731968Y-10215722D01*
X2731968Y-10215722D02*
X2741491Y-10234770D01*
X2741491Y-10234770D02*
X2741491Y-10282389D01*
X2741491Y-10282389D02*
X2731968Y-10301436D01*
X2731968Y-10301436D02*
X2722444Y-10310960D01*
X2722444Y-10310960D02*
X2703396Y-10320484D01*
X2703396Y-10320484D02*
X2655777Y-10320484D01*
X2655777Y-10320484D02*
X2636729Y-10310960D01*
X2636729Y-10310960D02*
X2627206Y-10301436D01*
X2922444Y-10120484D02*
X2827206Y-10120484D01*
X2827206Y-10120484D02*
X2817682Y-10215722D01*
X2817682Y-10215722D02*
X2827206Y-10206198D01*
X2827206Y-10206198D02*
X2846253Y-10196674D01*
X2846253Y-10196674D02*
X2893872Y-10196674D01*
X2893872Y-10196674D02*
X2912920Y-10206198D01*
X2912920Y-10206198D02*
X2922444Y-10215722D01*
X2922444Y-10215722D02*
X2931967Y-10234770D01*
X2931967Y-10234770D02*
X2931967Y-10282389D01*
X2931967Y-10282389D02*
X2922444Y-10301436D01*
X2922444Y-10301436D02*
X2912920Y-10310960D01*
X2912920Y-10310960D02*
X2893872Y-10320484D01*
X2893872Y-10320484D02*
X2846253Y-10320484D01*
X2846253Y-10320484D02*
X2827206Y-10310960D01*
X2827206Y-10310960D02*
X2817682Y-10301436D01*
X3122444Y-10320484D02*
X3008158Y-10320484D01*
X3065301Y-10320484D02*
X3065301Y-10120484D01*
X3065301Y-10120484D02*
X3046253Y-10149055D01*
X3046253Y-10149055D02*
X3027206Y-10168103D01*
X3027206Y-10168103D02*
X3008158Y-10177627D01*
X3198634Y-10120484D02*
X3198634Y-10158579D01*
X3274825Y-10120484D02*
X3274825Y-10158579D01*
X3570063Y-10396674D02*
X3560539Y-10387150D01*
X3560539Y-10387150D02*
X3541491Y-10358579D01*
X3541491Y-10358579D02*
X3531968Y-10339531D01*
X3531968Y-10339531D02*
X3522444Y-10310960D01*
X3522444Y-10310960D02*
X3512920Y-10263341D01*
X3512920Y-10263341D02*
X3512920Y-10225246D01*
X3512920Y-10225246D02*
X3522444Y-10177627D01*
X3522444Y-10177627D02*
X3531968Y-10149055D01*
X3531968Y-10149055D02*
X3541491Y-10130008D01*
X3541491Y-10130008D02*
X3560539Y-10101436D01*
X3560539Y-10101436D02*
X3570063Y-10091912D01*
X3751015Y-10320484D02*
X3636729Y-10320484D01*
X3693872Y-10320484D02*
X3693872Y-10120484D01*
X3693872Y-10120484D02*
X3674825Y-10149055D01*
X3674825Y-10149055D02*
X3655777Y-10168103D01*
X3655777Y-10168103D02*
X3636729Y-10177627D01*
X3931968Y-10120484D02*
X3836729Y-10120484D01*
X3836729Y-10120484D02*
X3827206Y-10215722D01*
X3827206Y-10215722D02*
X3836729Y-10206198D01*
X3836729Y-10206198D02*
X3855777Y-10196674D01*
X3855777Y-10196674D02*
X3903396Y-10196674D01*
X3903396Y-10196674D02*
X3922444Y-10206198D01*
X3922444Y-10206198D02*
X3931968Y-10215722D01*
X3931968Y-10215722D02*
X3941491Y-10234770D01*
X3941491Y-10234770D02*
X3941491Y-10282389D01*
X3941491Y-10282389D02*
X3931968Y-10301436D01*
X3931968Y-10301436D02*
X3922444Y-10310960D01*
X3922444Y-10310960D02*
X3903396Y-10320484D01*
X3903396Y-10320484D02*
X3855777Y-10320484D01*
X3855777Y-10320484D02*
X3836729Y-10310960D01*
X3836729Y-10310960D02*
X3827206Y-10301436D01*
X4179587Y-10320484D02*
X4179587Y-10120484D01*
X4265301Y-10320484D02*
X4265301Y-10215722D01*
X4265301Y-10215722D02*
X4255777Y-10196674D01*
X4255777Y-10196674D02*
X4236730Y-10187150D01*
X4236730Y-10187150D02*
X4208158Y-10187150D01*
X4208158Y-10187150D02*
X4189110Y-10196674D01*
X4189110Y-10196674D02*
X4179587Y-10206198D01*
X4389111Y-10320484D02*
X4370063Y-10310960D01*
X4370063Y-10310960D02*
X4360539Y-10301436D01*
X4360539Y-10301436D02*
X4351015Y-10282389D01*
X4351015Y-10282389D02*
X4351015Y-10225246D01*
X4351015Y-10225246D02*
X4360539Y-10206198D01*
X4360539Y-10206198D02*
X4370063Y-10196674D01*
X4370063Y-10196674D02*
X4389111Y-10187150D01*
X4389111Y-10187150D02*
X4417682Y-10187150D01*
X4417682Y-10187150D02*
X4436730Y-10196674D01*
X4436730Y-10196674D02*
X4446253Y-10206198D01*
X4446253Y-10206198D02*
X4455777Y-10225246D01*
X4455777Y-10225246D02*
X4455777Y-10282389D01*
X4455777Y-10282389D02*
X4446253Y-10301436D01*
X4446253Y-10301436D02*
X4436730Y-10310960D01*
X4436730Y-10310960D02*
X4417682Y-10320484D01*
X4417682Y-10320484D02*
X4389111Y-10320484D01*
X4570063Y-10320484D02*
X4551015Y-10310960D01*
X4551015Y-10310960D02*
X4541492Y-10291912D01*
X4541492Y-10291912D02*
X4541492Y-10120484D01*
X4722444Y-10310960D02*
X4703396Y-10320484D01*
X4703396Y-10320484D02*
X4665301Y-10320484D01*
X4665301Y-10320484D02*
X4646253Y-10310960D01*
X4646253Y-10310960D02*
X4636730Y-10291912D01*
X4636730Y-10291912D02*
X4636730Y-10215722D01*
X4636730Y-10215722D02*
X4646253Y-10196674D01*
X4646253Y-10196674D02*
X4665301Y-10187150D01*
X4665301Y-10187150D02*
X4703396Y-10187150D01*
X4703396Y-10187150D02*
X4722444Y-10196674D01*
X4722444Y-10196674D02*
X4731968Y-10215722D01*
X4731968Y-10215722D02*
X4731968Y-10234770D01*
X4731968Y-10234770D02*
X4636730Y-10253817D01*
X4808158Y-10310960D02*
X4827206Y-10320484D01*
X4827206Y-10320484D02*
X4865301Y-10320484D01*
X4865301Y-10320484D02*
X4884349Y-10310960D01*
X4884349Y-10310960D02*
X4893873Y-10291912D01*
X4893873Y-10291912D02*
X4893873Y-10282389D01*
X4893873Y-10282389D02*
X4884349Y-10263341D01*
X4884349Y-10263341D02*
X4865301Y-10253817D01*
X4865301Y-10253817D02*
X4836730Y-10253817D01*
X4836730Y-10253817D02*
X4817682Y-10244293D01*
X4817682Y-10244293D02*
X4808158Y-10225246D01*
X4808158Y-10225246D02*
X4808158Y-10215722D01*
X4808158Y-10215722D02*
X4817682Y-10196674D01*
X4817682Y-10196674D02*
X4836730Y-10187150D01*
X4836730Y-10187150D02*
X4865301Y-10187150D01*
X4865301Y-10187150D02*
X4884349Y-10196674D01*
X4960539Y-10396674D02*
X4970063Y-10387150D01*
X4970063Y-10387150D02*
X4989111Y-10358579D01*
X4989111Y-10358579D02*
X4998634Y-10339531D01*
X4998634Y-10339531D02*
X5008158Y-10310960D01*
X5008158Y-10310960D02*
X5017682Y-10263341D01*
X5017682Y-10263341D02*
X5017682Y-10225246D01*
X5017682Y-10225246D02*
X5008158Y-10177627D01*
X5008158Y-10177627D02*
X4998634Y-10149055D01*
X4998634Y-10149055D02*
X4989111Y-10130008D01*
X4989111Y-10130008D02*
X4970063Y-10101436D01*
X4970063Y-10101436D02*
X4960539Y-10091912D01*
X-205000Y-10393000D02*
X-5000Y-10593000D01*
X-5000Y-10393000D02*
X-205000Y-10593000D01*
X-34289Y-10563711D02*
X-34289Y-10422289D01*
X-175711Y-10422289D01*
X-175711Y-10563711D01*
X-34289Y-10563711D01*
X236729Y-10384484D02*
X360539Y-10384484D01*
X360539Y-10384484D02*
X293872Y-10460674D01*
X293872Y-10460674D02*
X322444Y-10460674D01*
X322444Y-10460674D02*
X341491Y-10470198D01*
X341491Y-10470198D02*
X351015Y-10479722D01*
X351015Y-10479722D02*
X360539Y-10498770D01*
X360539Y-10498770D02*
X360539Y-10546389D01*
X360539Y-10546389D02*
X351015Y-10565436D01*
X351015Y-10565436D02*
X341491Y-10574960D01*
X341491Y-10574960D02*
X322444Y-10584484D01*
X322444Y-10584484D02*
X265301Y-10584484D01*
X265301Y-10584484D02*
X246253Y-10574960D01*
X246253Y-10574960D02*
X236729Y-10565436D01*
X446253Y-10565436D02*
X455777Y-10574960D01*
X455777Y-10574960D02*
X446253Y-10584484D01*
X446253Y-10584484D02*
X436729Y-10574960D01*
X436729Y-10574960D02*
X446253Y-10565436D01*
X446253Y-10565436D02*
X446253Y-10584484D01*
X531967Y-10403531D02*
X541491Y-10394008D01*
X541491Y-10394008D02*
X560539Y-10384484D01*
X560539Y-10384484D02*
X608158Y-10384484D01*
X608158Y-10384484D02*
X627205Y-10394008D01*
X627205Y-10394008D02*
X636729Y-10403531D01*
X636729Y-10403531D02*
X646253Y-10422579D01*
X646253Y-10422579D02*
X646253Y-10441627D01*
X646253Y-10441627D02*
X636729Y-10470198D01*
X636729Y-10470198D02*
X522443Y-10584484D01*
X522443Y-10584484D02*
X646253Y-10584484D01*
X770062Y-10384484D02*
X789110Y-10384484D01*
X789110Y-10384484D02*
X808158Y-10394008D01*
X808158Y-10394008D02*
X817682Y-10403531D01*
X817682Y-10403531D02*
X827205Y-10422579D01*
X827205Y-10422579D02*
X836729Y-10460674D01*
X836729Y-10460674D02*
X836729Y-10508293D01*
X836729Y-10508293D02*
X827205Y-10546389D01*
X827205Y-10546389D02*
X817682Y-10565436D01*
X817682Y-10565436D02*
X808158Y-10574960D01*
X808158Y-10574960D02*
X789110Y-10584484D01*
X789110Y-10584484D02*
X770062Y-10584484D01*
X770062Y-10584484D02*
X751015Y-10574960D01*
X751015Y-10574960D02*
X741491Y-10565436D01*
X741491Y-10565436D02*
X731967Y-10546389D01*
X731967Y-10546389D02*
X722443Y-10508293D01*
X722443Y-10508293D02*
X722443Y-10460674D01*
X722443Y-10460674D02*
X731967Y-10422579D01*
X731967Y-10422579D02*
X741491Y-10403531D01*
X741491Y-10403531D02*
X751015Y-10394008D01*
X751015Y-10394008D02*
X770062Y-10384484D01*
X960539Y-10384484D02*
X979586Y-10384484D01*
X979586Y-10384484D02*
X998634Y-10394008D01*
X998634Y-10394008D02*
X1008158Y-10403531D01*
X1008158Y-10403531D02*
X1017682Y-10422579D01*
X1017682Y-10422579D02*
X1027205Y-10460674D01*
X1027205Y-10460674D02*
X1027205Y-10508293D01*
X1027205Y-10508293D02*
X1017682Y-10546389D01*
X1017682Y-10546389D02*
X1008158Y-10565436D01*
X1008158Y-10565436D02*
X998634Y-10574960D01*
X998634Y-10574960D02*
X979586Y-10584484D01*
X979586Y-10584484D02*
X960539Y-10584484D01*
X960539Y-10584484D02*
X941491Y-10574960D01*
X941491Y-10574960D02*
X931967Y-10565436D01*
X931967Y-10565436D02*
X922443Y-10546389D01*
X922443Y-10546389D02*
X912920Y-10508293D01*
X912920Y-10508293D02*
X912920Y-10460674D01*
X912920Y-10460674D02*
X922443Y-10422579D01*
X922443Y-10422579D02*
X931967Y-10403531D01*
X931967Y-10403531D02*
X941491Y-10394008D01*
X941491Y-10394008D02*
X960539Y-10384484D01*
X1112920Y-10584484D02*
X1112920Y-10451150D01*
X1112920Y-10470198D02*
X1122444Y-10460674D01*
X1122444Y-10460674D02*
X1141491Y-10451150D01*
X1141491Y-10451150D02*
X1170063Y-10451150D01*
X1170063Y-10451150D02*
X1189110Y-10460674D01*
X1189110Y-10460674D02*
X1198634Y-10479722D01*
X1198634Y-10479722D02*
X1198634Y-10584484D01*
X1198634Y-10479722D02*
X1208158Y-10460674D01*
X1208158Y-10460674D02*
X1227205Y-10451150D01*
X1227205Y-10451150D02*
X1255777Y-10451150D01*
X1255777Y-10451150D02*
X1274825Y-10460674D01*
X1274825Y-10460674D02*
X1284348Y-10479722D01*
X1284348Y-10479722D02*
X1284348Y-10584484D01*
X1379586Y-10584484D02*
X1379586Y-10451150D01*
X1379586Y-10470198D02*
X1389110Y-10460674D01*
X1389110Y-10460674D02*
X1408158Y-10451150D01*
X1408158Y-10451150D02*
X1436729Y-10451150D01*
X1436729Y-10451150D02*
X1455777Y-10460674D01*
X1455777Y-10460674D02*
X1465301Y-10479722D01*
X1465301Y-10479722D02*
X1465301Y-10584484D01*
X1465301Y-10479722D02*
X1474824Y-10460674D01*
X1474824Y-10460674D02*
X1493872Y-10451150D01*
X1493872Y-10451150D02*
X1522443Y-10451150D01*
X1522443Y-10451150D02*
X1541491Y-10460674D01*
X1541491Y-10460674D02*
X1551015Y-10479722D01*
X1551015Y-10479722D02*
X1551015Y-10584484D01*
X1941491Y-10374960D02*
X1770063Y-10632103D01*
X2198634Y-10384484D02*
X2217682Y-10384484D01*
X2217682Y-10384484D02*
X2236729Y-10394008D01*
X2236729Y-10394008D02*
X2246253Y-10403531D01*
X2246253Y-10403531D02*
X2255777Y-10422579D01*
X2255777Y-10422579D02*
X2265301Y-10460674D01*
X2265301Y-10460674D02*
X2265301Y-10508293D01*
X2265301Y-10508293D02*
X2255777Y-10546389D01*
X2255777Y-10546389D02*
X2246253Y-10565436D01*
X2246253Y-10565436D02*
X2236729Y-10574960D01*
X2236729Y-10574960D02*
X2217682Y-10584484D01*
X2217682Y-10584484D02*
X2198634Y-10584484D01*
X2198634Y-10584484D02*
X2179587Y-10574960D01*
X2179587Y-10574960D02*
X2170063Y-10565436D01*
X2170063Y-10565436D02*
X2160539Y-10546389D01*
X2160539Y-10546389D02*
X2151015Y-10508293D01*
X2151015Y-10508293D02*
X2151015Y-10460674D01*
X2151015Y-10460674D02*
X2160539Y-10422579D01*
X2160539Y-10422579D02*
X2170063Y-10403531D01*
X2170063Y-10403531D02*
X2179587Y-10394008D01*
X2179587Y-10394008D02*
X2198634Y-10384484D01*
X2351015Y-10565436D02*
X2360539Y-10574960D01*
X2360539Y-10574960D02*
X2351015Y-10584484D01*
X2351015Y-10584484D02*
X2341491Y-10574960D01*
X2341491Y-10574960D02*
X2351015Y-10565436D01*
X2351015Y-10565436D02*
X2351015Y-10584484D01*
X2551015Y-10584484D02*
X2436729Y-10584484D01*
X2493872Y-10584484D02*
X2493872Y-10384484D01*
X2493872Y-10384484D02*
X2474825Y-10413055D01*
X2474825Y-10413055D02*
X2455777Y-10432103D01*
X2455777Y-10432103D02*
X2436729Y-10441627D01*
X2627206Y-10403531D02*
X2636729Y-10394008D01*
X2636729Y-10394008D02*
X2655777Y-10384484D01*
X2655777Y-10384484D02*
X2703396Y-10384484D01*
X2703396Y-10384484D02*
X2722444Y-10394008D01*
X2722444Y-10394008D02*
X2731968Y-10403531D01*
X2731968Y-10403531D02*
X2741491Y-10422579D01*
X2741491Y-10422579D02*
X2741491Y-10441627D01*
X2741491Y-10441627D02*
X2731968Y-10470198D01*
X2731968Y-10470198D02*
X2617682Y-10584484D01*
X2617682Y-10584484D02*
X2741491Y-10584484D01*
X2912920Y-10384484D02*
X2874825Y-10384484D01*
X2874825Y-10384484D02*
X2855777Y-10394008D01*
X2855777Y-10394008D02*
X2846253Y-10403531D01*
X2846253Y-10403531D02*
X2827206Y-10432103D01*
X2827206Y-10432103D02*
X2817682Y-10470198D01*
X2817682Y-10470198D02*
X2817682Y-10546389D01*
X2817682Y-10546389D02*
X2827206Y-10565436D01*
X2827206Y-10565436D02*
X2836729Y-10574960D01*
X2836729Y-10574960D02*
X2855777Y-10584484D01*
X2855777Y-10584484D02*
X2893872Y-10584484D01*
X2893872Y-10584484D02*
X2912920Y-10574960D01*
X2912920Y-10574960D02*
X2922444Y-10565436D01*
X2922444Y-10565436D02*
X2931967Y-10546389D01*
X2931967Y-10546389D02*
X2931967Y-10498770D01*
X2931967Y-10498770D02*
X2922444Y-10479722D01*
X2922444Y-10479722D02*
X2912920Y-10470198D01*
X2912920Y-10470198D02*
X2893872Y-10460674D01*
X2893872Y-10460674D02*
X2855777Y-10460674D01*
X2855777Y-10460674D02*
X2836729Y-10470198D01*
X2836729Y-10470198D02*
X2827206Y-10479722D01*
X2827206Y-10479722D02*
X2817682Y-10498770D01*
X3055777Y-10384484D02*
X3074825Y-10384484D01*
X3074825Y-10384484D02*
X3093872Y-10394008D01*
X3093872Y-10394008D02*
X3103396Y-10403531D01*
X3103396Y-10403531D02*
X3112920Y-10422579D01*
X3112920Y-10422579D02*
X3122444Y-10460674D01*
X3122444Y-10460674D02*
X3122444Y-10508293D01*
X3122444Y-10508293D02*
X3112920Y-10546389D01*
X3112920Y-10546389D02*
X3103396Y-10565436D01*
X3103396Y-10565436D02*
X3093872Y-10574960D01*
X3093872Y-10574960D02*
X3074825Y-10584484D01*
X3074825Y-10584484D02*
X3055777Y-10584484D01*
X3055777Y-10584484D02*
X3036729Y-10574960D01*
X3036729Y-10574960D02*
X3027206Y-10565436D01*
X3027206Y-10565436D02*
X3017682Y-10546389D01*
X3017682Y-10546389D02*
X3008158Y-10508293D01*
X3008158Y-10508293D02*
X3008158Y-10460674D01*
X3008158Y-10460674D02*
X3017682Y-10422579D01*
X3017682Y-10422579D02*
X3027206Y-10403531D01*
X3027206Y-10403531D02*
X3036729Y-10394008D01*
X3036729Y-10394008D02*
X3055777Y-10384484D01*
X3198634Y-10384484D02*
X3198634Y-10422579D01*
X3274825Y-10384484D02*
X3274825Y-10422579D01*
X3570063Y-10660674D02*
X3560539Y-10651150D01*
X3560539Y-10651150D02*
X3541491Y-10622579D01*
X3541491Y-10622579D02*
X3531968Y-10603531D01*
X3531968Y-10603531D02*
X3522444Y-10574960D01*
X3522444Y-10574960D02*
X3512920Y-10527341D01*
X3512920Y-10527341D02*
X3512920Y-10489246D01*
X3512920Y-10489246D02*
X3522444Y-10441627D01*
X3522444Y-10441627D02*
X3531968Y-10413055D01*
X3531968Y-10413055D02*
X3541491Y-10394008D01*
X3541491Y-10394008D02*
X3560539Y-10365436D01*
X3560539Y-10365436D02*
X3570063Y-10355912D01*
X3731968Y-10451150D02*
X3731968Y-10584484D01*
X3684348Y-10374960D02*
X3636729Y-10517817D01*
X3636729Y-10517817D02*
X3760539Y-10517817D01*
X3989110Y-10584484D02*
X3989110Y-10384484D01*
X4074825Y-10584484D02*
X4074825Y-10479722D01*
X4074825Y-10479722D02*
X4065301Y-10460674D01*
X4065301Y-10460674D02*
X4046253Y-10451150D01*
X4046253Y-10451150D02*
X4017682Y-10451150D01*
X4017682Y-10451150D02*
X3998634Y-10460674D01*
X3998634Y-10460674D02*
X3989110Y-10470198D01*
X4198634Y-10584484D02*
X4179587Y-10574960D01*
X4179587Y-10574960D02*
X4170063Y-10565436D01*
X4170063Y-10565436D02*
X4160539Y-10546389D01*
X4160539Y-10546389D02*
X4160539Y-10489246D01*
X4160539Y-10489246D02*
X4170063Y-10470198D01*
X4170063Y-10470198D02*
X4179587Y-10460674D01*
X4179587Y-10460674D02*
X4198634Y-10451150D01*
X4198634Y-10451150D02*
X4227206Y-10451150D01*
X4227206Y-10451150D02*
X4246253Y-10460674D01*
X4246253Y-10460674D02*
X4255777Y-10470198D01*
X4255777Y-10470198D02*
X4265301Y-10489246D01*
X4265301Y-10489246D02*
X4265301Y-10546389D01*
X4265301Y-10546389D02*
X4255777Y-10565436D01*
X4255777Y-10565436D02*
X4246253Y-10574960D01*
X4246253Y-10574960D02*
X4227206Y-10584484D01*
X4227206Y-10584484D02*
X4198634Y-10584484D01*
X4379587Y-10584484D02*
X4360539Y-10574960D01*
X4360539Y-10574960D02*
X4351015Y-10555912D01*
X4351015Y-10555912D02*
X4351015Y-10384484D01*
X4531968Y-10574960D02*
X4512920Y-10584484D01*
X4512920Y-10584484D02*
X4474825Y-10584484D01*
X4474825Y-10584484D02*
X4455777Y-10574960D01*
X4455777Y-10574960D02*
X4446253Y-10555912D01*
X4446253Y-10555912D02*
X4446253Y-10479722D01*
X4446253Y-10479722D02*
X4455777Y-10460674D01*
X4455777Y-10460674D02*
X4474825Y-10451150D01*
X4474825Y-10451150D02*
X4512920Y-10451150D01*
X4512920Y-10451150D02*
X4531968Y-10460674D01*
X4531968Y-10460674D02*
X4541492Y-10479722D01*
X4541492Y-10479722D02*
X4541492Y-10498770D01*
X4541492Y-10498770D02*
X4446253Y-10517817D01*
X4617682Y-10574960D02*
X4636730Y-10584484D01*
X4636730Y-10584484D02*
X4674825Y-10584484D01*
X4674825Y-10584484D02*
X4693873Y-10574960D01*
X4693873Y-10574960D02*
X4703396Y-10555912D01*
X4703396Y-10555912D02*
X4703396Y-10546389D01*
X4703396Y-10546389D02*
X4693873Y-10527341D01*
X4693873Y-10527341D02*
X4674825Y-10517817D01*
X4674825Y-10517817D02*
X4646253Y-10517817D01*
X4646253Y-10517817D02*
X4627206Y-10508293D01*
X4627206Y-10508293D02*
X4617682Y-10489246D01*
X4617682Y-10489246D02*
X4617682Y-10479722D01*
X4617682Y-10479722D02*
X4627206Y-10460674D01*
X4627206Y-10460674D02*
X4646253Y-10451150D01*
X4646253Y-10451150D02*
X4674825Y-10451150D01*
X4674825Y-10451150D02*
X4693873Y-10460674D01*
X4770063Y-10660674D02*
X4779587Y-10651150D01*
X4779587Y-10651150D02*
X4798634Y-10622579D01*
X4798634Y-10622579D02*
X4808158Y-10603531D01*
X4808158Y-10603531D02*
X4817682Y-10574960D01*
X4817682Y-10574960D02*
X4827206Y-10527341D01*
X4827206Y-10527341D02*
X4827206Y-10489246D01*
X4827206Y-10489246D02*
X4817682Y-10441627D01*
X4817682Y-10441627D02*
X4808158Y-10413055D01*
X4808158Y-10413055D02*
X4798634Y-10394008D01*
X4798634Y-10394008D02*
X4779587Y-10365436D01*
X4779587Y-10365436D02*
X4770063Y-10355912D01*
X5131968Y-10660674D02*
X5122444Y-10651150D01*
X5122444Y-10651150D02*
X5103396Y-10622579D01*
X5103396Y-10622579D02*
X5093873Y-10603531D01*
X5093873Y-10603531D02*
X5084349Y-10574960D01*
X5084349Y-10574960D02*
X5074825Y-10527341D01*
X5074825Y-10527341D02*
X5074825Y-10489246D01*
X5074825Y-10489246D02*
X5084349Y-10441627D01*
X5084349Y-10441627D02*
X5093873Y-10413055D01*
X5093873Y-10413055D02*
X5103396Y-10394008D01*
X5103396Y-10394008D02*
X5122444Y-10365436D01*
X5122444Y-10365436D02*
X5131968Y-10355912D01*
X5208158Y-10451150D02*
X5208158Y-10584484D01*
X5208158Y-10470198D02*
X5217682Y-10460674D01*
X5217682Y-10460674D02*
X5236730Y-10451150D01*
X5236730Y-10451150D02*
X5265301Y-10451150D01*
X5265301Y-10451150D02*
X5284349Y-10460674D01*
X5284349Y-10460674D02*
X5293873Y-10479722D01*
X5293873Y-10479722D02*
X5293873Y-10584484D01*
X5417682Y-10584484D02*
X5398634Y-10574960D01*
X5398634Y-10574960D02*
X5389111Y-10565436D01*
X5389111Y-10565436D02*
X5379587Y-10546389D01*
X5379587Y-10546389D02*
X5379587Y-10489246D01*
X5379587Y-10489246D02*
X5389111Y-10470198D01*
X5389111Y-10470198D02*
X5398634Y-10460674D01*
X5398634Y-10460674D02*
X5417682Y-10451150D01*
X5417682Y-10451150D02*
X5446254Y-10451150D01*
X5446254Y-10451150D02*
X5465301Y-10460674D01*
X5465301Y-10460674D02*
X5474825Y-10470198D01*
X5474825Y-10470198D02*
X5484349Y-10489246D01*
X5484349Y-10489246D02*
X5484349Y-10546389D01*
X5484349Y-10546389D02*
X5474825Y-10565436D01*
X5474825Y-10565436D02*
X5465301Y-10574960D01*
X5465301Y-10574960D02*
X5446254Y-10584484D01*
X5446254Y-10584484D02*
X5417682Y-10584484D01*
X5541492Y-10451150D02*
X5617682Y-10451150D01*
X5570063Y-10384484D02*
X5570063Y-10555912D01*
X5570063Y-10555912D02*
X5579587Y-10574960D01*
X5579587Y-10574960D02*
X5598634Y-10584484D01*
X5598634Y-10584484D02*
X5617682Y-10584484D01*
X5836730Y-10451150D02*
X5836730Y-10651150D01*
X5836730Y-10460674D02*
X5855777Y-10451150D01*
X5855777Y-10451150D02*
X5893873Y-10451150D01*
X5893873Y-10451150D02*
X5912920Y-10460674D01*
X5912920Y-10460674D02*
X5922444Y-10470198D01*
X5922444Y-10470198D02*
X5931968Y-10489246D01*
X5931968Y-10489246D02*
X5931968Y-10546389D01*
X5931968Y-10546389D02*
X5922444Y-10565436D01*
X5922444Y-10565436D02*
X5912920Y-10574960D01*
X5912920Y-10574960D02*
X5893873Y-10584484D01*
X5893873Y-10584484D02*
X5855777Y-10584484D01*
X5855777Y-10584484D02*
X5836730Y-10574960D01*
X6046253Y-10584484D02*
X6027206Y-10574960D01*
X6027206Y-10574960D02*
X6017682Y-10555912D01*
X6017682Y-10555912D02*
X6017682Y-10384484D01*
X6208158Y-10584484D02*
X6208158Y-10479722D01*
X6208158Y-10479722D02*
X6198634Y-10460674D01*
X6198634Y-10460674D02*
X6179587Y-10451150D01*
X6179587Y-10451150D02*
X6141492Y-10451150D01*
X6141492Y-10451150D02*
X6122444Y-10460674D01*
X6208158Y-10574960D02*
X6189111Y-10584484D01*
X6189111Y-10584484D02*
X6141492Y-10584484D01*
X6141492Y-10584484D02*
X6122444Y-10574960D01*
X6122444Y-10574960D02*
X6112920Y-10555912D01*
X6112920Y-10555912D02*
X6112920Y-10536865D01*
X6112920Y-10536865D02*
X6122444Y-10517817D01*
X6122444Y-10517817D02*
X6141492Y-10508293D01*
X6141492Y-10508293D02*
X6189111Y-10508293D01*
X6189111Y-10508293D02*
X6208158Y-10498770D01*
X6274825Y-10451150D02*
X6351015Y-10451150D01*
X6303396Y-10384484D02*
X6303396Y-10555912D01*
X6303396Y-10555912D02*
X6312920Y-10574960D01*
X6312920Y-10574960D02*
X6331968Y-10584484D01*
X6331968Y-10584484D02*
X6351015Y-10584484D01*
X6493873Y-10574960D02*
X6474825Y-10584484D01*
X6474825Y-10584484D02*
X6436730Y-10584484D01*
X6436730Y-10584484D02*
X6417682Y-10574960D01*
X6417682Y-10574960D02*
X6408158Y-10555912D01*
X6408158Y-10555912D02*
X6408158Y-10479722D01*
X6408158Y-10479722D02*
X6417682Y-10460674D01*
X6417682Y-10460674D02*
X6436730Y-10451150D01*
X6436730Y-10451150D02*
X6474825Y-10451150D01*
X6474825Y-10451150D02*
X6493873Y-10460674D01*
X6493873Y-10460674D02*
X6503396Y-10479722D01*
X6503396Y-10479722D02*
X6503396Y-10498770D01*
X6503396Y-10498770D02*
X6408158Y-10517817D01*
X6674825Y-10584484D02*
X6674825Y-10384484D01*
X6674825Y-10574960D02*
X6655777Y-10584484D01*
X6655777Y-10584484D02*
X6617682Y-10584484D01*
X6617682Y-10584484D02*
X6598634Y-10574960D01*
X6598634Y-10574960D02*
X6589111Y-10565436D01*
X6589111Y-10565436D02*
X6579587Y-10546389D01*
X6579587Y-10546389D02*
X6579587Y-10489246D01*
X6579587Y-10489246D02*
X6589111Y-10470198D01*
X6589111Y-10470198D02*
X6598634Y-10460674D01*
X6598634Y-10460674D02*
X6617682Y-10451150D01*
X6617682Y-10451150D02*
X6655777Y-10451150D01*
X6655777Y-10451150D02*
X6674825Y-10460674D01*
X6751015Y-10660674D02*
X6760539Y-10651150D01*
X6760539Y-10651150D02*
X6779587Y-10622579D01*
X6779587Y-10622579D02*
X6789111Y-10603531D01*
X6789111Y-10603531D02*
X6798634Y-10574960D01*
X6798634Y-10574960D02*
X6808158Y-10527341D01*
X6808158Y-10527341D02*
X6808158Y-10489246D01*
X6808158Y-10489246D02*
X6798634Y-10441627D01*
X6798634Y-10441627D02*
X6789111Y-10413055D01*
X6789111Y-10413055D02*
X6779587Y-10394008D01*
X6779587Y-10394008D02*
X6760539Y-10365436D01*
X6760539Y-10365436D02*
X6751015Y-10355912D01*
M02*
