M48
; DRILL file KiCad 10.0.1 date 2026-07-10T19:17:28
; FORMAT={-:-/ absolute / metric / decimal}
; #@! TF.CreationDate,2026-07-10T19:17:28-04:00
; #@! TF.GenerationSoftware,Kicad,Pcbnew,10.0.1
; #@! TF.FileFunction,MixedPlating,1,2
FMAT,2
METRIC
; #@! TA.AperFunction,Plated,PTH,ViaDrill
T1C0.400
; #@! TA.AperFunction,Plated,PTH,ComponentDrill
T2C0.800
; #@! TA.AperFunction,Plated,PTH,ComponentDrill
T3C0.889
; #@! TA.AperFunction,Plated,PTH,ComponentDrill
T4C1.000
; #@! TA.AperFunction,Plated,PTH,ComponentDrill
T5C1.100
; #@! TA.AperFunction,Plated,PTH,ComponentDrill
T6C1.300
; #@! TA.AperFunction,Plated,PTH,ComponentDrill
T7C1.400
; #@! TA.AperFunction,NonPlated,NPTH,ComponentDrill
T8C3.200
%
G90
G05
T1
X1.524Y-8.128
X3.048Y-11.684
X4.064Y-10.16
X6.096Y-13.208
X8.128Y-44.196
X11.176Y-20.828
X13.208Y-13.208
X13.208Y-19.812
X13.208Y-26.924
X13.208Y-34.036
X13.208Y-61.976
X13.208Y-69.088
X14.732Y-2.032
X16.256Y-28.448
X17.78Y-28.448
X18.288Y-11.176
X19.812Y-13.208
X19.812Y-19.812
X19.812Y-30.48
X19.812Y-53.34
X20.828Y-39.116
X20.828Y-40.64
X25.908Y-5.588
X25.908Y-26.416
X28.956Y-39.116
X29.464Y-11.684
X30.48Y-7.62
X30.48Y-30.48
X30.988Y-10.668
X30.988Y-53.848
X32.512Y-41.656
X34.036Y-13.208
X34.036Y-19.812
X34.036Y-54.864
X34.036Y-61.976
X34.036Y-69.088
X41.148Y-13.208
X41.148Y-19.812
X41.148Y-34.036
X41.148Y-47.752
X41.148Y-61.976
X41.148Y-69.088
X47.752Y-46.736
X47.752Y-61.976
X50.8Y-5.588
X50.8Y-29.464
X50.8Y-53.848
X51.816Y-46.736
X54.356Y-73.66
X54.864Y-6.096
X54.864Y-13.208
X54.864Y-20.32
X54.864Y-34.036
X54.864Y-41.148
X54.864Y-54.864
X54.864Y-69.088
X58.928Y-16.256
X58.928Y-21.336
X60.452Y-44.196
X61.976Y-6.096
X61.976Y-13.208
X61.976Y-54.864
X61.976Y-61.976
X61.976Y-69.088
X63.5Y-44.196
X63.5Y-66.548
X64.008Y-31.496
X65.532Y-7.62
X65.532Y-17.78
X66.548Y-65.532
X66.548Y-67.056
X67.056Y-17.272
X67.056Y-22.352
X69.088Y-13.208
X69.088Y-54.864
X69.088Y-75.692
X70.104Y-62.484
X75.184Y-13.716
X75.184Y-19.812
X76.2Y-21.336
X76.2Y-45.212
X76.2Y-62.992
X77.216Y-3.048
X77.216Y-46.736
X82.804Y-6.096
X82.804Y-26.924
X82.804Y-34.036
X82.804Y-41.148
X82.804Y-47.752
X82.804Y-54.864
X89.916Y-6.096
X89.916Y-26.924
X89.916Y-34.036
X89.916Y-41.148
X89.916Y-47.752
X89.916Y-54.864
X97.028Y-6.096
X97.028Y-26.924
X97.028Y-34.036
X97.028Y-41.148
X97.028Y-47.752
X97.028Y-54.864
X97.028Y-69.088
X104.14Y-26.924
X104.14Y-34.036
X104.14Y-41.148
X104.14Y-47.752
X104.14Y-54.864
X104.14Y-69.088
T2
X12.0Y-30.0
X14.5Y-30.0
X35.0Y-44.0
X35.0Y-47.0
X40.0Y-54.0
X42.54Y-54.0
X45.08Y-54.0
X45.16Y-44.0
X45.16Y-47.0
X52.0Y-22.0
X52.0Y-25.0
X52.0Y-28.0
X56.0Y-58.0
X56.0Y-62.0
X62.16Y-22.0
X62.16Y-25.0
X62.16Y-28.0
X66.16Y-58.0
X66.16Y-62.0
X70.0Y-59.0
X72.5Y-59.0
X78.0Y-59.0
X80.5Y-59.0
X84.0Y-59.0
X86.5Y-59.0
T3
X12.38Y-8.38
X12.38Y-23.62
X14.92Y-8.38
X14.92Y-23.62
X17.46Y-8.38
X17.46Y-23.62
X20.0Y-8.38
X20.0Y-23.62
X22.54Y-8.38
X22.54Y-23.62
X25.08Y-8.38
X25.08Y-23.62
X27.62Y-8.38
X27.62Y-23.62
T4
X15.95Y-44.05
X15.95Y-56.05
X32.0Y-34.0
X39.6Y-34.0
X48.0Y-6.0
X48.0Y-8.54
X48.0Y-11.08
X48.0Y-13.62
X48.0Y-16.16
X48.0Y-18.7
X48.0Y-21.24
X48.0Y-23.78
X48.0Y-26.32
X48.0Y-28.86
X48.0Y-31.4
X48.0Y-33.94
X48.0Y-36.48
X48.0Y-39.02
X48.0Y-41.56
X73.4Y-6.0
X73.4Y-8.54
X73.4Y-11.08
X73.4Y-13.62
X73.4Y-16.16
X73.4Y-18.7
X73.4Y-21.24
X73.4Y-23.78
X73.4Y-26.32
X73.4Y-28.86
X73.4Y-31.4
X73.4Y-33.94
X73.4Y-36.48
X73.4Y-39.02
X73.4Y-41.56
X81.0Y-4.0
X83.54Y-4.0
X86.0Y-12.0
X86.0Y-51.0
X86.08Y-4.0
X88.54Y-12.0
X88.54Y-51.0
X88.62Y-4.0
X91.08Y-12.0
X91.08Y-51.0
X93.62Y-12.0
X93.62Y-51.0
X96.16Y-12.0
X96.16Y-51.0
X98.7Y-12.0
X98.7Y-51.0
X101.24Y-12.0
X101.24Y-51.0
X103.78Y-12.0
X103.78Y-51.0
X106.0Y-20.0
X106.0Y-22.54
X106.0Y-25.08
X106.0Y-27.62
T5
X6.0Y-25.84
X6.0Y-36.0
X6.0Y-47.84
X6.0Y-58.0
X62.0Y-50.0
X72.16Y-50.0
X91.0Y-60.0
X93.54Y-60.0
X96.08Y-60.0
T6
X14.0Y-50.0
X28.15Y-56.05
X28.2Y-44.0
T7
X10.0Y-72.0
X15.08Y-72.0
X26.0Y-72.0
X31.08Y-72.0
X36.16Y-72.0
X45.5Y-72.0
X50.58Y-72.0
X60.0Y-72.0
X65.08Y-72.0
X70.16Y-72.0
X75.24Y-72.0
X80.32Y-72.0
X85.4Y-72.0
X90.48Y-72.0
X95.56Y-72.0
T8
X4.0Y-4.0
X4.0Y-64.0
X106.0Y-4.0
X106.0Y-64.0
M30
